<svg id="Layer_1" data-name="Layer 1" xmlns="http://www.w3.org/2000/svg" width="184.22" height="27.33" viewBox="0 0 184.22 27.33"><title>Untitled-1</title><path d="M180.57,20.82H33.62L29,26.54l-5.15-5.72H3.64A3,3,0,0,1,.51,18V3.38A3,3,0,0,1,3.64.55H180.57a3,3,0,0,1,3.13,2.84V18A3,3,0,0,1,180.57,20.82Z" fill="none" stroke="#6dbcdf" stroke-miterlimit="10"/><path d="M15.68,13.88l.1-.73a1.88,1.88,0,0,0,.41.08c.68,0,1.25-.3,1.25-4.57V8.2h4v5.69h-.85V8.94H18.25v.13c0,4.43-.8,4.9-1.88,4.9A3.51,3.51,0,0,1,15.68,13.88Z" fill="#363636"/><path d="M23,15.39l.29-.67a1.78,1.78,0,0,0,.89.21c.51,0,.83-.26,1.17-1.07L22.79,8.2h.94l2.07,4.74L27.62,8.2h.9l-2.39,5.88c-.48,1.18-1,1.61-1.89,1.61A2.58,2.58,0,0,1,23,15.39Z" fill="#363636"/><path d="M33.47,11.54a4.47,4.47,0,0,1-1.9.52,1.65,1.65,0,0,1-1.88-1.71V8.2h.85v2a1,1,0,0,0,1.14,1.09,3.43,3.43,0,0,0,1.79-.54V8.2h.85v5.69h-.85Z" fill="#363636"/><path d="M36.21,8.2h.85v4.94h2.77V8.2h.85v4.94h2.77V8.2h.86v5.69h-8.1Z" fill="#363636"/><path d="M46.2,8.2H47v4.5l3.38-4.5h.83v5.69H50.4V9.38L47,13.88H46.2Z" fill="#363636"/><path d="M52.79,11a2.81,2.81,0,0,1,2.73-3c1.68,0,2.65,1.34,2.65,3,0,.08,0,.17,0,.3H53.64a2,2,0,0,0,2,1.89,2.36,2.36,0,0,0,1.79-.8l.53.47A2.93,2.93,0,0,1,55.62,14,2.83,2.83,0,0,1,52.79,11Zm4.52-.34a1.87,1.87,0,0,0-1.82-1.91,2,2,0,0,0-1.85,1.91Z" fill="#363636"/><path d="M62.6,11a3,3,0,0,1,5.19-2l-.54.57a2.32,2.32,0,0,0-1.75-.84,2.11,2.11,0,0,0-2,2.22,2.13,2.13,0,0,0,2.09,2.21,2.31,2.31,0,0,0,1.72-.86l.56.52A2.94,2.94,0,0,1,62.6,11Z" fill="#363636"/><path d="M69.23,8.2h4.93v5.69h-.85V8.94H70.08v4.94h-.85Z" fill="#363636"/><path d="M75.7,11a3,3,0,1,1,2.95,3A2.94,2.94,0,0,1,75.7,11Zm5.06,0a2.15,2.15,0,0,0-2.11-2.22A2.11,2.11,0,0,0,76.57,11a2.13,2.13,0,0,0,2.1,2.21A2.11,2.11,0,0,0,80.76,11Z" fill="#363636"/><path d="M83.16,8.2H84V9.34a2.56,2.56,0,0,1,2.18-1.27,2.78,2.78,0,0,1,2.72,3,2.78,2.78,0,0,1-2.72,3A2.57,2.57,0,0,1,84,12.79v2.85h-.85ZM88,11a2,2,0,0,0-2-2.2A2.13,2.13,0,0,0,84,11,2.12,2.12,0,0,0,86,13.25,2,2,0,0,0,88,11Z" fill="#363636"/><path d="M91.62,8.94h-2V8.2h4.93v.75h-2v4.94h-.86Z" fill="#363636"/><path d="M95.74,8.2h.85v4.5L100,8.2h.83v5.69h-.85V9.38l-3.39,4.5h-.81Z" fill="#363636"/><path d="M102.68,8.2h2.75c1.13,0,1.86.56,1.86,1.42a1.36,1.36,0,0,1-.95,1.31,1.46,1.46,0,0,1,1.25,1.41c0,1-.81,1.55-2.07,1.55h-2.85Zm2.6,2.44c.68,0,1.15-.32,1.15-.91s-.4-.8-1.13-.8h-1.77v1.72Zm.14,2.52c.81,0,1.31-.36,1.31-1s-.5-.88-1.42-.88h-1.78v1.84Z" fill="#363636"/><path d="M109.13,8.2H110v2.45h3.28V8.2h.85v5.69h-.85V11.4H110v2.49h-.85Z" fill="#363636"/><path d="M116,8.2h.85v2.13h1.52c1.23,0,2.24.51,2.24,1.71s-.85,1.85-2.15,1.85H116Zm2.39,4.94c.85,0,1.36-.36,1.36-1.08s-.53-1-1.4-1h-1.51v2.08Zm3.25-4.94h.85v5.69h-.85Z" fill="#363636"/><path d="M124,11a2.81,2.81,0,0,1,2.73-3c1.68,0,2.65,1.34,2.65,3,0,.08,0,.17,0,.3h-4.51a2,2,0,0,0,2,1.89,2.36,2.36,0,0,0,1.79-.8l.53.47A2.93,2.93,0,0,1,126.85,14,2.83,2.83,0,0,1,124,11Zm4.52-.34a1.87,1.87,0,0,0-1.82-1.91,2,2,0,0,0-1.85,1.91Z" fill="#363636"/><path d="M133.82,11a3,3,0,0,1,5.19-2l-.54.57a2.32,2.32,0,0,0-1.75-.84,2.11,2.11,0,0,0-2,2.22,2.13,2.13,0,0,0,2.09,2.21,2.31,2.31,0,0,0,1.72-.86l.56.52A2.94,2.94,0,0,1,133.82,11Z" fill="#363636"/><path d="M140.25,10.81c0-1.84.14-3.6,2.12-4.07L145.54,6l.17.72-3.08.76a2,2,0,0,0-1.66,2,2.58,2.58,0,0,1,2.35-1.23A2.79,2.79,0,0,1,146,11.09,2.89,2.89,0,0,1,143.13,14C141.4,14,140.25,12.79,140.25,10.81Zm4.92.3a2.08,2.08,0,0,0-2-2.15,2,2,0,0,0-2,2.15,2.08,2.08,0,0,0,2,2.15A2,2,0,0,0,145.16,11.11Z" fill="#363636"/><path d="M147.22,11a3,3,0,1,1,2.95,3A2.94,2.94,0,0,1,147.22,11Zm5.06,0a2.15,2.15,0,0,0-2.11-2.22A2.11,2.11,0,0,0,148.09,11a2.13,2.13,0,0,0,2.1,2.21A2.11,2.11,0,0,0,152.28,11Z" fill="#363636"/><path d="M154.68,8.2h.85V9.34a2.56,2.56,0,0,1,2.18-1.27,2.78,2.78,0,0,1,2.72,3,2.78,2.78,0,0,1-2.72,3,2.57,2.57,0,0,1-2.18-1.21v2.85h-.85ZM159.55,11a2,2,0,0,0-2-2.2A2.13,2.13,0,0,0,155.49,11a2.12,2.12,0,0,0,2.06,2.2A2,2,0,0,0,159.55,11Z" fill="#363636"/><path d="M162,8.2h.85v2.13h1.52c1.23,0,2.24.51,2.24,1.71s-.85,1.85-2.15,1.85H162Zm2.39,4.94c.85,0,1.36-.36,1.36-1.08s-.53-1-1.4-1h-1.51v2.08Zm3.25-4.94h.85v5.69h-.85Z" fill="#363636"/></svg>