<svg xmlns="http://www.w3.org/2000/svg" width="205.99" height="54" viewBox="0 0 205.99 54"><title>logo</title><path d="M57.3 22.34h1.27l8.3 17.94h-1.45l-2.27-5h-10.51l-2.27 5h-1.37zm5.3 11.76l-4.69-10.31-4.71 10.31zM76.06 40.59a6.25 6.25 0 0 1-2.61-.59 6.77 6.77 0 0 1-2.1-1.46 6.66 6.66 0 0 1-1.35-2.1 6.79 6.79 0 0 1-.5-2.6v-.04a6.79 6.79 0 0 1 .5-2.6 7 7 0 0 1 1.35-2.2 6.58 6.58 0 0 1 2.1-1.49 6.25 6.25 0 0 1 2.61-.51 6.63 6.63 0 0 1 1.67.2 6.36 6.36 0 0 1 1.39.53 6.77 6.77 0 0 1 1.16.77 11.39 11.39 0 0 1 1 .92l-.89.92a9.88 9.88 0 0 0-1.86-1.5 4.57 4.57 0 0 0-2.53-.64 5 5 0 0 0-2.07.43 5.13 5.13 0 0 0-1.65 1.18 5.59 5.59 0 0 0-1.11 1.76 5.79 5.79 0 0 0-.41 2.18v.05a5.72 5.72 0 0 0 .45 2.2 5.66 5.66 0 0 0 1.15 1.79 5.29 5.29 0 0 0 1.64 1.21 5.07 5.07 0 0 0 2.09.43 4.82 4.82 0 0 0 2.46-.62 7.59 7.59 0 0 0 1.9-1.54l.87.76a9.22 9.22 0 0 1-2.25 1.86 5.92 5.92 0 0 1-3.01.7zM89.22 40.52a4.83 4.83 0 0 1-1.43-.2 3 3 0 0 1-1.93-1.77 4.13 4.13 0 0 1-.28-1.55v-8.5h-1.88v-1.19h1.88v-4.15h1.25v4.15h4.56v1.15h-4.56v8.35a2.33 2.33 0 0 0 .73 2 3 3 0 0 0 1.87.56 4.19 4.19 0 0 0 .92-.1 5.71 5.71 0 0 0 1-.34v1.17a5.42 5.42 0 0 1-1 .34 4.94 4.94 0 0 1-1.13.08zM95.1 22.21h1.55v1.71h-1.55zm.15 5.09h1.25v13h-1.25zM100.09 27.31h1.45l4.91 11.58 5-11.58h1.4l-5.85 13.08h-1.07zM121.71 40.59a6.28 6.28 0 0 1-2.44-.48 6.17 6.17 0 0 1-2-1.37 6.51 6.51 0 0 1-1.39-2.14 7.27 7.27 0 0 1-.51-2.77v-.05a7.33 7.33 0 0 1 .47-2.63 6.77 6.77 0 0 1 1.26-2.15 6.18 6.18 0 0 1 1.9-1.47 5.6 5.6 0 0 1 2.44-.53 5.68 5.68 0 0 1 2.47.52 5.57 5.57 0 0 1 1.92 1.48 6.55 6.55 0 0 1 1.2 2.15 8.28 8.28 0 0 1 .42 2.69v.27a1.65 1.65 0 0 1 0 .24h-10.79a5.63 5.63 0 0 0 .54 2.15 5.57 5.57 0 0 0 1.15 1.6 4.73 4.73 0 0 0 1.57 1 5.06 5.06 0 0 0 1.85.34 5.29 5.29 0 0 0 2.59-.59 7.63 7.63 0 0 0 1.88-1.45l.87.76a9 9 0 0 1-2.26 1.77 6.37 6.37 0 0 1-3.14.66zm4.41-7.41a7.39 7.39 0 0 0-.4-1.9 5.29 5.29 0 0 0-.89-1.6 4.28 4.28 0 0 0-1.42-1.12 4.65 4.65 0 0 0-3.78 0 4.53 4.53 0 0 0-1.47 1.06 5.72 5.72 0 0 0-1 1.6 6 6 0 0 0-.48 2z" fill="#f79444"/><path d="M131.37 22.47h6.46a9.19 9.19 0 0 1 2.69.37 6.23 6.23 0 0 1 2.09 1.07 4.84 4.84 0 0 1 1.39 1.7 5.25 5.25 0 0 1 .48 2.3v.09a5.11 5.11 0 0 1-2.07 4.25 6.71 6.71 0 0 1-2.21 1.07 9.72 9.72 0 0 1-2.66.36h-4.81v6.64h-1.32zm6.21 10a7.83 7.83 0 0 0 2.27-.31 5.17 5.17 0 0 0 1.74-.88 4.09 4.09 0 0 0 1.13-1.4 4 4 0 0 0 .41-1.82v-.06a4.24 4.24 0 0 0-.39-1.88 3.7 3.7 0 0 0-1.11-1.34 5.13 5.13 0 0 0-1.71-.82 8 8 0 0 0-2.19-.28h-5v8.78zM148.27 21.71h1.25v18.58h-1.25zM158.37 40.59a6.56 6.56 0 0 1-1.81-.25 5.17 5.17 0 0 1-1.6-.76 4 4 0 0 1-1.16-1.27 3.47 3.47 0 0 1-.45-1.78v-.05a3.79 3.79 0 0 1 .42-1.81 3.84 3.84 0 0 1 1.16-1.32 5.38 5.38 0 0 1 1.78-.81 8.93 8.93 0 0 1 2.32-.28 15.81 15.81 0 0 1 2.37.15 17.86 17.86 0 0 1 1.93.41v-.56a3.72 3.72 0 0 0-1.13-3 4.63 4.63 0 0 0-3.14-1 7.72 7.72 0 0 0-2.19.29 10.75 10.75 0 0 0-1.88.75l-.46-1.1a13.22 13.22 0 0 1 2.16-.83 8.9 8.9 0 0 1 2.44-.31 5.55 5.55 0 0 1 4.1 1.43 5 5 0 0 1 1.32 3.67v8.09h-1.22v-2.13a6.47 6.47 0 0 1-.8.9 5.47 5.47 0 0 1-1.08.79 6.24 6.24 0 0 1-1.39.56 6.3 6.3 0 0 1-1.69.22zm.08-1.2a6 6 0 0 0 1.88-.29 5.17 5.17 0 0 0 1.57-.81 3.9 3.9 0 0 0 1.1-1.29 3.38 3.38 0 0 0 .39-1.62v-1.43q-.81-.2-1.91-.39a14.73 14.73 0 0 0-2.49-.19 5.24 5.24 0 0 0-3.17.82 2.6 2.6 0 0 0-1.11 2.19v.05a2.53 2.53 0 0 0 .31 1.25 2.87 2.87 0 0 0 .83.93 3.9 3.9 0 0 0 1.21.58 5 5 0 0 0 1.39.21zM169 27.31h1.25v2.42a6 6 0 0 1 1.78-1.93 4.93 4.93 0 0 1 2.97-.8 5.76 5.76 0 0 1 2.19.39 4.57 4.57 0 0 1 2.66 2.8 6.45 6.45 0 0 1 .34 2.15v7.94h-1.25v-7.71a4.69 4.69 0 0 0-1.07-3.22 3.86 3.86 0 0 0-3.05-1.21 4.53 4.53 0 0 0-1.78.34 4.42 4.42 0 0 0-1.43 1 4.32 4.32 0 0 0-1 1.46 5 5 0 0 0-.34 1.87v7.51h-1.27zM190.13 40.59a6.28 6.28 0 0 1-2.44-.48 6.17 6.17 0 0 1-2-1.37 6.51 6.51 0 0 1-1.39-2.14 7.26 7.26 0 0 1-.51-2.77v-.05a7.33 7.33 0 0 1 .47-2.63 6.77 6.77 0 0 1 1.3-2.15 6.18 6.18 0 0 1 1.95-1.45 5.6 5.6 0 0 1 2.44-.53 5.68 5.68 0 0 1 2.47.52 5.57 5.57 0 0 1 1.83 1.46 6.55 6.55 0 0 1 1.2 2.15 8.28 8.28 0 0 1 .42 2.69v.27a1.65 1.65 0 0 1 0 .24h-10.8a5.63 5.63 0 0 0 .54 2.15 5.57 5.57 0 0 0 1.15 1.6 4.73 4.73 0 0 0 1.57 1 5.06 5.06 0 0 0 1.85.34 5.29 5.29 0 0 0 2.59-.59 7.63 7.63 0 0 0 1.88-1.45l.87.76a9 9 0 0 1-2.26 1.77 6.37 6.37 0 0 1-3.13.66zm4.41-7.41a7.39 7.39 0 0 0-.4-1.9 5.29 5.29 0 0 0-.89-1.6 4.28 4.28 0 0 0-1.42-1.12 4.65 4.65 0 0 0-3.78 0 4.53 4.53 0 0 0-1.47 1.06 5.72 5.72 0 0 0-1 1.6 6 6 0 0 0-.48 2zM203.83 40.52a4.83 4.83 0 0 1-1.43-.2 3 3 0 0 1-1.93-1.77 4.13 4.13 0 0 1-.28-1.59v-8.5h-1.88v-1.15h1.88v-4.15h1.25v4.15h4.56v1.15h-4.56v8.35a2.33 2.33 0 0 0 .73 2 3 3 0 0 0 1.87.56 4.19 4.19 0 0 0 .92-.1 5.69 5.69 0 0 0 1-.34v1.17a5.42 5.42 0 0 1-1 .34 4.94 4.94 0 0 1-1.13.08zM4.42 9.89c0-.52 0-1 .06-1.54a21.45 21.45 0 0 0-2.78 21.48 21.86 21.86 0 0 1 9.3-3.59 23.59 23.59 0 0 1-6.58-16.35z" fill="#9abd3c"/><path d="M21.47 0a21.38 21.38 0 0 0-8.62 1.81.74.74 0 0 0-.37.35 17.43 17.43 0 0 0 30.23 17.25.59.59 0 0 0 .09-.41 21.47 21.47 0 0 0-21.33-19z" fill="#f2993c"/><path d="M30.61 33.56a22 22 0 0 1 3.49 5.44.08.08 0 0 0 .13 0l1.67-1.67q.75-.68 1.43-1.43a21.48 21.48 0 0 0 3.94-6.19.08.08 0 0 0-.12-.1 23.53 23.53 0 0 1-10.5 3.8.08.08 0 0 0-.04.15z" fill="#9abd3c"/><path d="M14.05 32.27a15.67 15.67 0 0 0-9 2.86.08.08 0 0 0 0 .11l.6.68q.68.75 1.43 1.43l14.39 14.44 7.8-7.79a15.75 15.75 0 0 0-15.22-11.73z" fill="#6dbde0"/><path d="M21.47 53.43l-.7-.7-2.47-2.47c-2.87.3-4.89 1-4.89 1.79 0 1.08 3.61 2 8.07 2s8.07-.87 8.07-2c0-.8-2-1.49-4.89-1.79l-2.47 2.47z" fill="#d8d9d8" opacity=".83"/></svg>