<?xml version="1.0" encoding="utf-8"?>
<!-- Generator: Adobe Illustrator 21.0.0, SVG Export Plug-In . SVG Version: 6.00 Build 0)  -->
<svg version="1.1" id="Слой_1" xmlns="http://www.w3.org/2000/svg" xmlns:xlink="http://www.w3.org/1999/xlink" x="0px" y="0px"
	 viewBox="0 0 19 20" style="enable-background:new 0 0 19 20;" xml:space="preserve">
<style type="text/css">
	.st0{fill:#7B519D;}
	.st1{fill:#FFFFFF;}
</style>
<g>
	<path class="st0" d="M5.7,0h7C16.2,0,19,2.7,19,6.1v6.4c0,3.2-2.7,5.8-6.1,5.8H6.1c-4.3,0-6.1-3.2-6.1-5.5V5.5C0,2.5,2.5,0,5.7,0z"
		/>
	<g>
		<path class="st1" d="M14.9,12.4c-0.4-0.3-0.8-0.6-1.2-0.9c-0.8-0.6-1.6-0.6-2.2,0.3c-0.4,0.5-0.8,0.5-1.4,0.3
			c-1.4-0.6-2.5-1.6-3.2-3C6.6,8.6,6.6,8,7.2,7.6c0.4-0.2,0.7-0.5,0.7-1c0-0.7-1.7-2.8-2.3-3.1c-0.3-0.1-0.5-0.1-0.8,0
			C3.2,4,2.6,5.2,3.2,6.7c1.8,4.3,5,7.3,9.4,9.1c0.2,0.1,0.5,0.1,0.7,0.2c1,0,2.2-0.9,2.5-1.8C16.1,13.2,15.4,12.9,14.9,12.4
			L14.9,12.4z M9.9,4C13.1,4.4,14.6,5.9,15,9c0,0.3-0.1,0.7,0.4,0.7c0.4,0,0.3-0.4,0.3-0.7c0-2.9-2.6-5.6-5.7-5.7
			c-0.2,0-0.7-0.2-0.7,0.3C9.3,4,9.7,3.9,9.9,4L9.9,4z"/>
		<path class="st1" d="M10.6,4.8c-0.3,0-0.7-0.2-0.8,0.2c-0.1,0.4,0.4,0.4,0.7,0.5c2,0.4,2.7,1.1,3,3c0,0.3,0,0.7,0.4,0.6
			c0.4-0.1,0.2-0.4,0.3-0.6C14.2,6.7,12.5,5,10.6,4.8L10.6,4.8z"/>
		<path class="st1" d="M10.8,6.3c-0.2,0-0.4,0-0.5,0.2c-0.1,0.3,0.1,0.4,0.4,0.4c0.8,0.1,1.2,0.6,1.3,1.4c0,0.2,0.2,0.4,0.4,0.4
			c0.3,0,0.3-0.3,0.3-0.5C12.7,7.3,11.6,6.3,10.8,6.3L10.8,6.3z"/>
	</g>
	<polygon class="st0" points="1.4,20 5.6,17.2 2.2,16.7 	"/>
</g>
</svg>
