<?xml version="1.0" encoding="utf-8"?>
<!-- Generator: Adobe Illustrator 21.0.0, SVG Export Plug-In . SVG Version: 6.00 Build 0)  -->
<svg version="1.1" id="Слой_1" xmlns="http://www.w3.org/2000/svg" xmlns:xlink="http://www.w3.org/1999/xlink" x="0px" y="0px"
	 viewBox="0 0 20 20" style="enable-background:new 0 0 20 20;" xml:space="preserve">
<style type="text/css">
	.st1{fill: #fff;}
	.st0{fill: #9abe3b;}
</style>
<path class="st0" d="M0,20l1.4-5.1c-0.9-1.5-1.3-3.2-1.3-5C0.1,4.4,4.6,0,10,0c2.7,0,5.2,1,7,2.9C19,4.8,20,7.3,20,9.9
	c0,5.5-4.5,9.9-10,9.9l0,0h0c-1.7,0-3.3-0.4-4.8-1.2L0,20L0,20z"/>
<path class="st1" d="M7.5,5.6C7.3,5.2,7.1,5.2,6.9,5.2c-0.1,0-0.3,0-0.5,0c-0.2,0-0.5,0.1-0.7,0.3C5.5,5.7,4.8,6.4,4.8,7.6
	s0.9,2.5,1.1,2.7c0.1,0.2,1.8,2.8,4.4,3.9c2.2,0.9,2.6,0.7,3.1,0.6c0.5,0,1.5-0.6,1.7-1.2c0.2-0.6,0.2-1.1,0.2-1.2
	c-0.1-0.1-0.2-0.2-0.5-0.3c-0.3-0.1-1.5-0.7-1.8-0.8c-0.2-0.1-0.4-0.1-0.6,0.1c-0.2,0.3-0.7,0.8-0.8,1c-0.2,0.2-0.3,0.2-0.6,0.1
	C10.8,12.3,9.9,12,9,11.1c-0.8-0.7-1.3-1.5-1.4-1.8C7.4,9.1,7.5,9,7.6,8.8C7.8,8.7,7.9,8.5,8,8.4C8.2,8.2,8.2,8.1,8.3,8
	c0.1-0.2,0-0.3,0-0.4C8.2,7.4,7.7,6.1,7.5,5.6L7.5,5.6z"/>
</svg>
