<svg width="36" height="36" viewBox="0 0 36 36" fill="none" xmlns="http://www.w3.org/2000/svg">
<path d="M33.1875 16.3125H27V7.875C26.9995 7.4276 26.8216 6.99866 26.5052 6.6823C26.1888 6.36593 25.7599 6.18799 25.3125 6.1875H23.0625V7.3125H25.3125C25.4616 7.31265 25.6046 7.37196 25.7101 7.47742C25.8155 7.58287 25.8749 7.72586 25.875 7.875V33.75H21.9375V29.25C21.9372 28.9517 21.8185 28.6658 21.6076 28.4549C21.3967 28.244 21.1108 28.1253 20.8125 28.125H15.1875C14.8892 28.1253 14.6033 28.244 14.3924 28.4549C14.1815 28.6658 14.0628 28.9517 14.0625 29.25V33.75H10.125V7.875C10.1251 7.72586 10.1845 7.58287 10.2899 7.47742C10.3954 7.37196 10.5384 7.31265 10.6875 7.3125H12.9375V6.1875H10.6875C10.2401 6.18799 9.81116 6.36593 9.4948 6.6823C9.17844 6.99866 9.00049 7.4276 9 7.875V16.3125H2.8125C2.3651 16.313 1.93616 16.4909 1.6198 16.8073C1.30343 17.1237 1.12549 17.5526 1.125 18V33.1875C1.12549 33.6349 1.30343 34.0638 1.6198 34.3802C1.93616 34.6966 2.3651 34.8745 2.8125 34.875H33.1875C33.6349 34.8745 34.0638 34.6966 34.3802 34.3802C34.6966 34.0638 34.8745 33.6349 34.875 33.1875V18C34.8745 17.5526 34.6966 17.1237 34.3802 16.8073C34.0638 16.4909 33.6349 16.313 33.1875 16.3125ZM9 33.75H2.8125C2.66336 33.7499 2.52037 33.6905 2.41492 33.5851C2.30946 33.4796 2.25015 33.3366 2.25 33.1875V18C2.25015 17.8509 2.30946 17.7079 2.41492 17.6024C2.52037 17.497 2.66336 17.4376 2.8125 17.4375H9V33.75ZM15.1875 33.75V29.25H17.4375V33.75H15.1875ZM18.5625 33.75V29.25H20.8125V33.75H18.5625ZM33.75 33.1875C33.7499 33.3366 33.6905 33.4796 33.5851 33.5851C33.4796 33.6905 33.3366 33.7499 33.1875 33.75H27V17.4375H33.1875C33.3366 17.4376 33.4796 17.497 33.5851 17.6024C33.6905 17.7079 33.7499 17.8509 33.75 18V33.1875Z" fill="white"/>
<path d="M18 1.125C16.9561 1.12622 15.9553 1.54145 15.2171 2.27961C14.479 3.01777 14.0637 4.01858 14.0625 5.0625C14.0625 6.51874 15.6921 9.32135 17.0593 11.4159C17.1613 11.5724 17.3008 11.701 17.465 11.79C17.6293 11.879 17.8132 11.9257 18 11.9257C18.1868 11.9257 18.3707 11.879 18.535 11.79C18.6992 11.701 18.8387 11.5724 18.9407 11.4159C20.3079 9.32135 21.9375 6.51874 21.9375 5.0625C21.9363 4.01858 21.521 3.01777 20.7829 2.27961C20.0447 1.54145 19.0439 1.12622 18 1.125ZM18.0014 10.8007C16.2658 8.14142 15.1875 5.9425 15.1875 5.0625C15.1875 4.31658 15.4838 3.60121 16.0113 3.07376C16.5387 2.54632 17.2541 2.25 18 2.25C18.7459 2.25 19.4613 2.54632 19.9887 3.07376C20.5162 3.60121 20.8125 4.31658 20.8125 5.0625C20.8125 5.9425 19.7342 8.14142 18.0014 10.8007Z" fill="white"/>
<path d="M18 3.375C17.6662 3.375 17.34 3.47397 17.0625 3.65939C16.785 3.84482 16.5687 4.10837 16.4409 4.41672C16.3132 4.72507 16.2798 5.06437 16.3449 5.39171C16.41 5.71906 16.5707 6.01974 16.8067 6.25574C17.0427 6.49174 17.3434 6.65246 17.6708 6.71757C17.9981 6.78269 18.3374 6.74927 18.6458 6.62154C18.9541 6.49382 19.2177 6.27753 19.4031 6.00002C19.5885 5.72251 19.6875 5.39625 19.6875 5.0625C19.687 4.6151 19.5091 4.18616 19.1927 3.8698C18.8763 3.55343 18.4474 3.37549 18 3.375ZM18 5.625C17.8887 5.625 17.78 5.59201 17.6875 5.5302C17.595 5.46839 17.5229 5.38054 17.4803 5.27776C17.4377 5.17497 17.4266 5.06187 17.4483 4.95276C17.47 4.84365 17.5236 4.74342 17.6022 4.66475C17.6809 4.58608 17.7811 4.53251 17.8903 4.51081C17.9994 4.4891 18.1125 4.50024 18.2152 4.54282C18.318 4.58539 18.4059 4.65749 18.4677 4.74999C18.5295 4.84249 18.5625 4.95125 18.5625 5.0625C18.5623 5.21164 18.503 5.35462 18.3976 5.46008C18.2921 5.56554 18.1491 5.62485 18 5.625Z" fill="white"/>
</svg>
