<svg width="29" height="29" viewBox="0 0 29 29" fill="none" xmlns="http://www.w3.org/2000/svg">
<path d="M27.7371 6.23942L27.034 6.0197C26.8583 5.97576 26.6825 5.93182 26.4628 5.93182C25.6719 5.93182 24.9689 6.45907 24.7052 7.20604L24.3098 8.39238V7.51358V7.4697C24.3098 7.33787 24.2219 7.20604 24.1341 7.11816L16.928 0.131829C16.8401 0.0439428 16.7083 0 16.6204 0H2.51587C2.25221 0 2.0765 0.175771 2.0765 0.43937V1.80148L2.07642 26.7591C2.07642 27.0227 2.25219 27.1985 2.51579 27.1985C2.51579 27.1985 14.54 27.1985 22.2446 27.1985C22.8795 27.1985 23.8704 27.1985 23.8704 27.1985C24.1341 27.1985 24.3098 27.0227 24.3098 26.7591V20.8273L25.54 19.1576L25.584 19.0257L28.8795 8.52421C29.231 7.55759 28.7038 6.54696 27.7371 6.23942ZM17.0598 1.49394L22.8158 7.03033H17.0598V1.49394ZM21.2428 26.3197H2.95524V0.878799L2.07642 26.7591C2.07642 27.0227 2.25219 27.1985 2.51579 27.1985L21.3658 27.1985L21.2428 26.3197ZM23.475 26.3197H23.431H2.95524V0.878799H16.181V7.4697C16.181 7.73336 16.3567 7.90907 16.6203 7.90907H23.4749V11.2045L21.4098 17.7076V17.8394L21.4977 23.4197C21.4977 23.5955 21.6295 23.7713 21.8053 23.8152C21.981 23.8591 22.2007 23.8152 22.2886 23.6394L23.4749 22.0576L23.475 26.3197ZM22.3325 22.0576L22.2446 18.4106L24.4416 19.1136L22.3325 22.0576ZM28.0886 8.26061L24.925 18.3228L22.3765 17.4879L25.5401 7.4697C25.7159 6.98639 26.2431 6.67879 26.7264 6.85456L27.4295 7.07427C27.9568 7.20604 28.2643 7.7773 28.0886 8.26061Z" fill="white"/>
</svg>
