<svg width="34" height="21" viewBox="0 0 34 21" fill="none" xmlns="http://www.w3.org/2000/svg">
<path d="M33.3359 13.0423C33.7026 13.0423 34 12.7438 34 12.3756V11.2097C33.9999 9.43009 32.979 7.88627 31.4949 7.13472C32.267 6.47839 32.7585 5.49909 32.7585 4.40618V3.57516C32.7585 1.60383 31.1611 0 29.1976 0C27.2342 0 25.6368 1.60383 25.6368 3.57516V4.40618C25.6368 5.35621 26.0085 6.22016 26.6126 6.8611C25.4451 7.12259 24.3412 7.62157 23.355 8.34385L17.3418 12.7483C17.2175 12.8394 17.1036 12.9417 17 13.0529C16.8964 12.9417 16.7824 12.8394 16.6581 12.7483L10.6449 8.34385C9.65877 7.62157 8.55484 7.12259 7.38735 6.8611C7.99145 6.22016 8.36319 5.35621 8.36319 4.40618V3.57516C8.36319 1.60383 6.76579 0 4.80236 0C2.83893 0 1.24153 1.60383 1.24153 3.57516V4.40618C1.24153 5.49909 1.733 6.47839 2.5051 7.13472C1.02093 7.88627 0 9.43009 0 11.2097V20.3333C0 20.7014 0.297367 21 0.664061 21H8.94059C9.30728 21 9.60465 20.7014 9.60465 20.3333V14.2111L13.9495 16.8414C14.7163 17.3056 15.6394 17.3187 16.419 16.8767C16.6392 16.7518 16.8333 16.5976 17 16.4214C17.1666 16.5976 17.3607 16.7519 17.5809 16.8767C17.9603 17.0919 18.3736 17.1991 18.7864 17.1991C19.2218 17.1991 19.6567 17.0797 20.0503 16.8414L24.3953 14.2111V20.3333C24.3953 20.7014 24.6927 21 25.0593 21H33.3359C33.7026 21 33.9999 20.7014 33.9999 20.3333L34 12.3756C34 12.0074 33.7026 11.7089 33.3359 11.7089C32.9692 11.7089 32.6719 12.0074 32.6719 12.3756L32.6718 19.6665H25.7234V13.5136C25.7234 13.479 25.72 13.4454 25.715 13.4122L26.4368 12.9753C26.7509 12.7851 26.852 12.3754 26.6626 12.06C26.4731 11.7447 26.0649 11.643 25.751 11.8333L19.3646 15.6995C19.0135 15.912 18.5908 15.918 18.234 15.7156C17.8771 15.5132 17.664 15.1467 17.664 14.7352C17.664 14.3768 17.8362 14.0367 18.1246 13.8255L24.1378 9.42102C25.4238 8.47906 26.9449 7.98121 28.5368 7.98121H29.4563C31.2293 7.98121 32.6719 9.42949 32.6719 11.2097V12.3756C32.6719 12.7438 32.9692 13.0423 33.3359 13.0423ZM2.56958 3.57516C2.56958 2.3391 3.57119 1.33347 4.80229 1.33347C6.03339 1.33347 7.035 2.3391 7.035 3.57516V4.40618C7.035 5.64224 6.03339 6.64787 4.80229 6.64787C3.57119 6.64787 2.56958 5.64224 2.56958 4.40618V3.57516ZM15.7659 15.7156C15.4089 15.9179 14.9863 15.9119 14.6353 15.6995L8.2489 11.8333C7.93487 11.643 7.52667 11.7447 7.33735 12.06C7.14795 12.3753 7.24903 12.7851 7.56313 12.9753L8.28416 13.4118C8.27912 13.445 8.27646 13.479 8.27646 13.5136V19.6665H1.32812V11.2097C1.32812 9.42956 2.77066 7.98128 4.54371 7.98128H5.46323C7.05512 7.98128 8.57622 8.47913 9.86217 9.42109L15.8754 13.8255C16.1638 14.0368 16.336 14.3769 16.336 14.7352C16.3359 15.1467 16.1228 15.5132 15.7659 15.7156ZM31.4303 4.40618C31.4303 5.64224 30.4287 6.64787 29.1976 6.64787C27.9665 6.64787 26.9649 5.64224 26.9649 4.40618V3.57516C26.9649 2.3391 27.9665 1.33347 29.1976 1.33347C30.4287 1.33347 31.4303 2.3391 31.4303 3.57516V4.40618Z" fill="white"/>
</svg>
