<svg width="38" height="38" viewBox="0 0 38 38" fill="none" xmlns="http://www.w3.org/2000/svg">
<path d="M19 11.3425C14.7985 11.3425 12.1887 13.4935 12.1887 16.978C12.1887 17.374 12.5097 17.695 12.9057 17.695H25.0944C25.4903 17.695 25.8113 17.374 25.8113 16.978C25.8113 13.5006 23.2015 11.3425 19 11.3425ZM13.6728 16.261C14.146 13.0418 17.8242 12.7765 19 12.7765C20.1759 12.7765 23.854 13.0418 24.3272 16.261H13.6728Z" fill="white"/>
<path d="M19 3.81433C17.1191 3.81433 15.5943 5.33908 15.5943 7.21999C15.5983 9.09928 17.1207 10.6217 19 10.6256C20.8809 10.6256 22.4057 9.1009 22.4057 7.21999C22.4057 5.33908 20.8809 3.81433 19 3.81433ZM19 9.19168C17.9111 9.19168 17.0283 8.3089 17.0283 7.21999C17.0283 6.13107 17.9111 5.24829 19 5.24829C20.0889 5.24829 20.9717 6.13107 20.9717 7.21999C20.9717 8.3089 20.0889 9.19168 19 9.19168Z" fill="white"/>
<path d="M6.81132 27.8331C2.60981 27.8331 0 29.9841 0 33.4686C0 33.8646 0.321028 34.1856 0.716981 34.1856H12.9057C13.3016 34.1856 13.6226 33.8646 13.6226 33.4686C13.6226 29.9912 11.0128 27.8331 6.81132 27.8331ZM1.48415 32.7516C1.95736 29.5324 5.6283 29.2671 6.81132 29.2671C7.99434 29.2671 11.6653 29.5324 12.1385 32.7516H1.48415Z" fill="white"/>
<path d="M6.81133 20.3048C4.93042 20.3048 3.40567 21.8296 3.40567 23.7105C3.40961 25.5898 4.93203 27.1122 6.81133 27.1161C8.69225 27.1161 10.217 25.5914 10.217 23.7105C10.217 21.8296 8.69225 20.3048 6.81133 20.3048ZM6.81133 25.6822C5.72242 25.6822 4.83963 24.7994 4.83963 23.7105C4.83963 22.6216 5.72242 21.7388 6.81133 21.7388C7.90025 21.7388 8.78303 22.6216 8.78303 23.7105C8.78303 24.7994 7.90025 25.6822 6.81133 25.6822Z" fill="white"/>
<path d="M31.1887 27.8331C26.9872 27.8331 24.3773 29.9841 24.3773 33.4686C24.3773 33.8646 24.6984 34.1856 25.0943 34.1856H37.283C37.679 34.1856 38 33.8646 38 33.4686C38 29.9912 35.3902 27.8331 31.1887 27.8331ZM25.8615 32.7516C26.3347 29.5324 30.0057 29.2671 31.1887 29.2671C32.3717 29.2671 36.0426 29.5324 36.5158 32.7516H25.8615Z" fill="white"/>
<path d="M31.1887 20.3048C29.3078 20.3048 27.783 21.8296 27.783 23.7105C27.787 25.5898 29.3094 27.1122 31.1887 27.1161C33.0696 27.1161 34.5943 25.5914 34.5943 23.7105C34.5943 21.8296 33.0696 20.3048 31.1887 20.3048ZM31.1887 25.6822C30.0998 25.6822 29.217 24.7994 29.217 23.7105C29.217 22.6216 30.0998 21.7388 31.1887 21.7388C32.2776 21.7388 33.1604 22.6216 33.1604 23.7105C33.1604 24.7994 32.2776 25.6822 31.1887 25.6822Z" fill="white"/>
<path d="M22.7067 26.5928L19.7169 23.5886V19.3585C19.7169 18.9625 19.3959 18.6415 19 18.6415C18.604 18.6415 18.283 18.9625 18.283 19.3585V23.5886L15.2932 26.5785C15.01 26.8576 15.0068 27.3135 15.286 27.5966C15.5652 27.8797 16.021 27.8829 16.3041 27.6037L19 24.9007L21.6958 27.6037C21.9966 27.8613 22.4492 27.8263 22.7067 27.5255C22.9366 27.2571 22.9366 26.8612 22.7067 26.5928Z" fill="white"/>
</svg>
