<?xml version="1.0" encoding="utf-8"?>
<!-- Generator: Adobe Illustrator 21.0.0, SVG Export Plug-In . SVG Version: 6.00 Build 0)  -->
<svg version="1.1" id="Layer_1" xmlns="http://www.w3.org/2000/svg" xmlns:xlink="http://www.w3.org/1999/xlink" x="0px" y="0px"
	 viewBox="0 0 44 44" style="enable-background:new 0 0 44 44;" xml:space="preserve">
<style type="text/css">
	.st0{fill:none;}
	.st1{fill:#E8E8E8;}
	.st2{fill:none;stroke:#9ABE3B;stroke-width:4.252;stroke-miterlimit:10;}
	.st3{fill:none;stroke:#E8E8E8;stroke-miterlimit:10;}
	.st4{fill:none;stroke:#FFFFFF;stroke-miterlimit:10;}
	.st5{fill:#6CBEE3;}
	.st6{fill:#363636;}
	.st7{fill:#FFFFFF;}
	.st8{fill:#BE3B3B;}
	.st9{fill:#F4993C;}
	.st10{fill:none;stroke:#BE3B3B;stroke-miterlimit:10;}
	.st11{fill:none;stroke:#F4993D;stroke-miterlimit:10;}
</style>
<circle class="st6" cx="22" cy="22" r="22"/>
<g>
	<g>
		<path class="st7" d="M35.9,20.6l-2-5.1c-0.3-0.7-0.9-1.1-1.6-1.1H9.8c-1,0-1.7,0.8-1.7,1.7v9.9c0,1,0.8,1.7,1.7,1.7H11
			c0.3,1.2,1.6,2,2.8,1.7c0.8-0.2,1.5-0.9,1.7-1.7h13c0.3,1.2,1.6,2,2.8,1.7c0.8-0.2,1.5-0.9,1.7-1.7h1.2c1,0,1.7-0.8,1.7-1.7v-5.2
			C36,20.8,35.9,20.7,35.9,20.6z M30.1,15.6h2.1c0.2,0,0.5,0.1,0.5,0.4l0,0l1.5,3.7h-4.1L30.1,15.6L30.1,15.6z M24.9,15.6H29v4.1
			h-4.1V15.6z M19.1,15.6h4.7v4.1h-4.7V15.6L19.1,15.6z M13.9,15.6h4.1v4.1h-4.1V15.6z M9.2,16.2c0-0.3,0.3-0.6,0.6-0.6h2.9v4.1H9.2
			V16.2z M13.3,28.4c-0.6,0-1.2-0.5-1.2-1.2s0.5-1.2,1.2-1.2s1.2,0.5,1.2,1.2S13.9,28.4,13.3,28.4z M30.7,28.4
			c-0.6,0-1.2-0.5-1.2-1.2s0.5-1.2,1.2-1.2s1.2,0.5,1.2,1.2S31.4,28.4,30.7,28.4z M34.8,22h-0.6c-0.3,0-0.6,0.3-0.6,0.6
			c0,0.3,0.3,0.6,0.6,0.6h0.6v2.9c0,0.3-0.3,0.6-0.6,0.6H33c-0.3-1.2-1.6-2-2.8-1.7c-0.8,0.2-1.5,0.9-1.7,1.7h-13
			c-0.3-1.2-1.6-2-2.8-1.7c-0.8,0.2-1.5,0.9-1.7,1.7H9.8c-0.3,0-0.6-0.3-0.6-0.6v-5.2h25.5l0,0.1L34.8,22L34.8,22z"/>
	</g>
</g>
</svg>
