<svg viewBox="0 0 40 30" fill="none" xmlns="http://www.w3.org/2000/svg">
<path d="M35.84 10.4V4C35.84 1.12 33.84 0 31.84 0H7.68C5.84 0 3.68 0.96 3.68 4V10.4C1.84 10.56 0 11.84 0 14.8V19.76C0 20.64 0.72 21.36 1.6 21.36H2.16V25.36C2.16 26.24 2.88 26.96 3.76 26.96H5.2C6.08 26.96 6.8 26.24 6.8 25.36V21.36H33.44V25.36C33.44 26.24 34.16 26.96 35.04 26.96H36.48C37.36 26.96 38.08 26.24 38.08 25.36V21.36H38.4C39.28 21.36 40 20.64 40 19.76V14.8C39.68 11.84 37.84 10.56 35.84 10.4ZM20.8 6.56C20.8 5.68 21.52 4.96 22.4 4.96H31.76C32.64 4.96 33.36 5.68 33.36 6.56V10.4H32.56H31.84H22.32H21.2H20.8V6.56ZM6.4 6.56C6.4 5.68 7.12 4.96 8 4.96H17.36C18.24 4.96 18.96 5.68 18.96 6.56V10.4H18.32H17.68H8.24H7.04H6.4V6.56ZM38.16 19.76H36.16H34.72H4.96H3.52H1.6V17.52H38.16V19.76Z" fill="#F49C41"/>
</svg>
