<svg viewBox="0 0 40 30" fill="none" xmlns="http://www.w3.org/2000/svg">
<g clip-path="url(#clip0)">
<path d="M21.3125 20.3125V5.75V5.625C21.1875 5.5 21.1875 5.375 21.0625 5.25L16.0625 0.25C15.9375 0.125 15.8125 0 15.5625 0H0.75C0.375 0 0 0.375 0 0.75V29.125C0 29.5 0.375 29.875 0.75 29.875H14.6875H21.3125V20.3125ZM12.6875 15.5625C12.6875 15.1875 13.0625 14.8125 13.4375 14.8125H16.1875C16.5625 14.8125 16.9375 15.1875 16.9375 15.5625C16.9375 15.9375 16.5625 16.3125 16.1875 16.3125H13.4375C13.0625 16.3125 12.6875 15.9375 12.6875 15.5625ZM12.5625 12.4375C12.5625 12.0625 12.9375 11.6875 13.3125 11.6875H16.0625C16.4375 11.6875 16.8125 12.0625 16.8125 12.4375C16.8125 12.8125 16.4375 13.1875 16.0625 13.1875H13.3125C12.9375 13.1875 12.5625 12.8125 12.5625 12.4375ZM16.8125 9.3125C16.8125 9.6875 16.4375 10.0625 16.0625 10.0625H13.3125C12.9375 10.0625 12.5625 9.6875 12.5625 9.3125C12.5625 8.9375 12.9375 8.5625 13.3125 8.5625H16.0625C16.4375 8.5625 16.8125 8.9375 16.8125 9.3125ZM5.125 21.6875C4.75 21.6875 4.375 21.3125 4.375 20.9375C4.375 20.5625 4.75 20.1875 5.125 20.1875H10.125C10.625 20.1875 10.875 20.5625 10.875 20.9375C10.875 21.3125 10.5 21.6875 10.125 21.6875H5.125ZM8.6875 24C8.6875 24.375 8.3125 24.75 7.9375 24.75H5.25C4.875 24.75 4.5 24.375 4.5 24C4.5 23.625 4.875 23.25 5.25 23.25H8C8.3125 23.3125 8.6875 23.5 8.6875 24ZM10.1875 16.3125H5.1875C4.8125 16.3125 4.4375 15.9375 4.4375 15.5625C4.4375 15.1875 4.8125 14.8125 5.1875 14.8125H10.1875C10.5625 14.8125 10.9375 15.1875 10.9375 15.5625C10.9375 15.9375 10.5625 16.3125 10.1875 16.3125ZM10.1875 13.1875H5.1875C4.8125 13.1875 4.4375 12.8125 4.4375 12.4375C4.4375 12.0625 4.8125 11.6875 5.1875 11.6875H10.1875C10.5625 11.6875 10.9375 12.0625 10.9375 12.4375C10.9375 12.8125 10.5625 13.1875 10.1875 13.1875ZM10.1875 10.0625H5.1875C4.8125 10.0625 4.4375 9.6875 4.4375 9.3125C4.4375 8.9375 4.8125 8.5625 5.1875 8.5625H10.1875C10.5625 8.5625 10.9375 8.9375 10.9375 9.3125C10.9375 9.6875 10.5625 10.0625 10.1875 10.0625ZM15.3125 1.625L19.4375 5.75H15.75C15.5 5.75 15.25 5.5625 15.25 5.25L15.3125 1.625Z" fill="#F49C41"/>
</g>
<defs>
<clipPath id="clip0">
<rect width="21.875" height="30" fill="white"/>
</clipPath>
</defs>
</svg>
