<svg viewBox="0 0 40 30" fill="none" xmlns="http://www.w3.org/2000/svg">
<circle cx="15" cy="15" r="15" fill="#F49C41"/>
<g clip-path="url(#clip0)">
<path d="M16.1 22C13.9 22 11.9 21.1 10.6 19.4C10 18.7 9.6 17.7 9.4 16.7H8V14.7H9.2V14.6C9.2 14.5 9.2 14.4 9.2 14.3H8V12.1H9.5C9.8 11 10.3 10.1 11 9.3C12.3 7.8 14.1 7 16.2 7C17.4 7 18.6 7.2 19.5 7.7L19.7 7.8L19 10.8L18.7 10.7C18.3 10.6 17.4 10.2 16.4 10.2C15.7 10.1 14.7 10.3 14 11.2C13.8 11.4 13.6 11.7 13.4 12.1H18.7V14.2H13C13 14.3 13 14.5 13 14.6V14.7H18.7V16.8H13.4C13.5 17.2 13.7 17.6 14 17.9C14.7 18.7 15.8 18.9 16.6 18.9C17.6 18.9 18.5 18.6 18.9 18.4L19.2 18.2L19.8 21.1L19.6 21.2C18.9 21.6 17.6 22 16.1 22Z" fill="white"/>
</g>
<defs>
<clipPath id="clip0">
<rect width="11.8" height="15" fill="white" transform="translate(8 7)"/>
</clipPath>
</defs>
</svg>
