<svg viewBox="0 0 40 30" fill="none" xmlns="http://www.w3.org/2000/svg">
<g clip-path="url(#clip0)">
<path d="M13.8281 15C13.8281 17.9688 16.0937 20.3906 18.9844 20.7031V16.0938C18.5937 15.8594 18.3594 15.4688 18.3594 15C18.3594 14.5313 18.5937 14.1406 18.9844 13.9063V9.29688C16.0937 9.60938 13.8281 12.0313 13.8281 15Z" fill="#F49C41"/>
<path d="M25.2344 15C25.2344 12.0313 22.9688 9.60938 20.0781 9.29688V13.9063C20.4688 14.1406 20.7031 14.5313 20.7031 15C20.7031 15.4688 20.4688 15.8594 20.0781 16.0938V20.7031C22.9688 20.3906 25.2344 17.9688 25.2344 15Z" fill="#F49C41"/>
<path d="M37.1094 0H19.5312H9.0625H5.54687H5.15625H1.95312C0.859375 0 0 0.859375 0 1.95312C0 2.03125 0 3.98437 0 6.71875V23.2812C0 23.5937 0 23.8281 0 23.8281V28.0469C0 29.1406 0.859375 30 1.95312 30C2.73438 30 36.4063 30 37.1094 30C38.2031 30 39.0625 29.1406 39.0625 28.0469V23.8281C39.0625 23.8281 39.0625 23.5937 39.0625 23.2812V6.71875C39.0625 3.98437 39.0625 2.03125 39.0625 1.95312C39.0625 0.859375 38.2031 0 37.1094 0ZM8.20312 22.9687C8.20312 23.75 7.57812 24.375 6.79687 24.375H1.17188V23.2031H6.71875C6.875 23.2031 7.03125 23.0469 7.03125 22.9687V6.95312C7.03125 6.79687 6.875 6.71875 6.71875 6.71875H1.17188V5.54687H6.79687C7.57812 5.54687 8.20312 6.17187 8.20312 6.95312V22.9687ZM20.0781 21.7969V28.8281H18.9063V21.7969C15.3906 21.4844 12.5781 18.5156 12.5781 14.9219C12.5781 11.3281 15.3906 8.35937 18.9063 8.04687V1.01562H20.0781V8.04687C23.5938 8.35937 26.4062 11.3281 26.4062 14.9219C26.4062 18.5937 23.5938 21.5625 20.0781 21.7969ZM32.3438 23.2812H37.8906V24.4531H32.2656C31.4844 24.4531 30.8594 23.8281 30.8594 23.0469V11.7187V10.4687V8.51562V7.8125V6.95312C30.8594 6.17187 31.4844 5.54687 32.2656 5.54687H37.8906V6.71875H32.3438C32.1875 6.71875 32.0312 6.875 32.0312 6.95312V7.8125V8.51562V10.4687V11.7187V22.9687C32.0312 23.125 32.1875 23.2812 32.3438 23.2812Z" fill="#F49C41"/>
</g>
<defs>
<clipPath id="clip0">
<rect width="39.0625" height="30" fill="white"/>
</clipPath>
</defs>
</svg>
