<svg viewBox="0 0 40 30" fill="none" xmlns="http://www.w3.org/2000/svg">
<g clip-path="url(#clip0)">
<path d="M7.93018 7.85538C9.50125 6.05987 11.3716 6.2095 13.3167 7.18207C11.6708 7.33169 10.399 7.85538 10.399 8.75314C13.99 8.97758 15.2618 10.5486 15.8604 12.419C13.9152 11.3716 12.5686 10.8479 10.7731 11.3716C13.0175 12.7182 13.3167 15.0374 13.4663 17.9551C10.7731 11.3716 5.38653 11.3716 2.54364 17.9551C2.61845 14.9626 2.91771 12.7182 5.08728 11.3716C3.29177 10.8479 1.94514 11.3716 0 12.419C0.673317 10.4738 1.94514 8.97758 5.46135 8.75314C5.46135 7.85538 4.18953 7.4065 2.54364 7.18207C4.56359 6.2095 6.43392 6.05987 7.93018 7.85538Z" fill="#F49C41"/>
<path d="M26.6334 1.94516C24.4638 -0.523672 21.9202 -0.523672 19.2269 1.19703C21.4713 1.34665 23.192 2.09478 23.2668 3.21698C18.404 3.44142 16.6833 5.68581 15.7855 8.30426C18.4788 6.95763 20.3491 6.28431 22.6683 6.95763C19.0025 8.75314 18.404 12.5686 19.0773 16.1596C22.7431 6.95762 30.2992 6.95762 34.1147 16.1596C35.1621 12.5686 34.3391 8.75314 30.4489 6.95763C32.6933 6.28431 34.6384 6.95763 37.3317 8.30426C36.4339 5.61099 34.6384 3.44142 29.8504 3.21698C30 2.09478 31.6459 1.27184 33.8903 1.19703C31.3466 -0.523672 28.6534 -0.523672 26.6334 1.94516Z" fill="#F49C41"/>
<path d="M11.5212 22.818C9.27683 20.0499 8.37907 17.3566 8.45389 13.5412C8.30426 13.5412 8.07982 13.5412 7.93019 13.5412C7.55613 13.5412 7.25688 13.6908 6.88281 13.6908C6.88281 17.5063 7.63094 20.424 9.95014 23.2669C10.4738 23.0424 11.0723 22.8928 11.5212 22.818Z" fill="#F49C41"/>
<path d="M22.9676 23.3417C26.5586 19.3018 27.8304 15.2619 27.6808 9.72571C27.3067 9.57608 26.9326 9.57608 26.6334 9.57608C26.4838 9.57608 26.4089 9.57608 26.2593 9.57608C26.2593 15.1871 24.9875 18.8529 21.3965 22.818C21.9202 23.1172 22.4439 23.2669 22.9676 23.3417Z" fill="#F49C41"/>
<path d="M16.0848 22.8928C22.1446 22.8928 27.5312 25.6609 31.1222 30H30.9726C29.8504 30 28.7282 29.4763 28.0548 28.429C27.3067 29.4763 26.2593 30 24.9875 30C23.8653 30 22.7431 29.4763 22.0698 28.429C21.4713 29.4763 20.3491 30 19.2269 30C17.9551 30 16.7581 29.4763 16.1596 28.429C15.4863 29.4763 14.3641 30 13.2419 30C11.9701 30 10.9975 29.4763 10.1745 28.429C9.50123 29.4763 8.37903 30 7.25684 30C5.98502 30 5.01245 29.4763 4.18951 28.429C3.51619 29.4763 2.54362 30 1.2718 30H1.04736C4.63839 25.7357 9.95011 22.8928 16.0848 22.8928Z" fill="#F49C41"/>
</g>
<defs>
<clipPath id="clip0">
<rect width="37.4065" height="30" fill="white"/>
</clipPath>
</defs>
</svg>
