<svg viewBox="0 0 40 30" fill="none" xmlns="http://www.w3.org/2000/svg">
<g clip-path="url(#clip0)">
<path d="M17.3027 26.2161V27.0926C17.3027 27.7901 16.7904 28.3704 16.1237 28.4692L15.9077 29.2655C15.7904 29.6976 15.4015 30 14.9508 30H12.8088C12.3582 30 11.9693 29.6976 11.852 29.2655L11.6422 28.4692C10.9693 28.3642 10.457 27.7901 10.457 27.0864V26.2099C10.457 25.7408 10.8335 25.3642 11.3027 25.3642H16.457C16.9262 25.3704 17.3027 25.7469 17.3027 26.2161ZM21.2719 14.4012C21.2719 16.3951 20.4818 18.2037 19.1978 19.5309C18.2225 20.5432 17.5929 21.8334 17.383 23.2099C17.2904 23.8025 16.778 24.2408 16.1731 24.2408H11.5866C10.9878 24.2408 10.4693 23.8087 10.3829 23.2161C10.1668 21.8395 9.53103 20.5309 8.55571 19.5247C7.29643 18.2161 6.51247 16.4383 6.49395 14.4815C6.45074 10.3704 9.72239 7.04322 13.8336 7.01236C17.9385 6.9815 21.2719 10.3025 21.2719 14.4012ZM14.7163 9.92594C14.7163 9.46915 14.3459 9.09261 13.8829 9.09261C10.9446 9.09261 8.54953 11.4815 8.54953 14.4259C8.54953 14.8827 8.91991 15.2593 9.38288 15.2593C9.83967 15.2593 10.2162 14.8889 10.2162 14.4259C10.2162 12.4012 11.8644 10.7593 13.8829 10.7593C14.3459 10.7593 14.7163 10.3889 14.7163 9.92594Z" fill="#F49C41"/>
<path d="M13.8829 4.58642C14.3397 4.58642 14.7163 4.21605 14.7163 3.75309V0.833333C14.7163 0.376543 14.3459 0 13.8829 0C13.4199 0 13.0496 0.37037 13.0496 0.833333V3.75309C13.0496 4.21605 13.4261 4.58642 13.8829 4.58642Z" fill="#F49C41"/>
<path d="M9.24083 5.84569C9.63589 5.61729 9.77787 5.11112 9.5433 4.70989L8.08649 2.17902C7.85809 1.78396 7.35192 1.64198 6.95068 1.87655C6.54944 2.11112 6.41363 2.61112 6.6482 3.01235L8.11118 5.54322C8.33341 5.94445 8.83959 6.07408 9.24083 5.84569Z" fill="#F49C41"/>
<path d="M5.82729 9.26543C6.05569 8.87037 5.92606 8.35803 5.52482 8.12963L2.99392 6.66667C2.59886 6.43827 2.0865 6.5679 1.85811 6.96914C1.62971 7.37037 1.75934 7.87654 2.16058 8.10494L4.69147 9.56173C5.09271 9.80247 5.59889 9.66667 5.82729 9.26543Z" fill="#F49C41"/>
<path d="M4.58648 13.9383C4.58648 13.4815 4.2161 13.1049 3.75313 13.1049H0.833344C0.376548 13.1049 0 13.4753 0 13.9383C0 14.4012 0.370375 14.7716 0.833344 14.7716H3.75313C4.2161 14.7716 4.58648 14.3889 4.58648 13.9383Z" fill="#F49C41"/>
<path d="M19.92 5.54319L21.3768 3.01233C21.6114 2.61109 21.4756 2.10492 21.0743 1.87652C20.6731 1.64813 20.1669 1.78393 19.9385 2.17899L18.4817 4.70986C18.2471 5.11109 18.3891 5.61727 18.7842 5.84566C19.1731 6.07406 19.6854 5.94443 19.92 5.54319Z" fill="#F49C41"/>
<path d="M23.3275 9.57406L25.8584 8.11727C26.2596 7.8827 26.3954 7.3827 26.1608 6.98147C25.9263 6.58023 25.4201 6.4506 25.025 6.679L22.4941 8.14196C22.0929 8.37653 21.9633 8.8827 22.1917 9.27776C22.4139 9.66665 22.9262 9.80245 23.3275 9.57406Z" fill="#F49C41"/>
<path d="M24.2657 14.7716H27.1855C27.6485 14.7716 28.0188 14.4012 28.0188 13.9383C28.0188 13.4753 27.6423 13.1049 27.1855 13.1049H24.2657C23.8027 13.1049 23.4324 13.4815 23.4324 13.9383C23.4324 14.3951 23.8027 14.7716 24.2657 14.7716Z" fill="#F49C41"/>
</g>
<defs>
<clipPath id="clip0">
<rect width="28.0189" height="30" fill="white"/>
</clipPath>
</defs>
</svg>
