<svg viewBox="0 0 40 30" fill="none" xmlns="http://www.w3.org/2000/svg">
<g clip-path="url(#clip0)">
<path d="M34.6763 26.9784H22.446V30H27.3381H31.5108H34.7482C35.036 30 35.3237 29.9281 35.5396 29.7842C35.7554 29.6403 35.8993 29.4964 35.9712 29.3525L36.0432 29.1367V28.4173C36.0432 28.3453 36.0432 28.2014 35.9712 27.9856C35.8993 27.7698 35.8273 27.6259 35.6115 27.3381C35.3957 27.0504 35.036 26.9784 34.6763 26.9784Z" fill="#F49C41"/>
<path d="M32.9496 26.4029C33.741 26.4029 34.4604 26.1151 35.036 25.5396C35.6115 24.964 35.8993 24.2446 35.8993 23.3813C35.8993 22.518 35.6115 21.7986 35.036 21.223C34.4604 20.6475 33.741 20.3597 32.9496 20.3597C32.1583 20.3597 31.4388 20.6475 30.8633 21.223C30.2878 21.7986 30 22.518 30 23.3813C30 24.2446 30.2878 24.964 30.8633 25.5396C31.4388 26.1151 32.1583 26.4029 32.9496 26.4029Z" fill="#F49C41"/>
<path d="M26.6187 26.259C27.41 26.259 28.0575 25.9712 28.6331 25.4676C29.2086 24.964 29.4964 24.3165 29.4964 23.5252C29.4964 22.7338 29.2086 22.1583 28.705 21.7266C28.2014 21.295 27.482 21.0791 26.6906 21.0791L22.5179 21.5827V26.187H26.6187V26.259Z" fill="#F49C41"/>
<path d="M13.1655 6.69065C14.1007 6.69065 14.8921 6.33094 15.5396 5.68345C16.1871 5.03597 16.4748 4.2446 16.4748 3.30935C16.4748 2.3741 16.1871 1.58273 15.5396 0.935252C14.8921 0.28777 14.1007 0 13.1655 0C12.2302 0 11.4389 0.359712 10.7914 1.00719C10.1439 1.65468 9.78418 2.44604 9.78418 3.38129C9.78418 4.31655 10.1439 5.10791 10.7914 5.7554C11.4389 6.40288 12.2302 6.69065 13.1655 6.69065Z" fill="#F49C41"/>
<path d="M9.71221 17.554L8.20142 13.9568V21.0072H12.7338H16.0431L13.669 19.9281L11.0072 18.9209C10.4316 18.705 9.99998 18.2015 9.71221 17.554Z" fill="#F49C41"/>
<path d="M10.6475 17.1942C10.7914 17.554 11.0792 17.8417 11.4389 17.9137L16.5468 19.7842C16.9065 19.9281 17.1943 19.9281 17.554 19.8561C17.9137 19.7122 18.1295 19.4964 18.2734 19.1367C18.4173 18.777 18.4173 18.4892 18.2734 18.1295C18.1295 17.7698 17.9137 17.554 17.554 17.4101L12.8058 15.6835L11.3669 12.1583L13.5252 14.8201L17.1943 16.1151V12.446L19.0648 13.5971L20 18.3453C20.072 18.705 20.2878 18.9209 20.6475 19.1367C21.0072 19.2806 21.295 19.3525 21.6547 19.2086C22.0144 19.0647 22.2302 18.8489 22.3741 18.5611C22.518 18.2734 22.518 17.9137 22.4461 17.554L21.3669 12.8777C21.295 12.6619 21.1511 12.446 20.9353 12.2302C20.8633 12.0863 20.5036 11.7266 19.9281 11.0791C19.3526 10.4317 18.777 9.85611 18.2734 9.28057C17.7698 8.70503 17.482 8.41726 17.4101 8.34532C16.9065 7.84173 16.1151 7.55396 15.2518 7.55396H10.7914C9.64032 7.55396 8.84895 7.98561 8.4173 8.92086C7.98564 9.85611 7.9137 10.6475 8.20147 11.4388L10.6475 17.1942Z" fill="#F49C41"/>
<path d="M21.7266 21.7266H1.43885C1.07914 21.7266 0.719425 21.8705 0.431655 22.0863C0.143885 22.3022 0 22.6619 0 23.0216V23.6691V29.9281H1.72662H21.6547V21.7266H21.7266Z" fill="#F49C41"/>
</g>
<defs>
<clipPath id="clip0">
<rect width="35.9712" height="30" fill="white"/>
</clipPath>
</defs>
</svg>
