<svg viewBox="0 0 40 30" fill="none" xmlns="http://www.w3.org/2000/svg">
<g clip-path="url(#clip0)">
<path d="M0.359979 7.56C-2.06116e-05 8.22 -0.120021 8.88 0.119979 9.6C0.359979 10.32 0.719979 10.86 1.37998 11.22C2.03998 11.58 2.69998 11.7 3.41998 11.46C4.13998 11.22 4.67998 10.86 5.03998 10.2C5.33998 9.6 5.39998 8.88 5.21998 8.16C5.03998 7.44 4.61998 6.9 3.95998 6.54C3.35998 6.18 2.63998 6.06 1.91998 6.3C1.25998 6.48 0.719979 6.9 0.359979 7.56Z" fill="#F49C41"/>
<path d="M22.74 28.14L16.62 14.82C16.62 14.76 16.2 14.04 16.2 13.98C15.96 13.68 15.18 12.42 13.26 11.34C12.3 10.74 10.74 10.26 10.74 10.26C10.14 9.84 10.02 9.48 9.78 8.76L9.42 7.74L8.22 3.84C8.16 3.66 8.1 3.54 8.04 3.42L7.98 3.36L5.34 0.359999C4.98 -6.79889e-07 4.44 -0.120001 3.96 0.179999C3.42 0.539999 3.36 1.26 3.72 1.74L5.76 4.08C6.06 4.44 6.3 4.86 6.36 5.28L7.02 8.58C6.84 8.76 6.6 8.94 6.42 9.24L4.38 12.18C4.02 12.66 3.9 13.2 3.96 13.62L3.36 17.04C3.3 17.46 3.12 17.88 2.88 18.3L1.26 21.06C1.02 21.48 1.08 22.08 1.5 22.38C1.98 22.8 2.7 22.62 3 22.08L4.98 18.6C5.04 18.54 5.04 18.48 5.04 18.42C5.1 18.36 5.1 18.24 5.1 18.18L6.12 14.52C7.26 14.7 10.56 15.54 11.64 17.7L1.8 27.72C1.26 28.26 1.26 29.1 1.8 29.58C2.34 30.12 3.18 30.12 3.66 29.58L14.7 18.42C14.88 18.24 15.24 18.3 15.36 18.54L20.28 29.22C20.58 29.88 21.36 30.18 22.02 29.88C22.74 29.58 23.04 28.8 22.74 28.14Z" fill="#F49C41"/>
</g>
<defs>
<clipPath id="clip0">
<rect width="22.86" height="30" fill="white"/>
</clipPath>
</defs>
</svg>
