<svg viewBox="0 0 40 30" fill="none" xmlns="http://www.w3.org/2000/svg">
<path d="M15 0C6.67742 0 0 6.67742 0 15C0 23.3226 6.67742 30 15 30C23.3226 30 30 23.3226 30 15C30 6.67742 23.3226 0 15 0ZM9.58064 7.74194C11.129 7.74194 12.2903 9 12.2903 10.4516C12.2903 11.9032 11.0323 13.1613 9.58064 13.1613C8.12903 13.1613 6.77419 12 6.77419 10.5484C6.77419 9 8.03226 7.74194 9.58064 7.74194ZM14.9032 24.9677C10.4516 24.9677 6.77419 21.9677 6.77419 18.2903C6.77419 18.2903 22.9355 18.1935 22.9355 18.2903C23.0323 21.9677 19.3548 24.9677 14.9032 24.9677ZM20.4194 13.1613C18.9677 13.1613 17.7097 11.9032 17.7097 10.4516C17.7097 9 18.9677 7.74194 20.4194 7.74194C21.9677 7.74194 23.129 9 23.129 10.4516C23.129 12 21.9677 13.1613 20.4194 13.1613Z" fill="#F49C41"/>
</svg>
