<svg width="58" height="116" viewBox="0 0 58 116" fill="none" xmlns="http://www.w3.org/2000/svg">
<g clip-path="url(#clip0)">
<path d="M49.4352 15.0356V0H8.56477V15.0356H0V93.8976H58V15.0356H49.4352ZM23.6658 25.7861H34.4093V36.5366H23.6658V25.7861ZM23.6658 40.8218H34.4093V51.5723H23.6658V40.8218ZM23.6658 55.8574H34.4093V66.6079H23.6658V55.8574ZM19.3083 66.6079H8.56477V55.8574H19.3083V66.6079ZM19.3083 51.5723H8.56477V40.8218H19.3083V51.5723ZM19.3083 36.5366H8.56477V25.7861H19.3083V36.5366ZM36.513 91.7174H21.487V74.7271C21.487 73.4491 22.7642 72.3966 24.2668 72.3966H33.5078C35.0104 72.3966 36.513 73.2236 36.513 74.7271V91.7174ZM49.4352 66.6079H38.6917V55.8574H49.4352V66.6079ZM49.4352 51.5723H38.6917V40.8218H49.4352V51.5723ZM49.4352 36.5366H38.6917V25.7861H49.4352V36.5366Z" fill="#DBDBDB"/>
<path d="M4.35776 102.468H4.28263L0.0753784 105.325V101.641L4.35776 98.709H8.64015V115.549H4.35776V102.468Z" fill="#DBDBDB"/>
<path d="M12.0963 111.189H16.3036C16.6041 112.091 17.5808 112.767 18.7077 112.767C20.8114 112.767 22.0886 110.738 21.9383 107.204C21.4124 108.858 19.8347 109.986 17.5808 109.986C14.4254 109.986 12.0212 107.655 12.0212 104.423C12.0212 100.889 14.8761 98.4083 18.7829 98.4083C21.187 98.4083 23.1404 99.3104 24.4176 101.115C25.5445 102.618 26.1456 104.723 26.1456 107.204C26.1456 112.767 23.3658 116.15 18.7829 116.15C15.2518 116 12.5471 113.97 12.0963 111.189ZM21.3373 104.197C21.3373 102.693 20.2103 101.566 18.7077 101.566C17.2051 101.566 16.0031 102.693 16.0031 104.197C16.0031 105.701 17.2051 106.753 18.7077 106.753C20.2103 106.828 21.3373 105.701 21.3373 104.197Z" fill="#DBDBDB"/>
<path d="M28.0984 111.189H32.3057C32.6062 112.091 33.5829 112.767 34.7098 112.767C36.8134 112.767 38.0906 110.738 37.9404 107.204C37.4145 108.858 35.8368 109.986 33.5829 109.986C30.4274 109.986 28.0233 107.655 28.0233 104.423C28.0233 100.889 30.8782 98.4083 34.7849 98.4083C37.1891 98.4083 39.1425 99.3104 40.4197 101.115C41.5466 102.618 42.1476 104.723 42.1476 107.204C42.1476 112.767 39.3678 116.15 34.7849 116.15C31.1787 116 28.5492 113.97 28.0984 111.189ZM37.3394 104.197C37.3394 102.693 36.2124 101.566 34.7098 101.566C33.2072 101.566 32.0052 102.693 32.0052 104.197C32.0052 105.701 33.2072 106.753 34.7098 106.753C36.2124 106.828 37.3394 105.701 37.3394 104.197Z" fill="#DBDBDB"/>
<path d="M44.101 111.189H48.3083C48.6088 112.091 49.5855 112.767 50.7124 112.767C52.816 112.767 54.0933 110.738 53.943 107.204C53.4171 108.858 51.8394 109.986 49.5855 109.986C46.43 109.986 44.0259 107.655 44.0259 104.423C44.0259 100.889 46.8808 98.4083 50.7875 98.4083C53.1917 98.4083 55.1451 99.3104 56.4223 101.115C57.5492 102.618 58.1502 104.723 58.1502 107.204C58.1502 112.767 55.3705 116.15 50.7875 116.15C47.1813 116 44.4767 113.97 44.101 111.189ZM53.342 104.197C53.342 102.693 52.215 101.566 50.7124 101.566C49.2098 101.566 48.0078 102.693 48.0078 104.197C48.0078 105.701 49.2098 106.753 50.7124 106.753C52.1399 106.828 53.342 105.701 53.342 104.197Z" fill="#DBDBDB"/>
</g>
<defs>
<clipPath id="clip0">
<rect width="58" height="116" fill="white"/>
</clipPath>
</defs>
</svg>
