<svg width="72" height="60" viewBox="0 0 72 60" fill="none" xmlns="http://www.w3.org/2000/svg">
<path d="M40.4451 44.2842V45.0001V47.5228C40.4451 48.4433 39.7632 49.6024 38.7061 49.6024H33.2845C32.2615 49.6024 31.3068 48.341 31.3068 47.5228V45.0001V44.2842C17.1219 43.3637 5.25562 38.1478 0.0385742 30.9206V31.2615V56.4205C0.0385742 58.3978 1.6412 60.0001 3.6189 60.0001H39.2858H67.792H68.0307C69.3264 60.0001 70.4858 59.2842 71.0996 58.2273C71.0996 58.2273 71.0996 58.2273 71.0996 58.1933C71.1337 58.1592 71.1678 58.091 71.1678 58.0569C71.4064 57.6137 71.5769 57.1023 71.5769 56.5228V31.2615V30.9206C66.394 38.0115 54.5619 43.3296 40.4451 44.2842Z" fill="#DBDBDB"/>
<path d="M70.0084 12.1363C70.0084 12.1363 69.9743 12.1363 70.0084 12.1363C69.5992 11.8636 69.19 11.6932 68.7468 11.5909H68.7127C68.6104 11.5568 68.5081 11.5568 68.4058 11.5568C68.3035 11.5568 68.2012 11.5568 68.0989 11.5568C68.0648 11.5568 68.0648 11.5568 68.0307 11.5568H67.792H49.6858V5.07954V4.60227V1.84091C49.6858 0.681817 48.6628 0 47.0261 0H46.9238H24.6235C23.0209 0 21.9638 0.681817 21.9638 1.84091V1.94318V4.60227V5.07954V11.5568H3.85759H3.6189H3.51661C1.6071 11.5909 0.0385742 13.1932 0.0385742 15.1023V20.1818C0.0385742 20.0113 0.0726726 19.8068 0.106771 19.6363V25.4659C5.32382 32.659 17.156 37.875 31.3409 38.8295V36.1022V33.75L31.2386 33.5454C31.2386 33.1704 31.3409 33.0681 31.5455 33.1022C31.8182 33.0681 32.3638 33.409 33.0799 33.409H38.5697C39.2858 33.409 39.8314 33.034 40.1041 33.1022C40.3087 33.0681 40.411 33.1704 40.411 33.5454V36.0681V38.7954C54.5619 37.8409 66.3599 32.625 71.5769 25.4659V20.5227V15.2386V15.1363C71.5769 13.875 70.9632 12.7841 70.0084 12.1363ZM46.2078 11.5227H25.4419V6.92045H46.2078V11.5227Z" fill="#DBDBDB"/>
</svg>
