<svg width="68" height="68" viewBox="0 0 68 68" fill="none" xmlns="http://www.w3.org/2000/svg">
<path d="M45.1028 33.1164C46.409 30.1966 47.139 26.9695 47.139 23.5503C47.139 10.565 36.574 0 23.5503 0C17.0576 0 11.1797 2.65085 6.91525 6.91525C2.65085 11.1797 0 17.0576 0 23.5503C0 36.574 10.565 47.1006 23.5503 47.1006C26.9695 47.1006 30.1966 46.3706 33.1164 45.0644L56.0136 67.9616H68V55.9751L45.1028 33.1164ZM18.3638 23.9729C15.252 23.9729 12.7164 21.4373 12.7164 18.3254C12.7164 16.7503 13.3311 15.3672 14.3684 14.3299C15.4057 13.2927 16.7887 12.678 18.3638 12.678C21.4757 12.678 24.0113 15.2136 24.0113 18.3254C24.0113 19.9006 23.3966 21.2836 22.3593 22.3209C21.322 23.3582 19.9006 23.9729 18.3638 23.9729Z" fill="#DBDBDB"/>
</svg>
