<svg width="72" height="85" viewBox="0 0 72 85" fill="none" xmlns="http://www.w3.org/2000/svg">
<path d="M60.6186 49.5915C64.7218 44.3893 67.1642 37.8257 67.1642 30.7273C67.1153 13.7592 53.3403 0 36.2925 0C19.2936 0 5.46971 13.7592 5.46971 30.6787C5.46971 37.7771 7.91209 44.3407 12.0153 49.5429L0.584961 70.9839L17.3397 69.4281L25.4484 84.1111L36.2925 63.7883L47.1367 84.1111L55.2454 69.4281L72.0001 70.9839L60.6186 49.5915ZM36.2925 52.6059C24.1783 52.6059 14.2623 42.7848 14.2623 30.6787C14.2623 18.5725 24.1295 8.75144 36.2925 8.75144C48.4067 8.75144 58.3227 18.5725 58.3227 30.6787C58.3227 42.7848 48.4555 52.6059 36.2925 52.6059Z" fill="#DBDBDB"/>
<path d="M25.6923 39.3817C25.3504 39.6734 25.155 40.0623 24.9596 40.4513C24.8131 40.8402 24.7154 41.2778 24.7154 41.7154C24.7642 42.2016 24.9596 42.6878 24.9596 43.174C24.9596 43.2226 24.9596 43.2712 24.9596 43.3684C24.0804 42.2016 23.2988 40.9861 22.6638 39.6734C22.6638 39.4303 22.7126 39.1872 22.8103 38.9441C22.9569 38.5551 23.2988 38.2634 23.4942 37.9231C23.6896 37.5827 23.7873 37.1938 23.885 36.8048C24.0315 36.3673 24.0804 35.9783 24.0315 35.4921C23.9827 35.4921 23.9338 35.4435 23.9338 35.3949C23.543 35.5894 23.25 35.8811 23.0546 36.2214C22.8103 36.5617 22.6149 36.9021 22.5661 37.3397C22.5172 37.7772 22.5661 38.2634 22.4684 38.701C22.4684 38.7982 22.4196 38.8468 22.4196 38.9441C21.8334 37.6314 21.3938 36.3186 21.1007 34.9573C21.1495 34.6656 21.2472 34.3739 21.4426 34.1794C21.6868 33.8877 22.0288 33.6932 22.3219 33.4501C22.5661 33.1584 22.7615 32.8667 22.908 32.4777C23.0546 32.1374 23.2011 31.7485 23.25 31.2623C23.2011 31.2136 23.2011 31.2136 23.1523 31.165C22.7615 31.2623 22.4196 31.4567 22.1265 31.6998C21.8334 31.9429 21.5891 32.2346 21.4426 32.6236C21.2961 33.0125 21.2472 33.4987 21.1007 33.8391C21.0518 33.9363 21.003 34.0335 20.9541 34.0822C20.7099 32.7208 20.5633 31.3595 20.5633 29.9982C20.7099 29.6578 20.8564 29.3661 21.1007 29.1716C21.3938 28.9285 21.7357 28.8799 22.0288 28.6854C22.3219 28.491 22.5661 28.1993 22.7615 27.9075C22.9569 27.6158 23.1523 27.2755 23.2988 26.8379C23.2988 26.7893 23.25 26.7407 23.25 26.7407C22.8592 26.7407 22.5172 26.8379 22.2242 27.0324C21.9311 27.1782 21.638 27.4213 21.3938 27.7131C21.1984 28.0534 21.0518 28.491 20.8564 28.7827C20.7587 28.8799 20.7099 28.9772 20.6122 29.0744C20.661 27.7131 20.8076 26.4003 21.1007 25.0876L21.1495 25.039C21.3449 24.6987 21.5891 24.407 21.8822 24.2611C22.1753 24.1152 22.5172 24.1152 22.8592 24.018C23.1523 23.9208 23.4454 23.7263 23.6896 23.4832C23.9338 23.2401 24.1781 22.997 24.3735 22.6081C24.3735 22.5594 24.3246 22.5108 24.3246 22.4622C23.9338 22.365 23.6407 22.4136 23.2988 22.4622C23.0057 22.5594 22.6638 22.6567 22.4196 22.9484C22.1753 23.1915 21.9799 23.6291 21.6868 23.8235C21.5891 23.9208 21.4426 24.018 21.2961 24.0666C21.638 22.7539 22.1265 21.4898 22.7126 20.2257C22.7126 20.2257 22.7126 20.2743 22.7615 20.2743C22.8103 20.2257 22.8592 20.1771 22.908 20.1285C23.1523 19.8854 23.4454 19.6423 23.7384 19.5937C24.0315 19.4964 24.3735 19.6423 24.6665 19.5937C24.9596 19.545 25.2527 19.3992 25.5458 19.2533C25.8389 19.0589 26.0831 18.8644 26.3762 18.524C26.3762 18.4754 26.3762 18.4268 26.3762 18.3782C26.0831 18.1837 25.7412 18.1351 25.4481 18.1351C25.155 18.1351 24.8619 18.1837 24.5688 18.3782C24.2758 18.5727 24.0315 18.913 23.7384 19.0589C23.5919 19.1561 23.4454 19.2047 23.2988 19.2047C23.2988 19.1561 23.2988 19.1561 23.2988 19.1075C24.2758 17.3086 25.4969 15.6555 26.9624 14.0997C25.5458 15.461 24.3735 16.9682 23.3477 18.524C23.3477 18.4754 23.3477 18.4268 23.3477 18.3782C23.3477 18.0379 23.3965 17.6975 23.3477 17.3572C23.25 16.7251 23.0546 16.1417 22.6149 15.6069C22.5661 15.6069 22.5172 15.6555 22.4684 15.6555C21.9799 16.5307 21.8334 17.3086 21.8334 17.9892C21.8334 18.3296 21.9311 18.6213 22.0288 18.913C22.1265 19.2047 22.273 19.4964 22.4684 19.7395C22.5172 19.7881 22.5172 19.7881 22.5661 19.8368C21.9799 20.9064 21.5403 22.0246 21.1495 23.1429C21.1495 23.1429 21.1495 23.1429 21.1495 23.0942C21.0518 22.7539 21.003 22.4136 20.9053 22.0732C20.661 21.4412 20.3191 20.8578 19.7329 20.3716C19.6841 20.4202 19.6352 20.4202 19.5864 20.4688C19.3422 21.4898 19.391 22.2677 19.5864 22.997C19.6841 23.3373 19.8306 23.6291 20.026 23.9208C20.1726 24.2125 20.4168 24.4556 20.661 24.6987C20.368 25.8169 20.1726 26.9838 20.026 28.102C19.8795 27.7617 19.7329 27.4213 19.5376 27.1296C19.0979 26.5462 18.6583 25.9628 17.9256 25.5738C17.8767 25.6224 17.8279 25.6711 17.8279 25.6711C17.8279 26.7407 18.0721 27.5672 18.4629 28.2965C18.6583 28.6368 18.9025 28.9285 19.1468 29.1716C19.391 29.4147 19.6352 29.6092 19.9283 29.8037C19.8795 30.9219 19.9283 32.0888 20.0749 33.207C19.8306 32.9153 19.6352 32.6236 19.3422 32.3805C18.756 31.8457 18.121 31.3595 17.3394 31.1164C17.2906 31.165 17.2906 31.2136 17.2417 31.2623C17.486 32.3805 17.9744 33.1584 18.5606 33.8391C18.8537 34.1308 19.1468 34.3739 19.4887 34.617C19.7329 34.8115 20.026 34.9573 20.368 35.0546C20.6122 36.1728 20.9053 37.2424 21.2961 38.3607C21.003 38.1176 20.7099 37.8745 20.4168 37.68C19.6841 37.2424 18.9025 36.8535 18.0233 36.7562C18.0233 36.8048 17.9744 36.8535 17.9744 36.9021C18.5118 37.9717 19.2445 38.701 19.9772 39.2844C20.368 39.5275 20.7587 39.722 21.1495 39.8678C21.4426 40.0137 21.7357 40.0623 22.0288 40.1109C22.5173 41.1319 23.0546 42.1529 23.6896 43.1253C23.3477 42.9795 23.0057 42.785 22.6149 42.6391C21.7357 42.3474 20.8564 42.1043 19.8795 42.1529C19.8795 42.2016 19.8795 42.2502 19.8795 42.2988C20.7099 43.3198 21.638 43.9032 22.5661 44.2922C23.0057 44.4867 23.4942 44.5839 23.9338 44.6811C24.2269 44.7298 24.52 44.7298 24.8131 44.7298C25.3016 45.3618 25.8389 45.9939 26.4251 46.5773C26.7181 46.2856 27.0112 45.9939 27.3532 45.6535C26.7181 45.0215 26.0831 44.3408 25.4969 43.6601C25.4481 43.417 25.4481 43.2226 25.4969 43.0281C25.5458 42.5905 25.79 42.2016 25.9366 41.8126C26.0343 41.4237 26.0831 40.9861 26.0343 40.4999C26.0343 40.0623 25.9854 39.6248 25.8389 39.1386C25.79 39.3817 25.7412 39.3817 25.6923 39.3817Z" fill="#DBDBDB"/>
<path d="M46.8931 39.3816C47.235 39.6733 47.4304 40.0623 47.6258 40.4512C47.7723 40.8402 47.87 41.2777 47.87 41.7153C47.8212 42.2015 47.6258 42.6877 47.6258 43.1739C47.6258 43.2225 47.6258 43.2711 47.6258 43.3684C48.505 42.2015 49.2866 40.986 49.9216 39.6733C49.9216 39.4302 49.8728 39.1871 49.7751 38.944C49.6285 38.5551 49.2866 38.2634 49.0912 37.923C48.8958 37.5827 48.7981 37.1937 48.7004 36.8048C48.6027 36.4158 48.5539 35.9783 48.6027 35.4921C48.6516 35.4921 48.7004 35.4434 48.7004 35.3948C49.0912 35.5893 49.3843 35.881 49.5797 36.2213C49.8239 36.5617 50.0193 36.902 50.0682 37.3396C50.117 37.7772 50.0682 38.2634 50.1658 38.7009C50.1658 38.7982 50.2147 38.8468 50.2147 38.944C50.8009 37.6313 51.2405 36.3186 51.5336 34.9573C51.4847 34.6655 51.387 34.3738 51.1916 34.1793C50.9474 33.8876 50.6055 33.6932 50.3124 33.4501C50.0682 33.1583 49.8728 32.8666 49.7262 32.4777C49.5797 32.1373 49.4331 31.7484 49.3843 31.2622C49.4331 31.2136 49.4331 31.2136 49.482 31.165C49.8728 31.2622 50.2147 31.4567 50.5078 31.6998C50.8009 31.9429 51.0451 32.2346 51.1916 32.6235C51.3382 33.0125 51.387 33.4987 51.5336 33.839C51.5824 33.9362 51.6313 34.0335 51.6801 34.0821C51.9244 32.7208 52.0709 31.3594 52.0709 29.9981C51.9244 29.6578 51.7778 29.3661 51.5336 29.1716C51.2405 28.9285 50.8986 28.8799 50.6055 28.6854C50.3124 28.4909 50.0682 28.1992 49.8728 27.9075C49.6774 27.6158 49.482 27.2754 49.3354 26.8379C49.3354 26.7892 49.3843 26.7406 49.3843 26.7406C49.7751 26.7406 50.117 26.8379 50.4101 27.0323C50.7032 27.1782 50.9963 27.4213 51.2405 27.713C51.4359 28.0533 51.5824 28.4909 51.7778 28.7826C51.8755 28.8799 51.9244 28.9771 52.0221 29.0743C51.9732 27.713 51.8267 26.4003 51.5336 25.0876L51.4847 25.0389C51.2893 24.6986 51.0451 24.4069 50.752 24.261C50.4589 24.1152 50.117 24.1152 49.7751 24.0179C49.482 23.9207 49.1889 23.7262 48.9447 23.4831C48.7004 23.24 48.4562 22.9969 48.2608 22.608C48.2608 22.5594 48.3096 22.5108 48.3096 22.4621C48.7004 22.3649 48.9935 22.4135 49.3354 22.4621C49.6285 22.5594 49.9705 22.6566 50.2147 22.9483C50.4589 23.1914 50.6543 23.629 50.9474 23.8235C51.0451 23.9207 51.1916 24.0179 51.3382 24.0666C50.9963 22.7538 50.5078 21.4897 49.9216 20.2257C49.9216 20.2257 49.9216 20.2743 49.8728 20.2743C49.8239 20.2257 49.7751 20.177 49.7262 20.1284C49.482 19.8853 49.1889 19.6422 48.8958 19.5936C48.6027 19.4964 48.2608 19.6422 47.9677 19.5936C47.6746 19.545 47.3815 19.3991 47.0885 19.2533C46.7954 19.0588 46.5511 18.8643 46.258 18.524C46.258 18.4754 46.258 18.4267 46.258 18.3781C46.5511 18.1836 46.8931 18.135 47.1861 18.135C47.4792 18.135 47.7723 18.1836 48.0654 18.3781C48.3585 18.5726 48.6027 18.9129 48.8958 19.0588C49.0424 19.156 49.1889 19.2046 49.3354 19.2046C49.3354 19.156 49.3354 19.156 49.3354 19.1074C48.3585 17.3085 47.1373 15.6555 45.6719 14.0996C47.0885 15.461 48.2608 16.9682 49.2866 18.524C49.2866 18.4754 49.2866 18.4267 49.2866 18.3781C49.2866 18.0378 49.2377 17.6975 49.2866 17.3571C49.3843 16.7251 49.5797 16.1416 50.0193 15.6068C50.0682 15.6068 50.117 15.6555 50.1658 15.6555C50.6543 16.5306 50.8009 17.3085 50.8009 17.9892C50.8009 18.3295 50.7032 18.6212 50.6055 18.9129C50.5078 19.2047 50.3612 19.4964 50.1658 19.7395C50.117 19.7881 50.117 19.7881 50.0682 19.8367C50.6543 20.9063 51.0939 22.0246 51.4847 23.1428C51.4847 23.1428 51.4847 23.1428 51.4847 23.0942C51.5336 22.7538 51.6313 22.3649 51.729 22.0732C51.9732 21.4411 52.3151 20.8577 52.9013 20.3715C52.9502 20.4201 52.999 20.4201 53.0479 20.4687C53.2921 21.4897 53.2432 22.2677 53.0967 22.9969C52.999 23.3373 52.8525 23.629 52.6571 23.9207C52.5105 24.2124 52.2663 24.4555 52.0221 24.6986C52.3151 25.8169 52.5105 26.9837 52.6571 28.102C52.8036 27.7616 52.9502 27.4213 53.1455 27.1296C53.5852 26.5461 54.0248 25.9627 54.7575 25.5738C54.8064 25.6224 54.8552 25.671 54.8552 25.671C54.8552 26.7406 54.611 27.5671 54.2202 28.2964C54.0248 28.6368 53.7806 28.9285 53.5363 29.1716C53.2921 29.4147 53.0479 29.6091 52.7548 29.8036C52.8036 30.9219 52.7548 32.0887 52.6082 33.207C52.8525 32.9152 53.0479 32.6235 53.3409 32.3804C53.9271 31.8456 54.5621 31.3594 55.3437 31.1163C55.3925 31.165 55.3925 31.2136 55.4414 31.2622C55.1971 32.3804 54.7087 33.1583 54.1225 33.839C53.8294 34.1307 53.5363 34.3738 53.1944 34.6169C52.9502 34.8114 52.6571 34.9573 52.3151 35.0545C52.0709 36.1727 51.7778 37.2424 51.387 38.3606C51.6801 38.1175 51.9732 37.8744 52.2663 37.6799C52.999 37.2424 53.7806 36.8534 54.6598 36.7562C54.6598 36.8048 54.7087 36.8534 54.7087 36.902C54.1713 37.9716 53.4386 38.7009 52.7059 39.2844C52.3151 39.5275 51.9244 39.7219 51.5336 39.8678C51.2405 40.0136 50.9474 40.0623 50.6543 40.1109C50.1658 41.1319 49.6285 42.1529 48.9935 43.1253C49.3354 42.9794 49.6774 42.7849 50.0682 42.6391C50.9474 42.3474 51.8267 42.1043 52.8036 42.1529C52.8036 42.2015 52.8036 42.2501 52.8036 42.2987C51.9732 43.3197 51.0451 43.9032 50.117 44.2921C49.6774 44.4866 49.1889 44.5838 48.7493 44.6811C48.4562 44.7297 48.1631 44.7297 47.87 44.7297C47.3815 45.3617 46.8442 45.9938 46.258 46.5772C45.965 46.2855 45.6719 45.9938 45.3299 45.6535C45.965 45.0214 46.6 44.3407 47.1861 43.6601C47.235 43.417 47.235 43.2225 47.1861 43.028C47.1373 42.5905 46.8931 42.2015 46.7465 41.8126C46.6488 41.4236 46.6 40.986 46.6488 40.4998C46.6488 40.0623 46.6977 39.6247 46.8442 39.1385C46.8442 39.3816 46.8442 39.3816 46.8931 39.3816Z" fill="#DBDBDB"/>
<path d="M34.1444 28.9768H36.3425C37.9056 28.9768 38.9314 28.1016 38.9314 26.8375C38.9314 25.5248 37.9545 24.7469 36.3425 24.7469C34.7794 24.7469 33.7047 25.7193 33.6559 27.0806H29.4062C29.455 23.6287 32.2882 21.3436 36.4891 21.3436C40.4946 21.3436 43.1812 23.2883 43.1812 26.2541C43.1812 28.442 41.618 30.0464 39.4199 30.4353V30.5326C42.1065 30.7757 43.865 32.3801 43.865 34.8597C43.865 38.1658 40.8365 40.305 36.3425 40.305C32.0928 40.305 29.2596 38.0199 29.1131 34.5194H33.5094C33.6071 35.8807 34.6817 36.7072 36.4402 36.7072C38.101 36.7072 39.2245 35.7835 39.2245 34.4707C39.2245 33.0608 38.1499 32.2343 36.3914 32.2343H34.1932V28.9768H34.1444Z" fill="#DBDBDB"/>
</svg>
