<svg width="36" height="36" viewBox="0 0 36 36" fill="none" xmlns="http://www.w3.org/2000/svg">
<path d="M18 36C27.9411 36 36 27.9411 36 18C36 8.05887 27.9411 0 18 0C8.05887 0 0 8.05887 0 18C0 27.9411 8.05887 36 18 36Z" fill="#363636"/>
<path d="M29.3727 16.8545L27.7363 12.6818C27.4908 12.1091 26.9999 11.7818 26.4272 11.7818H8.01811C7.19992 11.7818 6.6272 12.4364 6.6272 13.1727V21.2727C6.6272 22.0909 7.28174 22.6636 8.01811 22.6636H8.99992C9.24538 23.6455 10.309 24.3 11.2908 24.0545C11.9454 23.8909 12.5181 23.3182 12.6817 22.6636H23.3181C23.5636 23.6455 24.6272 24.3 25.609 24.0545C26.2636 23.8909 26.8363 23.3182 26.9999 22.6636H27.9817C28.7999 22.6636 29.3727 22.0091 29.3727 21.2727V17.0182C29.4545 17.0182 29.3727 16.9364 29.3727 16.8545ZM24.6272 12.7636H26.3454C26.509 12.7636 26.7545 12.8455 26.7545 13.0909L27.9817 16.1182H24.6272V12.7636ZM20.3727 12.7636H23.7272V16.1182H20.3727V12.7636ZM15.6272 12.7636H19.4726V16.1182H15.6272V12.7636ZM11.3727 12.7636H14.7272V16.1182H11.3727V12.7636ZM7.5272 13.2545C7.5272 13.0091 7.77265 12.7636 8.01811 12.7636H10.3908V16.1182H7.5272V13.2545ZM10.8817 23.2364C10.3908 23.2364 9.89992 22.8273 9.89992 22.2545C9.89992 21.6818 10.309 21.2727 10.8817 21.2727C11.4545 21.2727 11.8636 21.6818 11.8636 22.2545C11.8636 22.8273 11.3727 23.2364 10.8817 23.2364ZM25.1181 23.2364C24.6272 23.2364 24.1363 22.8273 24.1363 22.2545C24.1363 21.6818 24.5454 21.2727 25.1181 21.2727C25.6908 21.2727 26.0999 21.6818 26.0999 22.2545C26.0999 22.8273 25.6908 23.2364 25.1181 23.2364ZM28.4726 18H27.9817C27.7363 18 27.4908 18.2455 27.4908 18.4909C27.4908 18.7364 27.7363 18.9818 27.9817 18.9818H28.4726V21.3545C28.4726 21.6 28.2272 21.8455 27.9817 21.8455H26.9999C26.7545 20.8636 25.6908 20.2091 24.709 20.4545C24.0545 20.6182 23.4817 21.1909 23.3181 21.8455H12.6817C12.4363 20.8636 11.3727 20.2091 10.3908 20.4545C9.73629 20.6182 9.16356 21.1909 8.99992 21.8455H8.01811C7.77265 21.8455 7.5272 21.6 7.5272 21.3545V17.1H28.3908V17.1818L28.4726 18Z" fill="white"/>
</svg>
