<svg width="14" height="14" viewBox="0 0 14 14" fill="none" xmlns="http://www.w3.org/2000/svg">
<path d="M12.7695 1.64062H12.3594V1.23047C12.3594 0.552344 11.807 0 11.1289 0C10.4508 0 9.89844 0.552344 9.89844 1.23047V1.64062H8.25781V1.23047C8.25781 0.552344 7.70547 0 7.02734 0C6.34922 0 5.79688 0.552344 5.79688 1.23047V1.64062H4.10156V1.23047C4.10156 0.552344 3.54922 0 2.87109 0C2.19297 0 1.64062 0.552344 1.64062 1.23047V1.64062H1.23047C0.552344 1.64062 0 2.19297 0 2.87109C0 2.93125 0 12.6109 0 12.7695C0 13.4477 0.552344 14 1.23047 14H12.7695C13.4477 14 14 13.4477 14 12.7695C14 12.693 14 3.00508 14 2.87109C14 2.19297 13.4477 1.64062 12.7695 1.64062ZM10.7188 1.23047C10.7188 1.00352 10.902 0.820312 11.1289 0.820312C11.3559 0.820312 11.5391 1.00352 11.5391 1.23047V2.87109C11.5391 3.09805 11.3559 3.28125 11.1289 3.28125C10.902 3.28125 10.7188 3.09805 10.7188 2.87109V1.23047ZM6.61719 1.23047C6.61719 1.00352 6.80039 0.820312 7.02734 0.820312C7.2543 0.820312 7.4375 1.00352 7.4375 1.23047V2.87109C7.4375 3.09805 7.2543 3.28125 7.02734 3.28125C6.80039 3.28125 6.61719 3.09805 6.61719 2.87109V1.23047ZM2.46094 1.23047C2.46094 1.00352 2.64414 0.820312 2.87109 0.820312C3.09805 0.820312 3.28125 1.00352 3.28125 1.23047V2.87109C3.28125 3.09805 3.09805 3.28125 2.87109 3.28125C2.64414 3.28125 2.46094 3.09805 2.46094 2.87109V1.23047ZM13.1797 12.7695C13.1797 12.9965 12.9965 13.1797 12.7695 13.1797H1.23047C1.00352 13.1797 0.820312 12.9965 0.820312 12.7695V5.79688H13.1797V12.7695ZM13.1797 4.97656H0.820312V2.87109C0.820312 2.64414 1.00352 2.46094 1.23047 2.46094H1.64062V2.87109C1.64062 3.54922 2.19297 4.10156 2.87109 4.10156C3.54922 4.10156 4.10156 3.54922 4.10156 2.87109V2.46094H5.79688V2.87109C5.79688 3.54922 6.34922 4.10156 7.02734 4.10156C7.70547 4.10156 8.25781 3.54922 8.25781 2.87109V2.46094H9.89844V2.87109C9.89844 3.54922 10.4508 4.10156 11.1289 4.10156C11.807 4.10156 12.3594 3.54922 12.3594 2.87109V2.46094H12.7695C12.9965 2.46094 13.1797 2.64414 13.1797 2.87109V4.97656Z" fill="#B2B2B2"/>
<path d="M11.9492 6.61719H2.05078C1.82383 6.61719 1.64062 6.80039 1.64062 7.02734V11.9492C1.64062 12.1762 1.82383 12.3594 2.05078 12.3594H11.9492C12.1762 12.3594 12.3594 12.1762 12.3594 11.9492V7.02734C12.3594 6.80039 12.1762 6.61719 11.9492 6.61719ZM4.10156 11.5391H2.46094V9.89844H4.10156V11.5391ZM4.10156 9.07812H2.46094V7.4375H4.10156V9.07812ZM6.61719 11.5391H4.92188V9.89844H6.61719V11.5391ZM6.61719 9.07812H4.92188V7.4375H6.61719V9.07812ZM9.07812 11.5391H7.4375V9.89844H9.07812V11.5391ZM9.07812 9.07812H7.4375V7.4375H9.07812V9.07812ZM11.5391 11.5391H9.89844V9.89844H11.5391V11.5391ZM11.5391 9.07812H9.89844V7.4375H11.5391V9.07812Z" fill="#B2B2B2"/>
</svg>
