<svg width="36" height="36" viewBox="0 0 36 36" fill="none" xmlns="http://www.w3.org/2000/svg">
<path d="M18 36C27.9411 36 36 27.9411 36 18C36 8.05887 27.9411 0 18 0C8.05887 0 0 8.05887 0 18C0 27.9411 8.05887 36 18 36Z" fill="#363636"/>
<path d="M16.0364 23.4818C16.0364 23.7273 15.7909 23.9727 15.5454 23.9727H13.7454C13.5 23.9727 13.2545 23.7273 13.2545 23.4818C13.2545 23.2364 13.5 22.9909 13.7454 22.9909H15.5454C15.7909 22.9909 16.0364 23.1545 16.0364 23.4818ZM19.0636 14.3182H20.8636C21.1091 14.3182 21.3545 14.0727 21.3545 13.8273C21.3545 13.5818 21.1091 13.3364 20.8636 13.3364H19.0636C18.8182 13.3364 18.5727 13.5818 18.5727 13.8273C18.5727 14.0727 18.8182 14.3182 19.0636 14.3182ZM19.0636 16.3636H20.8636C21.1091 16.3636 21.3545 16.1182 21.3545 15.8727C21.3545 15.6273 21.1091 15.3818 20.8636 15.3818H19.0636C18.8182 15.3818 18.5727 15.6273 18.5727 15.8727C18.5727 16.1182 18.8182 16.3636 19.0636 16.3636ZM17.0182 17.4273H13.7454C13.5 17.4273 13.2545 17.6727 13.2545 17.9182C13.2545 18.1636 13.5 18.4091 13.7454 18.4091H17.0182C17.2636 18.4091 17.5091 18.1636 17.5091 17.9182C17.5091 17.6727 17.2636 17.4273 17.0182 17.4273ZM16.9364 20.9455H13.6636C13.4182 20.9455 13.1727 21.1909 13.1727 21.4364C13.1727 21.6818 13.4182 21.9273 13.6636 21.9273H16.9364C17.1818 21.9273 17.4273 21.6818 17.4273 21.4364C17.4273 21.1909 17.2636 20.9455 16.9364 20.9455ZM25.6909 21.6818V24.7909C25.6909 26.6727 24.1364 28.2273 22.2545 28.2273C21.3545 28.2273 20.5364 27.9 19.9636 27.3273H10.8C10.5545 27.3273 10.3091 27.0818 10.3091 26.8364V8.18182C10.3091 7.93636 10.5545 7.69091 10.8 7.69091H20.5364C20.7 7.69091 20.7818 7.77273 20.8636 7.85455L24.1364 11.1273C24.2182 11.2091 24.2182 11.2909 24.3 11.3727V11.4545V21.0273C24.6273 21.0273 24.9545 21.1091 25.2818 21.1909C25.5273 21.2727 25.6909 21.4364 25.6909 21.6818ZM21.0273 11.0455H22.6636L21.0273 9.40909V11.0455ZM18.8182 24.7909V21.6818C18.8182 21.4364 18.9818 21.2727 19.2273 21.1909C20.2091 21.0273 21.2727 20.9455 22.2545 20.9455C22.6636 20.9455 22.9909 20.9455 23.4 20.9455V11.9455H20.5364C20.2909 11.9455 20.0454 11.7 20.0454 11.4545V8.59091H11.2909V26.2636H19.1454C18.9 25.9364 18.8182 25.3636 18.8182 24.7909ZM24.7091 22.0909C23.8909 21.9273 23.0727 21.9273 22.2545 21.9273C21.4364 21.9273 20.6182 22.0091 19.8 22.0909V24.7909C19.8 26.1818 20.9454 27.2455 22.2545 27.2455C23.6454 27.2455 24.7091 26.1 24.7091 24.7909V22.0909ZM21.7636 23.3182V24.1364H20.9454C20.7 24.1364 20.4545 24.3818 20.4545 24.6273C20.4545 24.8727 20.7 25.1182 20.9454 25.1182H21.7636V25.9364C21.7636 26.1818 22.0091 26.4273 22.2545 26.4273C22.5 26.4273 22.7454 26.1818 22.7454 25.9364V25.1182H23.5636C23.8091 25.1182 24.0545 24.8727 24.0545 24.6273C24.0545 24.3818 23.8091 24.1364 23.5636 24.1364H22.7454V23.3182C22.7454 23.0727 22.5 22.8273 22.2545 22.8273C22.0091 22.8273 21.7636 22.9909 21.7636 23.3182ZM20.9454 18.4091C21.1909 18.4091 21.4364 18.1636 21.4364 17.9182C21.4364 17.6727 21.1909 17.4273 20.9454 17.4273H19.1454C18.9 17.4273 18.6545 17.6727 18.6545 17.9182C18.6545 18.1636 18.9 18.4091 19.1454 18.4091H20.9454ZM17.0182 15.3818H13.7454C13.5 15.3818 13.2545 15.6273 13.2545 15.8727C13.2545 16.1182 13.5 16.3636 13.7454 16.3636H17.0182C17.2636 16.3636 17.5091 16.1182 17.5091 15.8727C17.5091 15.6273 17.2636 15.3818 17.0182 15.3818ZM17.0182 13.3364H13.7454C13.5 13.3364 13.2545 13.5818 13.2545 13.8273C13.2545 14.0727 13.5 14.3182 13.7454 14.3182H17.0182C17.2636 14.3182 17.5091 14.0727 17.5091 13.8273C17.5091 13.5818 17.2636 13.3364 17.0182 13.3364Z" fill="white"/>
</svg>
