<svg width="16" height="19" viewBox="0 0 16 19" fill="none" xmlns="http://www.w3.org/2000/svg">
<g clip-path="url(#clip0)">
<path d="M8.45814 4.07663C9.72687 3.56705 10.9956 3.63985 12.2643 3.85824C12.8987 4.00383 13.533 4.14943 14.0969 4.29502C14.5198 4.44061 14.8018 4.29502 14.9427 3.85824C15.1542 3.42146 15.3656 2.91188 15.5771 2.4023C15.7885 1.89272 15.6476 1.52874 15.2247 1.31034C15.0837 1.23755 14.9427 1.16475 14.8722 1.16475C13.1101 0.509579 11.207 0.218391 9.30396 0.509579C7.96475 0.727969 6.69603 1.16475 5.63876 2.03831C4.29955 3.13027 3.38325 4.58621 2.88986 6.26054L2.81938 6.40613H0.916294C0.563871 6.40613 0.352417 6.69732 0.352417 6.98851V8.22605C0.352417 8.59004 0.634355 8.80843 0.916294 8.80843H2.39647C2.39647 9.17241 2.39647 9.4636 2.39647 9.82759H0.916294C0.563871 9.82759 0.352417 10.1188 0.352417 10.41V11.5019C0.352417 11.8659 0.634355 12.0843 0.916294 12.0843H2.74889C2.88986 12.5939 3.03083 13.0307 3.1718 13.4674C4.0881 15.7969 5.63876 17.3985 7.96475 18.1992C9.86783 18.8544 11.8414 18.7816 13.7445 18.272C14.2379 18.1264 14.7313 17.9808 15.2247 17.7625C15.6476 17.5441 15.7181 17.1801 15.5771 16.7433C15.3656 16.2337 15.1542 15.7241 14.9427 15.2146C14.7313 14.7778 14.4493 14.705 14.0264 14.7778C13.4625 14.9234 12.8282 15.069 12.2643 15.2146C11.1366 15.5057 9.93832 15.5057 8.81057 15.1418C7.33039 14.705 6.55506 13.613 6.13215 12.2299H10.0088C10.3612 12.2299 10.5727 11.9387 10.5727 11.6475V10.41C10.5727 10.046 10.2907 9.82759 10.0088 9.82759H5.70924C5.70924 9.4636 5.70924 9.09962 5.70924 8.80843H10.0088C10.3612 8.80843 10.5727 8.51724 10.5727 8.22605V6.98851C10.5727 6.62452 10.2907 6.40613 10.0088 6.40613H6.27312C6.76651 5.31418 7.40087 4.51341 8.45814 4.07663Z" stroke="#AFAFAF" stroke-miterlimit="10"/>
</g>
<defs>
<clipPath id="clip0">
<rect width="16" height="19" fill="white"/>
</clipPath>
</defs>
</svg>
