<svg width="17" height="12" viewBox="0 0 17 12" fill="none" xmlns="http://www.w3.org/2000/svg">
<path d="M1.78563 1.81399C1.81602 1.78212 1.85981 1.75979 1.91744 1.75534C1.92438 1.75686 1.9316 1.75767 1.939 1.75767H15.064C15.1324 1.75767 15.1833 1.7814 15.2174 1.81714C15.2518 1.85328 15.276 1.9091 15.276 1.98493V10.5031C15.276 10.579 15.2518 10.6348 15.2174 10.6709C15.1833 10.7067 15.1324 10.7304 15.064 10.7304H1.939C1.86992 10.7304 1.8191 10.707 1.78539 10.6719C1.75136 10.6364 1.727 10.5809 1.727 10.5031V1.98178C1.727 1.90596 1.75117 1.85013 1.78563 1.81399ZM1.939 11.5881H15.064C15.6547 11.5881 16.1 11.1139 16.1 10.5063V1.98493C16.1 1.37435 15.6549 0.9 15.064 0.9H1.939C1.34533 0.9 0.9 1.37413 0.9 1.98493V10.5063C0.9 11.1141 1.34553 11.5881 1.939 11.5881Z" fill="#9abe3b" stroke="#9abe3b" stroke-width="0.2" stroke-miterlimit="10" stroke-linejoin="round"/>
<path d="M2.27161 2.87208L2.27153 2.87216L2.27513 2.87558L8.21046 8.51297C8.29349 8.59883 8.41213 8.63959 8.49999 8.63959C8.54755 8.63959 8.60096 8.62709 8.64817 8.60496C8.68996 8.58538 8.73692 8.55345 8.76799 8.50492L14.6978 2.8756L14.698 2.87574L14.7022 2.8712C14.8473 2.71526 14.9068 2.45433 14.7305 2.27378C14.6542 2.19562 14.5555 2.14165 14.4505 2.13053C14.3434 2.11919 14.2352 2.1534 14.1503 2.24142L8.50279 7.64925L2.82095 2.23976L2.82121 2.23948L2.81442 2.23406C2.65036 2.10295 2.40551 2.10273 2.24161 2.27465L2.24097 2.27403L2.23308 2.28488C2.11086 2.45314 2.10983 2.70238 2.27161 2.87208Z" fill="#9abe3b" stroke="#9abe3b" stroke-width="0.2" stroke-miterlimit="10" stroke-linejoin="round"/>
<path d="M10.2096 6.64187L10.2094 6.64209L10.2154 6.64749L14.1807 10.1843C14.2137 10.2188 14.2621 10.2406 14.2986 10.2534C14.341 10.2682 14.3914 10.279 14.437 10.279C14.5419 10.279 14.6855 10.241 14.7453 10.1037C14.9022 9.92247 14.8479 9.67524 14.7014 9.52157L14.7016 9.52134L14.6955 9.5159L10.7593 6.00983C10.6751 5.92329 10.5678 5.88831 10.4609 5.89909C10.3554 5.90974 10.2562 5.96408 10.1796 6.04444C10.0057 6.22682 10.0589 6.48383 10.2096 6.64187Z" fill="#9abe3b" stroke="#9abe3b" stroke-width="0.2" stroke-miterlimit="10" stroke-linejoin="round"/>
<path d="M2.13602 9.79507C2.12634 9.90102 2.15336 10.0183 2.23462 10.1083C2.32044 10.2388 2.44754 10.279 2.56299 10.279C2.60988 10.279 2.66084 10.2668 2.70231 10.2518C2.73931 10.2385 2.78623 10.2167 2.81787 10.1855L6.78562 6.64612C6.87105 6.57705 6.91922 6.46886 6.92898 6.36211C6.93876 6.25513 6.91112 6.1366 6.82803 6.04625C6.70098 5.8775 6.41601 5.83019 6.24382 6.00654L2.27958 9.51091C2.19403 9.57997 2.14579 9.68824 2.13602 9.79507Z" fill="#9abe3b" stroke="#9abe3b" stroke-width="0.2" stroke-miterlimit="10" stroke-linejoin="round"/>
</svg>
