<svg width="17" height="19" viewBox="0 0 17 19" fill="none" xmlns="http://www.w3.org/2000/svg">
<path d="M8.49606 0C4.29774 0 0.880127 3.41761 0.880127 7.61593C0.880127 8.09392 0.923942 8.57589 1.01556 9.04591C1.01954 9.0738 1.03547 9.15744 1.06734 9.30084C1.18285 9.81468 1.35413 10.3205 1.57719 10.8025C2.39774 12.7344 4.20214 15.7019 8.16147 18.8805C8.26105 18.9602 8.38055 19 8.50004 19C8.61954 19 8.73904 18.9602 8.83862 18.8805C12.794 15.7019 14.6023 12.7344 15.4229 10.8025C15.646 10.3205 15.8172 9.81866 15.9327 9.30084C15.9646 9.15744 15.9805 9.0738 15.9845 9.04591C16.0722 8.57589 16.12 8.09392 16.12 7.61593C16.112 3.41761 12.6944 0 8.49606 0ZM14.917 8.8587C14.917 8.86667 14.913 8.87463 14.913 8.8826C14.9091 8.90252 14.8971 8.96227 14.8772 9.05388C14.8772 9.05786 14.8772 9.05786 14.8772 9.06184C14.7776 9.50797 14.6302 9.94214 14.4351 10.3604C14.4311 10.3644 14.4311 10.3723 14.4271 10.3763C13.6822 12.1409 12.0491 14.8335 8.49606 17.7692C4.94302 14.8335 3.3099 12.1409 2.56503 10.3763C2.56105 10.3723 2.56105 10.3644 2.55707 10.3604C2.36587 9.94612 2.21849 9.50797 2.11493 9.06184C2.11493 9.05786 2.11493 9.05786 2.11493 9.05388C2.09103 8.96227 2.08306 8.90252 2.07908 8.8826C2.07908 8.87463 2.0751 8.86667 2.0751 8.85472C1.99543 8.44444 1.9556 8.03019 1.9556 7.61195C1.9556 4.00713 4.89124 1.07149 8.49606 1.07149C12.1009 1.07149 15.0365 4.00713 15.0365 7.61195C15.0365 8.03417 14.9967 8.45241 14.917 8.8587Z" fill="#AFAFAF"/>
<path d="M8.49604 2.86395C5.83126 2.86395 3.6604 5.0348 3.6604 7.69958C3.6604 10.3644 5.83126 12.5352 8.49604 12.5352C11.1608 12.5352 13.3317 10.3644 13.3317 7.69958C13.3317 5.0348 11.1608 2.86395 8.49604 2.86395ZM8.49604 11.4598C6.42078 11.4598 4.73587 9.77086 4.73587 7.69958C4.73587 5.62831 6.42476 3.93942 8.49604 3.93942C10.5673 3.93942 12.2562 5.62831 12.2562 7.69958C12.2562 9.77086 10.5713 11.4598 8.49604 11.4598Z" fill="#AFAFAF"/>
</svg>
