<svg width="19" height="14" viewBox="0 0 19 14" fill="none" xmlns="http://www.w3.org/2000/svg">
<g clip-path="url(#clip0)">
<path d="M9.74046 2.41346C9.54856 2.78495 9.43683 3.205 9.43683 3.64933C9.43683 4.44329 9.78418 5.15956 10.3356 5.65245C10.4327 5.32466 10.4837 4.97746 10.4837 4.62054C10.4837 3.79015 10.2068 3.02532 9.74046 2.41346Z" fill="#B2B2B2"/>
<path d="M6.82078 8.28199C8.1276 8.28199 9.27654 7.59729 9.9251 6.56538C9.6579 6.36142 9.41986 6.12348 9.21582 5.8564C8.76644 6.72077 7.86041 7.31564 6.82078 7.31564C5.33663 7.31564 4.12454 6.10163 4.12454 4.62053C4.12454 3.13943 5.33906 1.92542 6.82078 1.92542C7.51063 1.92542 8.14218 2.18765 8.6207 2.61741C8.71543 2.29448 8.85632 1.98855 9.03364 1.70933C8.41666 1.24557 7.65151 0.971207 6.82078 0.971207C4.79738 0.971207 3.15778 2.61012 3.15778 4.62053C3.15778 6.63094 4.79738 8.28199 6.82078 8.28199Z" fill="#B2B2B2"/>
<path d="M9.08952 9.88935C10.5785 9.88935 11.8538 10.7829 12.4149 12.0624H13.4497C12.8813 10.3652 11.3461 9.10509 9.4976 8.94241C8.70816 9.03225 7.99645 9.37703 7.44263 9.88935H9.08952Z" fill="#B2B2B2"/>
<path d="M12.6869 13.0337H1.00077C1.23638 11.2709 2.75454 9.88936 4.59576 9.88936H6.16249C6.4224 9.52516 6.73332 9.1998 7.08796 8.923H4.59576C2.06712 8.923 0 10.9795 0 13.5168C0 13.7863 0.213756 14 0.48338 14H13.2019C13.4715 14 13.6852 13.7863 13.6852 13.5168C13.6852 13.3517 13.6755 13.1891 13.6585 13.0288H12.6845C12.6845 13.0312 12.6869 13.0312 12.6869 13.0337Z" fill="#B2B2B2"/>
<path d="M9.74047 2.41346C10.1898 1.54908 11.0959 0.954214 12.1355 0.954214C13.6197 0.954214 14.8317 2.16823 14.8317 3.64932C14.8317 5.13042 13.6172 6.34443 12.1355 6.34443C11.4457 6.34443 10.8141 6.08221 10.338 5.65245C10.2433 5.9778 10.1024 6.28373 9.92751 6.56538C10.5421 7.03156 11.3072 7.31079 12.1379 7.31079C14.1613 7.31079 15.8009 5.67187 15.8009 3.64932C15.8009 1.62678 14.1565 0 12.1331 0C10.8263 0 9.67974 0.684703 9.03119 1.70933C9.29838 1.91086 9.53643 2.1488 9.74047 2.41346Z" fill="#B2B2B2"/>
<path d="M9.51698 4.62053C9.51698 5.06486 9.40768 5.48491 9.21578 5.8564C9.41982 6.12348 9.65787 6.36143 9.92506 6.56538C10.1024 6.28373 10.2408 5.9778 10.3356 5.65245C9.78418 5.15713 9.43683 4.44086 9.43683 3.64932C9.43683 3.205 9.54613 2.78495 9.74046 2.41346C9.53885 2.1488 9.3008 1.91086 9.0336 1.70933C8.85628 1.98855 8.71783 2.29449 8.62067 2.61741C9.16963 3.11273 9.51698 3.829 9.51698 4.62053Z" fill="#B2B2B2"/>
<path d="M14.4043 7.95179H9.91053C8.84904 7.95179 7.86771 8.31356 7.08798 8.923H9.09195C9.22797 8.923 9.364 8.93028 9.4976 8.93999C9.63362 8.92542 9.76965 8.91571 9.91053 8.91571H14.4043C16.2479 8.91571 17.7636 10.2851 17.9993 12.06H13.4497C13.5541 12.3684 13.6245 12.6913 13.661 13.0264H18.5166C18.7863 13.0264 19 12.8127 19 12.5432C19 10.018 16.9426 7.95179 14.4043 7.95179Z" fill="#B2B2B2"/>
<path d="M6.16251 9.88935H7.44261C7.99401 9.37704 8.70572 9.03226 9.49759 8.94242C9.36399 8.93028 9.22796 8.92542 9.09194 8.92542H7.08797C6.73333 9.19736 6.42241 9.52515 6.16251 9.88935Z" fill="#B2B2B2"/>
<path d="M12.4149 12.0624C12.5485 12.3659 12.6408 12.6889 12.6845 13.0288H13.6585C13.6221 12.6962 13.5517 12.3708 13.4472 12.0624H12.4149Z" fill="#B2B2B2"/>
</g>
<defs>
<clipPath id="clip0">
<rect width="19" height="14" fill="white"/>
</clipPath>
</defs>
</svg>
