<?xml version="1.0" encoding="utf-8"?>
<!-- Generator: Adobe Illustrator 21.0.0, SVG Export Plug-In . SVG Version: 6.00 Build 0)  -->
<svg version="1.1"
	 id="Layer_1" xmlns:cc="http://creativecommons.org/ns#" xmlns:dc="http://purl.org/dc/elements/1.1/" xmlns:inkscape="http://www.inkscape.org/namespaces/inkscape" xmlns:rdf="http://www.w3.org/1999/02/22-rdf-syntax-ns#" xmlns:sodipodi="http://sodipodi.sourceforge.net/DTD/sodipodi-0.dtd" xmlns:svg="http://www.w3.org/2000/svg"
	 xmlns="http://www.w3.org/2000/svg" xmlns:xlink="http://www.w3.org/1999/xlink" x="0px" y="0px" viewBox="0 0 75.4 75.4"
	 style="enable-background:new 0 0 75.4 75.4;" xml:space="preserve">
<style type="text/css">
	.st0{fill:#9ABE3B;}
</style>
<path class="st0" d="M35.9,46.6c2.2,2.3,4.8,3.7,7.3,4c2.5,0.2,5.2-0.6,8.2-3.9c0.9-1,1.9-2.2,3.6-2.8c1.7-0.6,3.7-0.2,5.9,1
	c4.1,3.1,8.4,6.3,12.5,9.5c1.9,1.9,2.4,4.5,1.8,6.5s-2,3.5-3.2,4.8c-6.9,7.2-15.1,10.7-23.1,9.5c-7.8-1.3-15.3-6.8-23.6-15.1
	c-3.6-3.6-6.4-6.4-9.9-9.9C7.1,41.8,1.6,34.3,0.3,26.6C-1.3,17,3.8,9.2,9.8,3.5c1.3-1.2,2.8-2.6,4.8-3.2s4.6-0.1,6.5,1.8
	c3.2,4.1,6.4,8.3,9.5,12.5c1.2,2.2,1.5,4.2,1,5.9c-0.6,1.7-1.8,2.7-2.8,3.6c-3.3,3-4.2,5.7-3.9,8.2s1.7,5.1,4,7.3L35.9,46.6z
	 M26,42.4c-2.7-2.6-4.8-5.9-5.1-9.7c-0.4-3.8,1.2-8,5.2-11.6c1-0.9,1.5-1.5,1.7-1.9c0.1-0.4,0.2-1.1-0.6-2.6l-9-11.7
	c-1.1-1.1-1.6-1.1-2.5-0.8c-0.9,0.3-2.1,1.2-3.2,2.3C5.3,13.6,3.1,19.6,4.2,26s5.9,13.4,14,21.4c3.3,3.3,7,7,9.9,9.9
	c8.1,8.1,15.1,12.9,21.4,14c6.4,1.1,12.4-1.1,19.6-8.3c1.1-1.1,2-2.3,2.3-3.2s0.3-1.3-0.8-2.5L59,48.4c-1.6-0.8-2.2-0.8-2.6-0.6
	c-0.4,0.1-1,0.7-1.9,1.7c-3.6,4-7.7,5.6-11.6,5.2c-3.8-0.4-7.1-2.5-9.7-5.1L26,42.4z"/>
</svg>
