<svg width="14" height="14" viewBox="0 0 14 14" fill="none" xmlns="http://www.w3.org/2000/svg">
<path d="M6.97701 7.79068C9.04598 7.79068 10.7241 6.04346 10.7241 3.88937C10.7241 1.73528 9.04595 0 6.97701 0C4.90806 0 3.22989 1.74723 3.22989 3.88937C3.22989 6.0315 4.90803 7.79068 6.97701 7.79068ZM6.97701 1.01722C8.49423 1.01722 9.73563 2.30967 9.73563 3.88937C9.73563 5.46906 8.49423 6.76148 6.97701 6.76148C5.45978 6.76148 4.21838 5.46903 4.21838 3.88934C4.21838 2.30965 5.45975 1.01722 6.97701 1.01722Z" fill="#B2B2B2"/>
<path d="M0.494248 13.8821H13.5058C13.7816 13.8821 14 13.6547 14 13.3675C14 10.6748 11.8966 8.47282 9.29884 8.47282H4.70116C2.11495 8.47282 0 10.6628 0 13.3675C0 13.6547 0.218387 13.8821 0.494248 13.8821ZM4.70116 9.50201H9.29884C11.1839 9.50201 12.7356 10.962 12.977 12.8529H1.02298C1.26436 10.974 2.8161 9.50201 4.70116 9.50201Z" fill="#B2B2B2"/>
</svg>
