<svg width="36" height="36" viewBox="0 0 36 36" fill="none" xmlns="http://www.w3.org/2000/svg">
<path d="M18 36C27.9411 36 36 27.9411 36 18C36 8.05887 27.9411 0 18 0C8.05887 0 0 8.05887 0 18C0 27.9411 8.05887 36 18 36Z" fill="#363636"/>
<path d="M10.2586 12.9188C9.99369 13.3395 9.9323 13.7805 10.0745 14.2447C10.2166 14.709 10.5236 15.06 10.9921 15.2979C11.4606 15.5359 11.9517 15.591 12.4687 15.4633C12.9857 15.3357 13.3669 15.0629 13.6222 14.6451C13.8774 14.2273 13.9291 13.7892 13.7837 13.3221C13.6383 12.8549 13.3443 12.5039 12.8855 12.2631C12.4299 12.0222 11.9453 11.9642 11.4283 12.0919C10.9145 12.2224 10.5236 12.4981 10.2586 12.9188Z" stroke="white"/>
<path d="M26.456 26.2913L22.0294 17.6335C22.0133 17.6016 21.7386 17.1084 21.7354 17.1026C21.5642 16.8908 20.9793 16.1016 19.6191 15.3704C18.905 14.9875 17.7838 14.6509 17.7838 14.6509C17.3347 14.3724 17.2571 14.1548 17.0859 13.6905L16.8436 13.0348L15.9583 10.5164C15.9356 10.409 15.8807 10.3104 15.8096 10.2321C15.8096 10.2292 15.8064 10.2292 15.8064 10.2263C15.7935 10.2088 15.7773 10.1914 15.7612 10.1769L13.8548 8.2388C13.6125 7.98928 13.1989 7.92254 12.8887 8.09953C12.4978 8.32294 12.4332 8.80167 12.7272 9.10051L14.2006 10.6034C14.4203 10.8297 14.5721 11.1025 14.6367 11.3955L15.1085 13.5426C15.1085 13.5455 15.1117 13.5513 15.1117 13.5542C14.9599 13.6644 14.8209 13.8008 14.6917 13.9691L13.2118 15.8927C12.9598 16.2235 12.8532 16.5397 12.892 16.8444L12.4396 19.0842C12.3815 19.3715 12.2684 19.6442 12.1068 19.8966L10.9469 21.6984C10.7627 21.9856 10.8241 22.357 11.1084 22.5659C11.4703 22.827 11.9937 22.7284 12.2167 22.3831L13.6674 20.1258C13.6965 20.0823 13.7159 20.0359 13.732 19.9895C13.7579 19.9402 13.7773 19.885 13.7902 19.8299L14.543 17.4391C15.3573 17.5755 17.7515 18.0891 18.527 19.4962L11.312 26.0389C10.9404 26.3755 10.9404 26.9209 11.3184 27.2575C11.6932 27.5912 12.3007 27.5912 12.6755 27.2517L20.6885 20.0011C20.8339 19.8676 21.086 19.9082 21.1732 20.0794L24.7177 27.0138C24.9406 27.4461 25.5093 27.6347 25.9907 27.4345C26.4657 27.2343 26.6757 26.7207 26.456 26.2913Z" stroke="white"/>
</svg>
