<svg width="15" height="19" viewBox="0 0 15 19" fill="none" xmlns="http://www.w3.org/2000/svg">
<path d="M13.9262 16.4793L10.1801 9.15254C10.1665 9.12553 9.93404 8.70812 9.9313 8.70321C9.78638 8.52397 9.29146 7.85611 8.1403 7.23736C7.53601 6.91325 6.58719 6.62842 6.58719 6.62842C6.20711 6.39271 6.14149 6.20856 5.99657 5.8157L5.79149 5.26079L5.04228 3.12953C5.02314 3.03868 4.97666 2.9552 4.9165 2.88891C4.9165 2.88645 4.91377 2.88645 4.91377 2.88399C4.90283 2.86926 4.88916 2.85453 4.87548 2.84225L3.26222 1.20207C3.05714 0.990909 2.70714 0.934436 2.44465 1.08421C2.11379 1.27328 2.0591 1.67841 2.30793 1.93131L3.55479 3.20319C3.74073 3.39471 3.86924 3.62551 3.92393 3.87351L4.32315 5.69048C4.32315 5.69293 4.32588 5.69784 4.32588 5.7003C4.19736 5.7936 4.07979 5.909 3.97041 6.05141L2.71808 7.67932C2.5048 7.95923 2.41457 8.22687 2.44738 8.48468L2.06457 10.3802C2.01535 10.6233 1.91965 10.8541 1.78293 11.0677L0.8013 12.5925C0.645442 12.8356 0.697394 13.1499 0.938017 13.3267C1.24426 13.5476 1.68723 13.4642 1.8759 13.172L3.10362 11.2617C3.12823 11.2249 3.14464 11.1856 3.15831 11.1463C3.18019 11.1046 3.19659 11.0579 3.20753 11.0113L3.84463 8.98803C4.53369 9.10343 6.55984 9.53803 7.21609 10.7289L1.11028 16.2657C0.795831 16.5506 0.795831 17.0122 1.11575 17.297C1.43294 17.5793 1.94699 17.5793 2.26418 17.2921L9.04537 11.1561C9.16842 11.0432 9.3817 11.0775 9.45552 11.2224L12.4551 17.0907C12.6438 17.4566 13.125 17.6162 13.5324 17.4468C13.9344 17.2773 14.1121 16.8427 13.9262 16.4793Z" stroke="#B2B2B2"/>
</svg>
