<svg width="42" height="35" viewBox="0 0 42 35" fill="none" xmlns="http://www.w3.org/2000/svg">
<g clip-path="url(#clip0)">
<path d="M15.5279 20.526C18.6454 20.6501 23.0734 21.9031 20.9133 28.3983C20.9133 28.3983 20.4884 29.7104 21.6134 30.1714C21.6134 30.1714 22.6486 30.5615 23.1871 29.208C23.1871 29.208 25.4669 23.8889 21.3261 19.5745C21.3261 19.5745 19.9738 18.1028 15.8809 17.3759C15.0492 17.234 14.02 20.4669 15.5279 20.526Z" fill="#5BB947"/>
<path d="M33.1141 16.6194C32.8927 15.5674 31.6002 15.7033 31.6002 15.7033C31.6002 15.7033 27.4116 16.8853 24.3778 10.1537C24.3778 10.1537 18.6992 8.62884 19.7165 9.52127C20.7409 10.3862 21.6231 11.403 22.3314 12.5355C22.9657 13.5343 27.1902 19.8168 32.2106 18.156C32.5114 18.0338 32.763 17.817 32.9263 17.5391C33.0897 17.2613 33.1557 16.938 33.1141 16.6194Z" fill="#FBB039"/>
<path d="M32.1152 5.40558C32.1815 3.10533 30.915 1.20349 29.2864 1.15772C27.6579 1.11195 26.2839 2.93956 26.2177 5.23982C26.1514 7.54007 27.4179 9.44191 29.0465 9.48768C30.675 9.53345 32.049 7.70583 32.1152 5.40558Z" fill="#D1D627"/>
<path d="M21.368 7.93736C19.3155 8.72341 16.8323 10.3014 13.9721 13.3511C13.9721 13.3511 9.34062 17.8664 15.2406 21.5012C15.2406 21.5012 25.03 27.4114 16.1621 32.5591C16.1621 32.5591 14.9654 33.2742 15.5099 34.3322C15.5099 34.3322 16.0305 35.2955 17.3349 34.6336C17.3349 34.6336 22.5887 32.1218 22.3493 26.1702C22.3493 26.1702 22.2955 23.3333 17.8794 18.9657C17.8794 18.9657 16.6169 17.9255 18.4359 16.0106C20.267 14.2376 22.9238 11.9563 25.0719 11.2234C25.7531 10.9274 26.5248 10.9083 27.2201 11.1702C27.2201 11.1702 25.6823 6.28251 21.368 7.93736Z" fill="#31B5E8"/>
<path d="M36.118 17.2813C35.9265 16.2234 34.634 16.318 34.634 16.318C34.634 16.318 30.4454 17.3522 27.5791 10.5674C27.5791 10.5674 26.2148 5.83924 20.8594 8.15011C23.4503 9.3617 25.4609 12.8782 25.4609 12.8782C26.0593 13.8948 30.0983 20.2955 35.1665 18.7884C35.4709 18.6755 35.729 18.4667 35.901 18.1942C36.073 17.9218 36.1492 17.6009 36.118 17.2813Z" fill="#0C64AF"/>
<path d="M7.37795 35C5.75408 34.9994 4.1757 34.4701 2.88713 33.4941C1.59857 32.518 0.671705 31.1496 0.250017 29.6007C-0.171671 28.0519 -0.0646602 26.4089 0.554483 24.9261C1.17363 23.4434 2.27037 22.2036 3.67493 21.3987C5.07949 20.5937 6.71353 20.2686 8.32409 20.4735C9.93465 20.6784 11.4319 21.402 12.5841 22.5323C13.7362 23.6625 14.479 25.1364 14.6975 26.7257C14.916 28.315 14.5979 29.9311 13.7925 31.3239C13.1466 32.441 12.213 33.3694 11.0864 34.015C9.95984 34.6607 8.68042 35.0005 7.37795 35ZM7.37795 21.0106C5.73134 21.0279 4.14728 21.636 2.92105 22.7216C1.69483 23.8072 0.910118 25.2962 0.713205 26.9109C0.516292 28.5257 0.920611 30.1561 1.85079 31.4982C2.78098 32.8404 4.17355 33.8026 5.76891 34.2055C7.36427 34.6085 9.05357 34.4247 10.5219 33.6884C11.9902 32.9522 13.1373 31.7136 13.7494 30.2037C14.3616 28.6938 14.3969 27.0156 13.8489 25.4818C13.3008 23.9481 12.2068 22.6635 10.7707 21.8676C9.73842 21.2964 8.57314 21.0011 7.38992 21.0106H7.37795Z" fill="#C52127"/>
<path d="M34.6161 35C32.9941 34.9974 31.4181 34.4669 30.1321 33.4906C28.8461 32.5143 27.9216 31.1466 27.5017 29.5992C27.0819 28.0518 27.19 26.4108 27.8093 24.9301C28.4287 23.4495 29.5248 22.2117 30.9281 21.4082C32.3313 20.6048 33.9636 20.2805 35.5722 20.4854C37.1809 20.6904 38.6764 21.4133 39.8272 22.5422C40.9781 23.6711 41.7203 25.1431 41.9389 26.7306C42.1575 28.318 41.8404 29.9324 41.0366 31.3239C40.3902 32.4418 39.4556 33.3709 38.3279 34.0165C37.2002 34.6622 35.9195 35.0015 34.6161 35ZM34.6161 21.0106C32.9684 21.0223 31.3812 21.6257 30.1509 22.7083C28.9206 23.7909 28.1311 25.2787 27.9299 26.8939C27.7286 28.5092 28.1293 30.1417 29.0571 31.4866C29.985 32.8315 31.3766 33.797 32.9722 34.2029C34.5679 34.6088 36.2586 34.4274 37.7288 33.6925C39.199 32.9576 40.3482 31.7194 40.9619 30.209C41.5757 28.6987 41.6121 27.0194 41.0643 25.4845C40.5165 23.9495 39.4219 22.664 37.9849 21.8676C36.9597 21.3004 35.8031 21.0052 34.628 21.0106H34.6161Z" fill="#C52127"/>
<path d="M32.1089 5.16549C30.2719 4.48269 28.3325 4.10717 26.3704 4.05438C26.3704 4.05438 23.1631 2.68913 24.1086 0.395987C24.1086 0.395987 31.5703 -1.83215 32.9945 4.27897C33.0004 4.27897 33.3894 5.46691 32.1089 5.16549Z" fill="#C52127"/>
</g>
<defs>
<clipPath id="clip0">
<rect width="42" height="35" fill="white"/>
</clipPath>
</defs>
</svg>
