<svg width="73" height="51" viewBox="0 0 73 51" fill="none" xmlns="http://www.w3.org/2000/svg">
<path d="M71.1049 7.89391C70.2677 4.78419 67.8158 2.33229 64.7061 1.49506C59.0249 0 36.3 0 36.3 0C36.3 0 13.5751 0 7.89391 1.49506C4.78419 2.33229 2.33229 4.78419 1.49506 7.89391C0 13.5751 0 25.3562 0 25.3562C0 25.3562 0 37.197 1.49506 42.8185C2.33229 45.9282 4.78419 48.3801 7.89391 49.2173C13.5751 50.7124 36.3 50.7124 36.3 50.7124C36.3 50.7124 59.0249 50.7124 64.7061 49.2173C67.8158 48.3801 70.2677 45.9282 71.1049 42.8185C72.6 37.1372 72.6 25.3562 72.6 25.3562C72.6 25.3562 72.6 13.5751 71.1049 7.89391Z" fill="white"/>
<path fill-rule="evenodd" clip-rule="evenodd" d="M64.7061 1.539C67.8158 2.37624 70.2677 4.82813 71.1049 7.93785C72.6 13.6191 72.6 25.4001 72.6 25.4001C72.6 25.4001 72.6 37.1812 71.1049 42.8624C70.2677 45.9721 67.8158 48.424 64.7061 49.2612C59.0249 50.7563 36.3 50.7563 36.3 50.7563C36.3 50.7563 13.5751 50.7563 7.89391 49.2612C4.78419 48.424 2.33229 45.9721 1.49506 42.8624C0 37.241 0 25.4001 0 25.4001C0 25.4001 0 13.6191 1.49506 7.93785C2.33229 4.82813 4.78419 2.37624 7.89391 1.539C13.5751 0.0439453 36.3 0.0439453 36.3 0.0439453C36.3 0.0439453 59.0249 0.0439453 64.7061 1.539ZM29.0041 14.5162V36.344L47.9016 25.46L29.0041 14.5162Z" fill="#FF0000"/>
</svg>
