<svg width="32" height="32" viewBox="0 0 32 32" fill="none" xmlns="http://www.w3.org/2000/svg">
<path d="M25.5617 21.4017L22.1322 20.5242C22.0976 20.5154 22.0622 20.5108 22.0264 20.5108H21.9983L18.8405 16.82C18.7597 16.7253 18.641 16.6708 18.5164 16.6708H16.9852V16.0009C16.9852 15.4292 16.5202 14.9642 15.9485 14.9642H13.7552C13.1836 14.9642 12.7185 15.4291 12.7185 16.0009V16.6708H11.4735C11.3489 16.6708 11.2302 16.7255 11.1493 16.82L7.99158 20.5108H6.46667C5.67915 20.5108 5.0383 21.1563 5.0383 21.9496V25.4833C5.0383 26.2767 5.67915 26.922 6.46667 26.922H7.86859C8.1663 27.8678 9.05099 28.5558 10.0938 28.5558C11.1365 28.5558 12.0212 27.8678 12.3189 26.922H19.849C20.1467 27.8678 21.0314 28.5558 22.0741 28.5558C23.1169 28.5558 24.0016 27.8678 24.2993 26.922H25.1579C26.0624 26.922 26.7983 26.1804 26.7983 25.2691V23.0033C26.7983 22.2463 26.2896 21.5875 25.5617 21.4017ZM20.875 20.5108H15.2783V17.5242H16.5583H18.3196L20.875 20.5108ZM13.5716 16.0009C13.5716 15.8996 13.6538 15.8175 13.755 15.8175H15.9483C16.0495 15.8175 16.1316 15.8996 16.1316 16.0009V16.6708H13.5716V16.0009ZM11.67 17.5242H13.145H14.425V20.5108H9.11457L11.67 17.5242ZM10.0938 27.7025C9.37441 27.7025 8.77462 27.1854 8.64299 26.5036C8.64299 26.5007 8.64459 26.4984 8.64459 26.4955C8.64459 26.4868 8.64022 26.4796 8.63969 26.4711C8.62593 26.39 8.61462 26.308 8.61462 26.223C8.61462 25.4075 9.27841 24.7438 10.0938 24.7438C10.9091 24.7438 11.5729 25.4076 11.5729 26.223C11.5729 27.0387 10.9091 27.7025 10.0938 27.7025ZM22.0741 27.7025C21.2587 27.7025 20.595 27.0387 20.595 26.223C20.595 25.4075 21.2588 24.7438 22.0741 24.7438C22.8895 24.7438 23.5533 25.4076 23.5533 26.223C23.5533 27.0387 22.8896 27.7025 22.0741 27.7025ZM25.945 25.2691C25.945 25.71 25.592 26.0687 25.1579 26.0687H24.3988C24.3188 24.8544 23.3084 23.8904 22.0741 23.8904C20.8399 23.8904 19.8294 24.8544 19.7494 26.0687H12.4184C12.3384 24.8544 11.3279 23.8904 10.0937 23.8904C8.85942 23.8904 7.84897 24.8544 7.76897 26.0687H6.46657C6.14945 26.0687 5.89153 25.8062 5.89153 25.4833V21.9496C5.89153 21.6267 6.14945 21.3642 6.46657 21.3642H21.9724L25.3503 22.2284C25.7003 22.318 25.9449 22.6363 25.9449 23.0034V25.2691H25.945Z" fill="#F49C41" stroke="#F49C41" stroke-width="0.3"/>
<path d="M22.0741 25.4596C21.6524 25.4596 21.3106 25.8015 21.3106 26.2231C21.3106 26.6449 21.6524 26.9866 22.0741 26.9866C22.4959 26.9866 22.8376 26.6448 22.8376 26.2231C22.8376 25.8015 22.4958 25.4596 22.0741 25.4596Z" fill="#F49C41"/>
<path d="M10.0938 25.4596C9.67201 25.4596 9.33025 25.8015 9.33025 26.2231C9.33025 26.6449 9.67211 26.9866 10.0938 26.9866C10.5154 26.9866 10.8573 26.6448 10.8573 26.2231C10.8574 25.8015 10.5155 25.4596 10.0938 25.4596Z" fill="#F49C41"/>
<path d="M18.0196 23.1987C17.5676 22.7462 16.7801 22.7462 16.3263 23.1987C16.1976 23.3283 15.9717 23.3292 15.8413 23.1987L15.5688 22.9262C15.1021 22.4595 14.3429 22.4595 13.8763 22.9262L13.3317 23.4707C13.1651 23.6373 13.1651 23.9074 13.3317 24.074C13.4984 24.2406 13.7684 24.2406 13.9351 24.074L14.4796 23.5295C14.6138 23.3953 14.8313 23.3953 14.9655 23.5295L15.2376 23.802C15.6905 24.2536 16.4788 24.2532 16.93 23.802C17.0601 23.672 17.2859 23.672 17.4159 23.802L17.9604 24.3465C18.0437 24.4298 18.153 24.4716 18.2621 24.4716C18.3712 24.4716 18.4804 24.4298 18.5637 24.3465C18.7304 24.1799 18.7304 23.9099 18.5637 23.7432L18.0196 23.1987Z" fill="#F49C41"/>
<path d="M6.31832 9.41749H12.0783C12.9017 9.41749 13.5716 8.74751 13.5716 7.92415C13.5716 7.17333 13.0141 6.54997 12.2916 6.44586C12.2916 6.44085 12.2916 6.43583 12.2916 6.43082C12.2916 4.7841 10.9517 3.44415 9.30498 3.44415C7.8029 3.44415 6.55618 4.55871 6.34872 6.00458C6.33869 6.00415 6.32834 6.00415 6.31832 6.00415C5.37709 6.00415 4.61165 6.76959 4.61165 7.71082C4.61165 8.65205 5.37709 9.41749 6.31832 9.41749ZM6.31832 6.85749C6.40834 6.85749 6.50253 6.87541 6.60578 6.9121C6.73869 6.95957 6.88578 6.93834 7.00034 6.85546C7.11448 6.77215 7.17997 6.63797 7.17581 6.49717C7.17538 6.4913 7.17208 6.43679 7.17165 6.43093C7.17165 5.25471 8.12877 4.29759 9.30498 4.29759C10.4812 4.29759 11.4383 5.25471 11.4383 6.43093C11.4383 6.55509 11.4263 6.68053 11.4016 6.81514C11.3754 6.95765 11.4233 7.10346 11.5287 7.20266C11.634 7.30229 11.7837 7.34143 11.9232 7.30645C11.9849 7.29141 12.034 7.28437 12.0782 7.28437C12.4312 7.28437 12.7182 7.57141 12.7182 7.92437C12.7182 8.27733 12.4312 8.56436 12.0782 8.56436H6.31821C5.84781 8.56436 5.46488 8.18143 5.46488 7.71103C5.46488 7.24063 5.84792 6.85749 6.31832 6.85749Z" fill="#F49C41" stroke="#F49C41" stroke-width="0.3"/>
<path d="M29.1884 10.9664L27.8387 10.0381C27.6682 9.92085 27.4455 9.90881 27.2643 10.0102L26.4911 10.4367L25.0065 9.41619L27.2654 8.73326C27.4664 8.67216 27.6151 8.50131 27.6473 8.29389C27.68 8.08583 27.59 7.87822 27.417 7.75924L25.1669 6.21175C25.0647 6.14099 24.9414 6.10791 24.8175 6.1168L21.5206 6.35584L20.2979 5.51489C19.0489 4.65596 17.3841 4.75711 16.2466 5.7599L16.1683 5.82932C16.0423 5.94119 15.9747 6.10412 15.9852 6.27208C15.9952 6.44026 16.0823 6.59404 16.2211 6.68946L27.0213 14.1175C27.1408 14.1997 27.2878 14.2311 27.4306 14.2047C27.5734 14.1783 27.6994 14.0963 27.7816 13.9768L29.3291 11.7267C29.5004 11.4778 29.4374 11.1375 29.1884 10.9664ZM27.1904 12.9067L17.4922 6.23641C18.1862 5.90976 19.0188 5.96313 19.6782 6.41576L21.059 7.3654C21.1612 7.43616 21.2845 7.46923 21.4084 7.46035L24.7053 7.2213L25.8602 8.01559L23.6013 8.69852C23.4003 8.75962 23.2516 8.93047 23.2194 9.1379C23.1867 9.34596 23.2767 9.55356 23.4497 9.67254L26.1497 11.5294C26.3201 11.6466 26.5427 11.6576 26.7241 11.5579L27.4972 11.1308L28.1181 11.5574L27.1904 12.9067Z" fill="#F49C41"/>
</svg>
