<svg width="32" height="32" viewBox="0 0 32 32" fill="none" xmlns="http://www.w3.org/2000/svg">
<path d="M30.1704 30.3614L28.7548 22.0737C28.6022 21.1808 27.9688 20.4635 27.1015 20.2019L23.2832 19.0498C23.2041 18.1164 22.8215 17.2359 22.1846 16.5389C21.6751 15.9814 21.0344 15.5754 20.3281 15.3514C20.449 15.2173 20.561 15.0836 20.6638 14.9529C21.5718 13.7981 22.058 12.5258 22.1817 11.6576H22.4763C23.2424 11.6576 23.8657 11.0344 23.8657 10.2682V9.55594C23.8657 9.04463 23.5781 8.58131 23.1455 8.34087V6.62813C23.1455 6.36931 22.9357 6.1595 22.6769 6.1595C22.4181 6.1595 22.2083 6.36925 22.2083 6.62813V8.55087C22.0258 8.58256 21.8081 8.63731 21.5853 8.73112C21.5625 8.73944 21.5403 8.74906 21.5193 8.76062C21.469 8.78356 21.4186 8.80775 21.3685 8.835V5.05863C21.3685 4.01531 20.5197 3.16656 19.4764 3.16656H18.183C17.7368 3.16656 17.301 3.322 16.9556 3.60437L16.8287 3.70813C16.5956 3.89875 16.3013 4.00375 16.0001 4.00375C15.699 4.00375 15.4046 3.89875 15.1715 3.70813L15.0446 3.60437C14.6993 3.32206 14.2635 3.16656 13.8173 3.16656H12.5238C11.4805 3.16656 10.6317 4.01531 10.6317 5.05863V8.835C10.5815 8.80775 10.5311 8.78356 10.4808 8.76062C10.4598 8.74906 10.4377 8.73944 10.4149 8.73112C10.1921 8.63731 9.97433 8.58256 9.7919 8.55087V3.68906C9.7919 2.17169 11.0264 0.937187 12.5438 0.937187H19.4563C20.9738 0.937187 22.2082 2.17169 22.2082 3.68906V4.42569C22.2082 4.6845 22.418 4.89431 22.6768 4.89431C22.9355 4.89431 23.1454 4.68456 23.1454 4.42569V3.68906C23.1454 1.65494 21.4905 0 19.4563 0H12.5438C10.5096 0 8.85471 1.65494 8.85471 3.68906V8.34094C8.42215 8.58138 8.13452 9.04462 8.13452 9.556V10.2683C8.13452 11.0344 8.75783 11.6577 9.52396 11.6577H9.81852C9.94221 12.5259 10.4284 13.7981 11.3364 14.9529C11.4391 15.0836 11.5511 15.2171 11.6718 15.3511C10.0481 15.8669 8.86396 17.3267 8.71702 19.0498L4.89865 20.2019C4.03133 20.4635 3.39783 21.1808 3.24533 22.0737L2.67046 25.4393C2.6269 25.6944 2.7984 25.9365 3.05346 25.9801C3.30846 26.0238 3.55065 25.8522 3.59427 25.5971L4.16915 22.2315C4.2614 21.6912 4.64465 21.2574 5.16933 21.0991L8.7009 20.0336V20.9605C7.8914 21.1095 7.20258 21.6656 6.9189 22.436C6.84358 22.6405 6.79677 22.8546 6.77977 23.0724L6.43846 27.4533C6.41271 27.7833 6.5269 28.1119 6.75158 28.3547C6.97627 28.5976 7.29496 28.737 7.6259 28.737H8.21015C8.46896 28.737 8.67877 28.5273 8.67877 28.2684C8.67877 28.0095 8.46896 27.7998 8.21015 27.7998H7.6259C7.55533 27.7998 7.48746 27.7702 7.43952 27.7183C7.39165 27.6666 7.36733 27.5966 7.37283 27.5263L7.71415 23.1453C7.72446 23.0133 7.75277 22.8836 7.7984 22.7598C7.99577 22.2239 8.52877 21.8609 9.12483 21.8568L9.20202 21.8562C9.20565 21.8561 9.20921 21.8561 9.21277 21.8561C9.79208 21.8561 10.3049 22.1846 10.5212 22.6953C10.5819 22.8385 10.6188 22.9899 10.6309 23.1453L10.9723 27.5263C10.9778 27.5966 10.9535 27.6666 10.9056 27.7184C10.8577 27.7701 10.7898 27.7998 10.7192 27.7998H10.135C9.87615 27.7998 9.66633 28.0096 9.66633 28.2684C9.66633 28.5272 9.87615 28.737 10.135 28.737H10.7192C11.0501 28.737 11.3689 28.5977 11.5935 28.3547C11.8183 28.1118 11.9325 27.7832 11.9067 27.4534L11.5653 23.0724C11.5453 22.816 11.4843 22.5661 11.3841 22.3296C11.0755 21.6011 10.4154 21.0945 9.63802 20.9574V19.7508L11.2489 19.2647C11.3955 19.5734 11.6859 20.2405 12.2612 21.6784C12.841 23.1293 13.5617 24.989 14.2529 26.7969C14.2578 26.8121 14.2635 26.8269 14.2699 26.8414C14.7311 28.0483 15.1786 29.2304 15.5613 30.2502C15.6299 30.4331 15.8047 30.5542 16 30.5542C16.1953 30.5542 16.3701 30.4331 16.4388 30.2502C16.8214 29.2304 17.2688 28.0483 17.7301 26.8414C17.7366 26.8269 17.7422 26.812 17.7471 26.7969C18.4378 24.9901 19.1581 23.1316 19.7377 21.6811C20.3138 20.2413 20.6045 19.5737 20.7511 19.2647L22.362 19.7508V22.5186C21.2458 22.7354 20.4004 23.7198 20.4004 24.8984C20.4004 26.2354 21.4881 27.3231 22.8251 27.3231C24.1621 27.3231 25.2498 26.2354 25.2498 24.8984C25.2498 23.7237 24.4099 22.7417 23.2991 22.5206V20.0336L26.8308 21.0992C27.3555 21.2574 27.7386 21.6913 27.831 22.2316L29.2466 30.5193C29.2701 30.6567 29.2335 30.7911 29.1436 30.8976C29.0537 31.0041 28.9274 31.0629 28.788 31.0629H3.21208C3.07265 31.0629 2.9464 31.0042 2.85646 30.8976C2.76658 30.7911 2.72996 30.6568 2.75346 30.5193L3.22065 27.7841C3.26421 27.529 3.09271 27.2869 2.83765 27.2434C2.58265 27.1996 2.34046 27.3713 2.29683 27.6264L1.82965 30.3615C1.75996 30.7698 1.87315 31.1854 2.14015 31.502C2.40727 31.8185 2.79796 32 3.21208 32H28.788C29.2021 32 29.5928 31.8185 29.8599 31.5019C30.1269 31.1854 30.2401 30.7697 30.1704 30.3614ZM22.2138 9.50556C22.4635 9.44331 22.664 9.44444 22.6662 9.4445C22.747 9.44556 22.8255 9.42669 22.8952 9.39013C22.9161 9.44206 22.9284 9.49788 22.9284 9.556V10.2683C22.9284 10.5176 22.7255 10.7205 22.4761 10.7205H22.2138V9.50556ZM9.78621 10.7205H9.5239C9.27452 10.7205 9.07165 10.5176 9.07165 10.2683V9.556C9.07165 9.49788 9.08402 9.44206 9.10483 9.39019C9.17452 9.42675 9.25302 9.44563 9.33383 9.4445C9.3374 9.44512 9.53727 9.444 9.78621 9.50581V10.7205ZM10.7234 11.2459V10.0148C10.8654 10.0574 11.0207 10.0516 11.1641 9.99175C11.41 9.88912 11.5689 9.65081 11.5689 9.3845V5.05863C11.5689 4.53213 11.9973 4.10375 12.5238 4.10375H13.8172C14.0477 4.10375 14.2729 4.18406 14.4513 4.32994L14.5782 4.43369C14.9783 4.76081 15.4832 4.94088 16 4.94088C16.5168 4.94088 17.0218 4.76075 17.4218 4.43369L17.5487 4.32994C17.7271 4.18406 17.9523 4.10375 18.1828 4.10375H19.4763C20.0028 4.10375 20.4311 4.53213 20.4311 5.05863V9.38456C20.4311 9.65081 20.59 9.88919 20.836 9.99181C20.9181 10.0261 21.0041 10.0427 21.0893 10.0427C21.1529 10.0427 21.216 10.0334 21.2766 10.0153V11.2459C21.2766 11.9301 20.8036 13.2587 19.927 14.3736C19.6366 14.7429 19.2634 15.1397 18.8038 15.4864C18.7893 15.4962 18.7753 15.5068 18.762 15.518C18.0501 16.0444 17.1346 16.4476 16 16.4476C14.8654 16.4476 13.95 16.0444 13.238 15.5179C13.2246 15.5068 13.2108 15.4962 13.1963 15.4865C12.7367 15.1397 12.3635 14.7429 12.073 14.3736C11.1965 13.2588 10.7234 11.9301 10.7234 11.2459ZM19.07 18.8169L16 21.1115L12.93 18.8169C13.2345 18.4299 13.405 17.9333 13.405 17.49V16.7346C14.127 17.1229 14.9884 17.3849 16 17.3849C17.0116 17.3849 17.8731 17.1229 18.595 16.7346V17.49C18.595 17.9333 18.7656 18.4299 19.07 18.8169ZM12.148 18.2938C11.8977 18.1985 11.6203 18.1829 11.3578 18.2541C11.3463 18.2568 11.3351 18.2598 11.3241 18.2631L9.70521 18.7516C9.97902 17.4052 11.0723 16.3336 12.4678 16.126V17.49C12.4678 17.784 12.3366 18.0879 12.148 18.2938ZM13.4198 22.0556C13.4189 22.0534 13.418 22.0512 13.4172 22.0491C13.3935 21.989 13.37 21.9298 13.3468 21.8712C13.3426 21.8606 13.3384 21.85 13.3342 21.8395C13.3115 21.7822 13.2889 21.7253 13.2666 21.6694C13.2651 21.6654 13.2635 21.6616 13.262 21.6576C13.1925 21.483 13.1256 21.3156 13.0612 21.1551C13.0565 21.1435 13.0518 21.1317 13.0471 21.1201C13.0286 21.0741 13.0105 21.0288 12.9924 20.9841C12.9858 20.9676 12.9792 20.9514 12.9726 20.9351C12.9551 20.8918 12.9378 20.8486 12.9206 20.8064C12.9155 20.7938 12.9105 20.7816 12.9055 20.769C12.8744 20.6924 12.844 20.6177 12.8144 20.5449C12.8064 20.5252 12.7982 20.5051 12.7903 20.4857C12.7786 20.4573 12.7673 20.4297 12.756 20.4019C12.7437 20.3719 12.7315 20.3421 12.7195 20.3129C12.715 20.3019 12.7103 20.2904 12.7058 20.2795C12.7021 20.2707 12.6988 20.2627 12.6953 20.254C12.6411 20.1225 12.5897 19.9986 12.5409 19.882C12.5405 19.8811 12.5401 19.8801 12.5397 19.8792C12.5137 19.8171 12.4883 19.7565 12.4638 19.6987C12.4511 19.6688 12.4386 19.6394 12.4264 19.6105L15.0667 21.5839L13.9635 22.0526C13.9615 22.0534 13.9595 22.0542 13.9576 22.0551L13.497 22.2507C13.4708 22.1847 13.4453 22.1199 13.4198 22.0556ZM14.5379 24.9248C14.4453 24.6846 14.3521 24.4431 14.2586 24.2017C14.1125 23.8243 13.973 23.4654 13.8394 23.1236L14.0143 23.0492L14.7288 23.8798L14.5379 24.9248ZM16.0091 28.7334C15.9956 28.7056 15.9796 28.6793 15.9611 28.6548C15.7494 28.0951 15.4806 27.3869 15.1832 26.6077L15.6207 24.2124H16.3793L16.8168 26.6077C16.5051 27.424 16.2252 28.1621 16.0091 28.7334ZM16.5551 23.2752H15.445L14.9196 22.6646L16 22.2057L17.0804 22.6646L16.5551 23.2752ZM17.7414 24.2017C17.648 24.4431 17.5547 24.6846 17.4621 24.9248L17.2713 23.8797L17.9858 23.0492L18.1606 23.1235C18.0271 23.4654 17.8875 23.8243 17.7414 24.2017ZM19.5363 19.6987C19.5131 19.7535 19.489 19.8109 19.4644 19.8696C19.4612 19.8772 19.458 19.8849 19.4548 19.8926C19.4305 19.9507 19.4057 20.0101 19.3801 20.0719C19.3784 20.0759 19.3766 20.0802 19.375 20.0844C19.3528 20.1377 19.3301 20.1927 19.3071 20.2488C19.3028 20.2593 19.2987 20.2689 19.2944 20.2795C19.2893 20.2921 19.2838 20.3054 19.2786 20.3181C19.2683 20.3431 19.2579 20.3686 19.2474 20.3941C19.2345 20.4255 19.2217 20.4568 19.2085 20.489C19.2043 20.4993 19.2 20.5099 19.1958 20.5203C19.1631 20.6002 19.1296 20.6826 19.0954 20.7672C19.09 20.7804 19.0847 20.7934 19.0793 20.8069C19.0624 20.8487 19.0451 20.8914 19.0278 20.9343C19.0211 20.9511 19.0143 20.9679 19.0075 20.9849C18.9896 21.0292 18.9715 21.0741 18.9533 21.1196C18.9481 21.1322 18.943 21.1453 18.9378 21.158C18.8743 21.3163 18.8083 21.4813 18.7399 21.6533C18.7376 21.659 18.7354 21.6646 18.7331 21.6703C18.711 21.7259 18.6886 21.7824 18.666 21.8393C18.6618 21.8499 18.6576 21.8606 18.6533 21.8713C18.63 21.9301 18.6064 21.9896 18.5825 22.0501C18.5821 22.0512 18.5816 22.0523 18.5812 22.0534C18.5555 22.1185 18.5296 22.184 18.5032 22.2509L18.0421 22.055C18.0405 22.0543 18.0389 22.0536 18.0373 22.0529L16.9335 21.584L19.5738 19.6106C19.5614 19.6394 19.5489 19.6687 19.5363 19.6987ZM20.6759 18.2631C20.6758 18.2631 20.6757 18.2631 20.6756 18.2631C20.6753 18.2629 20.6748 18.2629 20.6745 18.2627C20.4026 18.1811 20.1126 18.1946 19.8521 18.2938C19.6635 18.0879 19.5323 17.784 19.5323 17.49V16.1253C20.9366 16.3323 22.0265 17.3939 22.2968 18.7521L20.6759 18.2631ZM24.3126 24.8984C24.3126 25.7187 23.6453 26.3859 22.8251 26.3859C22.0049 26.3859 21.3376 25.7187 21.3376 24.8984C21.3376 24.0782 22.0049 23.4109 22.8251 23.4109C23.6453 23.4109 24.3126 24.0782 24.3126 24.8984Z" fill="#F49C41"/>
</svg>
