<svg width="32" height="32" viewBox="0 0 32 32" fill="none" xmlns="http://www.w3.org/2000/svg">
<path d="M9.06532 14.4002H5.33251C5.03801 14.4002 4.79926 14.639 4.79926 14.9335V20.266C4.79926 20.5605 5.03801 20.7993 5.33251 20.7993H9.06532C9.35982 20.7993 9.59857 20.5605 9.59857 20.266V14.9335C9.59857 14.639 9.35982 14.4002 9.06532 14.4002ZM8.53207 19.7328H5.86576V15.4667H8.53207V19.7328Z" fill="#F49C41"/>
<path d="M18.1307 14.4002H14.3979C14.1034 14.4002 13.8647 14.639 13.8647 14.9335V20.266C13.8647 20.5605 14.1034 20.7993 14.3979 20.7993H18.1307C18.4252 20.7993 18.664 20.5605 18.664 20.266V14.9335C18.664 14.639 18.4252 14.4002 18.1307 14.4002ZM17.5975 19.7328H14.9312V15.4667H17.5975V19.7328Z" fill="#F49C41"/>
<path d="M18.1307 22.9323H14.3979C14.1034 22.9323 13.8647 23.171 13.8647 23.4655V28.7981C13.8647 29.0926 14.1034 29.3313 14.3979 29.3313H18.1307C18.4252 29.3313 18.664 29.0926 18.664 28.7981V23.4655C18.664 23.1711 18.4252 22.9323 18.1307 22.9323ZM17.5975 28.2648H14.9312V23.9988H17.5975V28.2648Z" fill="#F49C41"/>
<path d="M26.6628 14.4002H22.93C22.6355 14.4002 22.3968 14.639 22.3968 14.9335V20.266C22.3968 20.5605 22.6355 20.7993 22.93 20.7993H26.6628C26.9573 20.7993 27.1961 20.5605 27.1961 20.266V14.9335C27.1961 14.639 26.9573 14.4002 26.6628 14.4002ZM26.1296 19.7328H23.4633V15.4667H26.1296V19.7328Z" fill="#F49C41"/>
<path d="M9.06532 22.9323H5.33251C5.03801 22.9323 4.79926 23.171 4.79926 23.4655V28.7981C4.79926 29.0926 5.03801 29.3313 5.33251 29.3313H9.06532C9.35982 29.3313 9.59857 29.0926 9.59857 28.7981V23.4655C9.59857 23.1711 9.35982 22.9323 9.06532 22.9323ZM8.53207 28.2648H5.86576V23.9988H8.53207V28.2648Z" fill="#F49C41"/>
<path d="M26.6628 22.9323H22.93C22.6355 22.9323 22.3968 23.171 22.3968 23.4655V28.7981C22.3968 29.0926 22.6355 29.3313 22.93 29.3313H26.6628C26.9573 29.3313 27.1961 29.0926 27.1961 28.7981V23.4655C27.1961 23.1711 26.9573 22.9323 26.6628 22.9323ZM26.1296 28.2648H23.4633V23.9988H26.1296V28.2648Z" fill="#F49C41"/>
<path d="M29.8624 30.9315V12.8007H30.3956C30.6901 12.8007 30.9289 12.562 30.9289 12.2675V9.60125C30.9289 9.30675 30.6901 9.068 30.3956 9.068H29.8624V6.935C29.8624 6.6405 29.6236 6.40175 29.3291 6.40175H28.2626V0.535874C28.2626 0.241375 28.0239 0.00262451 27.7294 0.00262451H4.26606C3.97156 0.00262451 3.73281 0.241375 3.73281 0.535874V6.40169H2.66631C2.37181 6.40169 2.13306 6.64044 2.13306 6.93494V9.06794H1.59981C1.30531 9.06794 1.06656 9.30669 1.06656 9.60119V12.2674C1.06656 12.5619 1.30531 12.8007 1.59981 12.8007H2.13306V30.9314H0V31.9979H2.66631H29.3291H32V30.9314H29.8624V30.9315ZM4.79931 1.06912H27.1961V6.40169H4.79931V1.06912ZM3.19956 7.46819H4.26606H27.7293H28.7958V9.06794H3.19956V7.46819ZM28.7958 30.9315H3.19956V12.8007H28.7959V30.9315H28.7958ZM2.66631 11.7342H2.13306V10.1345H2.66631H29.3291H29.8624V11.7342H29.3291H2.66631Z" fill="#F49C41"/>
<path d="M15.1787 2.89329C15.0938 2.67654 14.9747 2.48935 14.8211 2.33179C14.6675 2.17422 14.4827 2.0506 14.2668 1.96104C14.0508 1.87147 13.8117 1.82666 13.5493 1.82666C13.2869 1.82666 13.0473 1.87104 12.8306 1.95985C12.6138 2.04866 12.4283 2.17222 12.2739 2.3306C12.1195 2.48897 12 2.67654 11.9152 2.89335C11.8303 3.1101 11.788 3.34566 11.788 3.60004C11.788 3.85441 11.8303 4.08997 11.9152 4.30672C12 4.52347 12.1195 4.71104 12.2739 4.86947C12.4283 5.02785 12.6138 5.15141 12.8306 5.24022C13.0473 5.32904 13.2869 5.37341 13.5493 5.37341C13.8117 5.37341 14.0508 5.32904 14.2668 5.24022C14.4828 5.15147 14.6675 5.02785 14.8211 4.86947C14.9747 4.7111 15.0938 4.52354 15.1787 4.30672C15.2635 4.08997 15.3058 3.85441 15.3058 3.60004C15.3058 3.3456 15.2634 3.11004 15.1787 2.89329ZM14.5679 4.11229C14.5175 4.26347 14.4451 4.39147 14.3507 4.49622C14.2563 4.60104 14.1415 4.68141 14.0063 4.73741C13.8712 4.79341 13.7188 4.82141 13.5492 4.82141C13.3797 4.82141 13.2268 4.79341 13.0909 4.73741C12.9549 4.68141 12.8393 4.60104 12.7442 4.49622C12.649 4.39141 12.5758 4.26347 12.5246 4.11229C12.4734 3.9611 12.4478 3.79035 12.4478 3.59997C12.4478 3.4096 12.4734 3.23885 12.5246 3.08766C12.5758 2.93647 12.649 2.8081 12.7442 2.70254C12.8393 2.59697 12.9549 2.51616 13.0909 2.46016C13.2269 2.40416 13.3797 2.37616 13.5492 2.37616C13.7188 2.37616 13.8712 2.40416 14.0063 2.46016C14.1415 2.51616 14.2563 2.59697 14.3507 2.70254C14.4451 2.8081 14.5175 2.93647 14.5679 3.08766C14.6183 3.23885 14.6435 3.4096 14.6435 3.59997C14.6435 3.79035 14.6183 3.9611 14.5679 4.11229Z" fill="#F49C41"/>
<path d="M10.6264 1.86505V3.35761H8.99949V1.86505H8.34918V5.33492H8.99949V3.81836H10.6264V5.33492H11.2767V1.86505H10.6264Z" fill="#F49C41"/>
<path d="M21.8761 4.80217V1.86505H21.2305V5.33492H23.2655V4.80217H21.8761Z" fill="#F49C41"/>
<path d="M15.3346 1.86505V2.39536H16.3833V5.33492H17.0288V2.39536H18.0726V1.86505H15.3346Z" fill="#F49C41"/>
<path d="M20.6714 2.37855V1.86505H18.4829V5.33492H20.6714V4.81899H19.1332V3.83755H20.345V3.3408H19.1332V2.37855H20.6714Z" fill="#F49C41"/>
</svg>
