<svg width="32" height="32" viewBox="0 0 32 32" fill="none" xmlns="http://www.w3.org/2000/svg">
<g clip-path="url(#clip0)">
<path d="M15.994 5.19623C10.0366 5.19623 5.19 10.0428 5.19 16.0002C5.19 21.9575 10.0366 26.8041 15.994 26.8041C21.9516 26.8041 26.7983 21.9575 26.7983 16.0002C26.7985 10.0428 21.9516 5.19623 15.994 5.19623ZM15.994 25.7801C10.6013 25.7801 6.21396 21.3929 6.21396 16.0002C6.21396 10.6076 10.6012 6.22018 15.994 6.22018C21.3868 6.22018 25.7744 10.6074 25.7744 16.0002C25.7744 21.3929 21.3868 25.7801 15.994 25.7801Z" fill="#F49C41"/>
<path d="M15.994 8.13678C11.6584 8.13678 8.13098 11.6642 8.13098 16.0003C8.13098 20.3364 11.6582 23.8643 15.994 23.8643C20.33 23.8643 23.8575 20.3365 23.8575 16.0003C23.8579 11.6643 20.3301 8.13678 15.994 8.13678ZM15.994 22.8403C12.223 22.8403 9.15494 19.7719 9.15494 16.0003C9.15494 12.229 12.2229 9.16073 15.994 9.16073C19.7654 9.16073 22.8336 12.2288 22.8336 16.0003C22.8339 19.7719 19.7657 22.8403 15.994 22.8403Z" fill="#F49C41"/>
<path d="M31.3551 16.2336C31.3545 15.9776 31.3462 13.4285 31.271 10.9105C31.2245 9.3538 31.1617 8.1114 31.0847 7.21775C31.0372 6.66649 30.985 6.25327 30.9254 5.95427C30.8735 5.69396 30.752 5.08429 30.2238 5.08429C30.1853 5.08429 30.1467 5.08823 30.1091 5.09612C29.7822 5.16378 29.5595 5.41969 29.1044 6.75629C28.8218 7.58683 28.5113 8.67435 28.23 9.81905C27.8956 11.1808 27.1377 14.5429 27.3229 16.3485C27.4444 17.5334 27.98 17.7821 28.4081 17.7821L28.433 17.7818C28.6351 17.7766 28.7957 17.7739 28.9238 17.7739C29.0718 17.7739 29.1639 17.7771 29.2705 17.781C29.2848 17.7815 29.2992 17.7821 29.3144 17.7825C29.2786 18.6231 29.1367 19.788 28.9987 20.921C28.798 22.5695 28.5903 24.2742 28.6613 25.2832C28.7461 26.4884 29.5618 26.916 30.2346 26.916C30.7086 26.916 31.1928 26.714 31.5296 26.3757C31.8351 26.0687 32.002 25.6694 32 25.2516C31.9941 24.0155 31.3987 16.7657 31.3551 16.2336ZM30.8042 25.6533C30.6575 25.8008 30.4395 25.8921 30.2347 25.8921C29.9005 25.8921 29.7147 25.663 29.683 25.2114C29.619 24.3006 29.8204 22.6456 30.0154 21.0448C30.1953 19.5682 30.365 18.1732 30.3458 17.2681C30.3398 16.9896 30.1123 16.7671 29.8339 16.7671C29.5713 16.7671 28.518 16.8678 28.4596 16.7568C28.2985 16.4927 28.1141 15.1354 28.9178 11.3949C29.2857 9.68298 29.7176 8.14811 30.0527 7.14782C30.2239 9.06421 30.3256 12.8052 30.3312 16.2562C30.3312 16.2701 30.3318 16.2838 30.3329 16.2974C30.3392 16.3746 30.9701 24.0402 30.9764 25.2572C30.9771 25.4042 30.9192 25.5377 30.8042 25.6533Z" fill="#F49C41"/>
<path d="M5.57076 10.6505C5.57076 10.3267 5.56045 9.85996 5.5474 9.2691C5.52738 8.3662 5.5025 6.90127 5.5025 5.72622C5.5025 5.44346 5.27329 5.21424 4.99052 5.21424C4.70776 5.21424 4.47855 5.44346 4.47855 5.72622C4.47855 6.91264 4.50358 8.3838 4.52375 9.2917C4.52724 9.45038 4.53073 9.60283 4.53361 9.7471L4.00692 9.75484V5.89764C4.00692 5.61488 3.77771 5.38566 3.49494 5.38566C3.21218 5.38566 2.98297 5.61488 2.98297 5.89764V9.77L2.50467 9.77698V5.89764C2.50467 5.61488 2.27545 5.38566 1.99269 5.38566C1.70993 5.38566 1.48071 5.61488 1.48071 5.89764V9.792L1.02395 9.79868V5.60866C1.02395 5.32589 0.79474 5.09668 0.511977 5.09668C0.229214 5.09668 0 5.32589 0 5.60866V10.5883C0 11.8307 0.910788 12.6796 2.36344 12.8466V15.7796C2.21553 15.7824 2.13407 15.7848 2.12573 15.7849C1.87801 15.7922 1.67094 15.9758 1.63438 16.2209C1.39197 17.8404 0.874684 22.9076 0.917008 24.9811C0.943251 26.262 1.79048 26.8354 2.61844 26.8354C3.4995 26.8354 4.47961 26.1836 4.52694 25.1304C4.58109 23.9212 4.26208 18.7975 4.12585 16.9595C4.10113 16.6249 4.08262 16.3756 4.07397 16.2475C4.05592 15.9788 3.83262 15.7698 3.56321 15.7698C3.50268 15.7698 3.44428 15.7698 3.38739 15.7701V12.8385C4.69532 12.6292 5.57076 11.5922 5.57076 10.6505ZM3.50405 25.0843C3.48448 25.5192 3.03045 25.8112 2.61859 25.8112C2.18656 25.8112 1.95219 25.5169 1.94081 24.9599C1.90501 23.2026 2.31398 18.7368 2.58537 16.7998C2.7225 16.7978 2.89058 16.7961 3.08718 16.7949C3.09264 16.8688 3.09856 16.9492 3.10493 17.0348C3.22811 18.6984 3.55547 23.9362 3.50405 25.0843ZM2.90545 11.8533C2.49557 11.8533 1.22495 11.7739 1.0458 10.8225L4.53437 10.7712C4.44244 11.2497 3.82777 11.8533 2.90545 11.8533Z" fill="#F49C41"/>
</g>
<defs>
<clipPath id="clip0">
<rect width="32" height="32" fill="white"/>
</clipPath>
</defs>
</svg>
