<svg width="32" height="32" viewBox="0 0 32 32" fill="none" xmlns="http://www.w3.org/2000/svg">
<g clip-path="url(#clip0)">
<path d="M31.5453 23.2754H28.514V21.1295C28.514 20.8784 28.3105 20.6748 28.0593 20.6748H26.3921V18.8797C26.3921 18.6287 26.1885 18.425 25.9374 18.425H21.6936C21.4426 18.425 21.2389 18.6287 21.2389 18.8797V23.2753H17.4235C17.4649 23.2204 17.5048 23.1643 17.5427 23.1064C18.5586 21.5535 19.0956 19.7483 19.0956 17.8862C19.0956 15.8869 18.4858 13.9818 17.3334 12.3621V7.28353C17.3334 3.64902 14.3765 0.692078 10.742 0.692078H8.37734C4.72979 0.692078 1.76224 3.65956 1.76224 7.30718V12.3606C1.66031 12.504 1.56111 12.6497 1.46684 12.799C0.50721 14.3201 0 16.0792 0 17.8863C0 19.7485 0.536992 21.5536 1.55293 23.1065C1.59097 23.1646 1.63106 23.2211 1.67274 23.2761C1.42842 23.2839 1.23252 23.4839 1.23252 23.7301V25.5489C1.23252 25.7999 1.43615 26.0035 1.68721 26.0035H4.7185V28.6036C4.7185 28.8547 4.92205 29.0582 5.17319 29.0582H6.8404V30.8534C6.8404 31.1044 7.04403 31.3081 7.29509 31.3081H11.5389C11.79 31.3081 11.9936 31.1044 11.9936 30.8534V26.0035H21.239V30.8534C21.239 31.1044 21.4426 31.3081 21.6937 31.3081H25.9375C26.1886 31.3081 26.3922 31.1044 26.3922 30.8534V29.0582H28.0594C28.3105 29.0582 28.5141 28.8547 28.5141 28.6036V26.0035H31.5454C31.7965 26.0035 32.0001 25.7999 32.0001 25.5489V23.7301C32 23.479 31.7964 23.2754 31.5453 23.2754ZM5.66555 9.1627C5.4351 8.71187 5.31438 8.21391 5.31438 7.70223C5.31438 5.92627 6.76371 4.48149 8.5452 4.48149H10.5507C11.4201 4.48149 12.2313 4.81402 12.8351 5.41785C13.4454 6.02813 13.7815 6.83589 13.7815 7.69223C13.7815 8.20823 13.66 8.70945 13.4281 9.16195C12.2069 8.61594 10.9038 8.3385 9.54772 8.3385C8.19076 8.33842 6.88693 8.61624 5.66555 9.1627ZM14.671 7.28535H16.424V11.2647C15.7816 10.5985 15.0437 10.0256 14.24 9.57125C14.5358 8.99219 14.6909 8.35146 14.6909 7.69215C14.6909 7.55544 14.6842 7.41971 14.671 7.28535ZM8.37726 1.60146H10.7419C13.5661 1.60146 15.9148 3.67289 16.3506 6.37597H14.4748C14.2739 5.78055 13.9371 5.2337 13.4782 4.77477C12.7026 3.99921 11.6629 3.57203 10.5507 3.57203H8.5452C6.72733 3.57203 5.18047 4.74741 4.62521 6.37597H2.74877C3.19482 3.67138 5.54831 1.60146 8.37726 1.60146ZM2.67155 7.3071C2.67155 7.29983 2.67208 7.29263 2.67208 7.28535H4.42598C4.41211 7.42244 4.40491 7.5615 4.40491 7.70215C4.40491 8.35744 4.55936 8.99522 4.85392 9.57269C4.04692 10.0287 3.31176 10.5974 2.67155 11.2619V7.3071ZM2.14183 25.0942V24.1848H4.71842V25.0942H2.14183ZM5.62781 28.1489V21.5842H6.84032V28.1489H5.62781ZM7.74971 19.3345H8.96222V30.3987H7.74971V19.3345ZM11.0841 30.3987H9.87161V19.3345H11.0841V30.3987ZM7.29502 18.4251C7.04395 18.4251 6.84032 18.6287 6.84032 18.8798V20.6749H5.17312C4.92198 20.6749 4.71842 20.8785 4.71842 21.1296V23.2755H3.01681C2.73839 23.1162 2.49642 22.8878 2.31386 22.6087C1.39507 21.2041 0.909386 19.5712 0.909386 17.8863C0.909386 14.5918 2.74059 11.6302 5.68882 10.1567C6.89208 9.55366 8.19046 9.24781 9.54772 9.24781C10.9044 9.24781 12.2022 9.55336 13.4059 10.1564C14.6157 10.7602 15.6823 11.6555 16.4903 12.7456C17.5997 14.2409 18.1861 16.0185 18.1861 17.8863C18.1861 19.5712 17.7004 21.2041 16.7816 22.6087C16.5986 22.8884 16.356 23.1171 16.0789 23.2754H11.9934V18.8798C11.9934 18.6287 11.7898 18.4251 11.5387 18.4251H7.29502ZM11.9935 25.0942V24.1848H21.2389V25.0942H11.9935ZM22.1483 19.3345H23.3608V30.3987H22.1483V19.3345ZM25.4827 30.3987H24.2702V19.3345H25.4827V30.3987ZM27.6046 28.1489H26.3921V21.5842H27.6046V28.1489ZM31.0906 25.0942H28.514V24.1848H31.0906V25.0942Z" fill="#F49C41"/>
</g>
<defs>
<clipPath id="clip0">
<rect width="32" height="32" fill="white"/>
</clipPath>
</defs>
</svg>
