<svg width="32" height="32" viewBox="0 0 32 32" fill="none" xmlns="http://www.w3.org/2000/svg">
<path d="M26.5807 1.03226H24.5161V0H20.3871V1.03226H18.3226V2.58065C18.3226 3.43422 19.0174 4.12903 19.871 4.12903H20.6741C20.9476 4.59829 21.3972 4.94808 21.9355 5.08795V5.82132L16.064 7.77848C16.1873 7.44456 16.2581 7.08594 16.2581 6.70968V5.16129C16.2581 3.45338 14.8692 2.06452 13.1613 2.06452C11.4534 2.06452 10.0645 3.45338 10.0645 5.16129V6.70968C10.0645 7.08594 10.1353 7.44456 10.2586 7.77848L4.17138 5.74975C4.02748 5.70161 3.87828 5.67742 3.72707 5.67742C2.95288 5.67742 2.32259 6.30771 2.32259 7.0819V7.24597C2.32259 7.73009 2.57863 8.18851 2.99093 8.44178L9.03226 12.1595V28.9032H6.96775V32H23.4839V26.8387H20.9032V22.3284C20.9032 21.7961 20.7422 21.284 20.4367 20.8485L17.2903 16.3536V12.1595L21.9355 9.30116V10.3226H20.9032V11.3548H24V10.3226H22.9677V8.66532L23.3317 8.44128C23.744 8.18775 24 7.73009 24 7.24597V7.0819C24 6.43725 23.5607 5.89844 22.9677 5.73412V5.08846C23.5061 4.94859 23.9551 4.59879 24.2291 4.12954H25.0323C25.8858 4.12954 26.5807 3.43473 26.5807 2.58115V1.03226ZM19.871 3.09677C19.5867 3.09677 19.3548 2.86492 19.3548 2.58065V2.06452H20.3871V3.09677H19.871ZM11.0968 5.16129C11.0968 4.02268 12.0227 3.09677 13.1613 3.09677C14.2999 3.09677 15.2258 4.02268 15.2258 5.16129V6.70968C15.2258 7.84829 14.2999 8.77419 13.1613 8.77419C12.0227 8.77419 11.0968 7.84829 11.0968 6.70968V5.16129ZM13.6558 14.2596L13.1613 14.754L12.6668 14.2596L13.1127 9.80393C13.1288 9.80443 13.1447 9.80645 13.1613 9.80645C13.1779 9.80645 13.1938 9.80443 13.2099 9.80393L13.6558 14.2596ZM22.4516 30.9677H8.00001V29.9355H16.2581V27.871H22.4516V30.9677ZM16.7742 26.8387H15.2258V28.9032H13.1613V19.2737C13.1613 19.121 13.3848 19.0441 13.4781 19.1648L16.7742 23.4027V26.8387ZM22.9677 7.24597C22.9677 7.3745 22.9002 7.49521 22.7908 7.56275L16.2581 11.5824V16.6787L19.5912 21.44C19.7739 21.7016 19.871 22.0088 19.871 22.3284V26.8387H17.8065V23.0489L14.2931 18.5315C14.0625 18.2349 13.7145 18.0645 13.3382 18.0645C12.6714 18.0645 12.129 18.6069 12.129 19.2737V28.9032H10.0645V11.5824L3.53176 7.56225C3.42238 7.49521 3.35484 7.37399 3.35484 7.24597V7.0819C3.35484 6.83669 3.6124 6.65197 3.84476 6.72883L11.3848 9.24244C11.6026 9.39567 11.8405 9.51941 12.0945 9.6129L11.5917 14.6436L13.1613 16.2137L14.7314 14.6436L14.2286 9.6129C14.4821 9.51941 14.7205 9.39516 14.9383 9.24244L22.4783 6.72883C22.7102 6.65096 22.9677 6.83669 22.9677 7.0819V7.24597ZM23.4839 3.09677C23.4839 3.66608 23.0209 4.12903 22.4516 4.12903C21.8823 4.12903 21.4194 3.66608 21.4194 3.09677V1.03226H23.4839V3.09677ZM25.5484 2.58065C25.5484 2.86492 25.3165 3.09677 25.0323 3.09677H24.5161V2.06452H25.5484V2.58065Z" fill="#F49C41"/>
</svg>
