<svg width="32" height="32" viewBox="0 0 32 32" fill="none" xmlns="http://www.w3.org/2000/svg">
<path d="M21.375 15.3806C21.7202 15.3806 22 15.1008 22 14.7556V14.7554C22 14.4102 21.7202 14.1304 21.375 14.1304C21.03 14.1304 20.75 14.4104 20.75 14.7556C20.75 15.1008 21.03 15.3806 21.375 15.3806Z" fill="#F49C41"/>
<path d="M21.125 23.8479C22.635 24.9912 24.7402 24.9912 26.25 23.8479C27.0049 24.4197 27.9087 24.7053 28.8125 24.7053C29.9006 24.7053 30.9885 24.2913 31.8169 23.4629C32.061 23.2188 32.061 22.823 31.8169 22.5789C31.5727 22.335 31.1772 22.335 30.9331 22.5789C30.3667 23.1453 29.6135 23.4573 28.8125 23.4573C28.0114 23.4573 27.2583 23.1453 26.6919 22.5789C26.4477 22.335 26.0522 22.335 25.8081 22.5789C25.2414 23.1453 24.4885 23.4573 23.6875 23.4573C22.8865 23.4573 22.1333 23.1453 21.5669 22.5789C21.3227 22.335 20.927 22.335 20.6828 22.5789C20.1665 23.0952 19.5071 23.3833 18.831 23.4436C20.1897 22.96 21.165 21.6616 21.165 20.1394C21.165 19.2795 20.8535 18.4915 20.3379 17.8809L28.3752 17.875C28.7204 17.8748 28.9997 17.595 28.9997 17.25C28.9997 16.4155 28.6745 15.6309 28.0842 15.041C27.4944 14.4519 26.7109 14.1277 25.8777 14.1277C25.8767 14.1277 25.8755 14.1277 25.8742 14.1277L23.8117 14.1292C23.4668 14.1294 23.187 14.4094 23.1872 14.7546C23.1875 15.0996 23.4673 15.3792 23.8122 15.3792H23.8127L25.8755 15.3777H25.8774C26.3772 15.3777 26.8471 15.572 27.2007 15.9253C27.4021 16.1265 27.5517 16.3652 27.6438 16.6257L17.5095 16.6331C17.4707 16.6331 17.4331 16.637 17.3962 16.6438C15.5849 16.7786 14.1521 18.2944 14.1521 20.1394C14.1521 21.1873 14.6147 22.1284 15.3454 22.7715C14.1687 23.7439 12.4177 23.6799 11.3169 22.5791C11.0727 22.335 10.677 22.335 10.4329 22.5791C9.86645 23.1455 9.11352 23.4573 8.31225 23.4573C7.70678 23.4573 7.12866 23.2788 6.63769 22.947L7.50121 21.9438C9.65136 19.4458 12.2185 17.3972 15.1316 15.8555C15.7153 15.5464 16.373 15.3831 17.0339 15.3831L18.8127 15.3818C19.1579 15.3816 19.4375 15.1016 19.4372 14.7563C19.437 14.4114 19.1572 14.1318 18.8122 14.1318C18.8122 14.1318 18.812 14.1318 18.8118 14.1318L17.0334 14.1331C16.1699 14.1331 15.31 14.3467 14.5469 14.7505C11.4954 16.3657 8.80614 18.5115 6.55371 21.1284L5.29345 22.5928C4.72876 23.1501 3.98193 23.4573 3.1875 23.4573C2.38647 23.4573 1.6333 23.1453 1.06689 22.5789C0.822753 22.335 0.427246 22.335 0.183105 22.5789C-0.0610351 22.823 -0.0610351 23.2188 0.183105 23.4629C1.69971 24.9792 4.08618 25.1077 5.74999 23.8479C7.26 24.9912 9.36523 24.9912 10.875 23.8479C12.385 24.9912 14.4902 24.9912 16 23.8479C17.51 24.9912 19.6152 24.9912 21.125 23.8479ZM17.6587 17.8831C18.9028 17.8831 19.9153 18.8953 19.9153 20.1394C19.9153 21.3838 18.9031 22.396 17.6587 22.396C16.4145 22.396 15.4023 21.3838 15.4023 20.1394C15.4023 18.8953 16.4145 17.8831 17.6587 17.8831Z" fill="#F49C41"/>
<path d="M30.9331 26.4966C29.7639 27.666 27.8613 27.666 26.6921 26.4966C26.448 26.2527 26.0522 26.2527 25.8081 26.4966C24.6389 27.666 22.7363 27.666 21.5671 26.4966C21.323 26.2527 20.9272 26.2527 20.6831 26.4966C19.5139 27.666 17.6113 27.666 16.4421 26.4966C16.198 26.2527 15.8022 26.2527 15.5581 26.4966C15.3139 26.7407 15.3139 27.1365 15.5581 27.3806C17.0744 28.897 19.4609 29.0256 21.1247 27.7661C21.8586 28.3235 22.75 28.625 23.6875 28.625C24.625 28.625 25.5163 28.3235 26.2504 27.7661C27.9143 29.0256 30.3007 28.897 31.8168 27.3806C32.061 27.1365 32.061 26.7407 31.8168 26.4966C31.5727 26.2527 31.1772 26.2527 30.9331 26.4966Z" fill="#F49C41"/>
<path d="M10.4331 29.8716C9.26391 31.041 7.36132 31.041 6.19213 29.8716C5.94799 29.6277 5.55224 29.6277 5.3081 29.8716C4.13891 31.041 2.23633 31.041 1.06714 29.8716C0.822997 29.6277 0.427246 29.6277 0.183105 29.8716C-0.0610351 30.1157 -0.0610351 30.5115 0.183105 30.7556C1.69971 32.272 4.08618 32.4006 5.75 31.1409C6.50488 31.7124 7.40869 31.9981 8.31249 31.9981C9.40063 31.9981 10.4885 31.584 11.3169 30.7556C11.561 30.5115 11.561 30.1157 11.3169 29.8716C11.0727 29.6277 10.6772 29.6277 10.4331 29.8716Z" fill="#F49C41"/>
<path d="M5.96874 8.84375C7.55394 8.84375 8.84374 7.5542 8.84374 5.96875C8.84374 4.38354 7.55394 3.09375 5.96874 3.09375C4.38354 3.09375 3.09374 4.38354 3.09374 5.96875C3.09374 7.5542 4.38354 8.84375 5.96874 8.84375ZM5.96874 4.34375C6.86473 4.34375 7.59374 5.07275 7.59374 5.96875C7.59374 6.86475 6.86473 7.59375 5.96874 7.59375C5.07274 7.59375 4.34374 6.86475 4.34374 5.96875C4.34374 5.07275 5.07274 4.34375 5.96874 4.34375Z" fill="#F49C41"/>
<path d="M5.96873 1.6333C6.31395 1.6333 6.59373 1.35327 6.59373 1.0083V0.625C6.59373 0.279785 6.31395 0 5.96873 0C5.62376 0 5.34373 0.279785 5.34373 0.625V1.0083C5.34373 1.35327 5.62376 1.6333 5.96873 1.6333Z" fill="#F49C41"/>
<path d="M5.34373 10.9294V11.3125C5.34373 11.6577 5.62376 11.9375 5.96873 11.9375C6.31395 11.9375 6.59373 11.6577 6.59373 11.3125V10.9294C6.59373 10.5842 6.31395 10.3044 5.96873 10.3044C5.62376 10.3044 5.34373 10.5842 5.34373 10.9294Z" fill="#F49C41"/>
<path d="M10.9294 6.59375H11.3125C11.6577 6.59375 11.9375 6.31396 11.9375 5.96875C11.9375 5.62354 11.6577 5.34375 11.3125 5.34375H10.9294C10.5842 5.34375 10.3044 5.62354 10.3044 5.96875C10.3044 6.31396 10.5842 6.59375 10.9294 6.59375Z" fill="#F49C41"/>
<path d="M0.624999 6.59375H1.0083C1.35327 6.59375 1.6333 6.31396 1.6333 5.96875C1.6333 5.62354 1.35327 5.34375 1.0083 5.34375H0.624999C0.280029 5.34375 0 5.62354 0 5.96875C0 6.31396 0.280029 6.59375 0.624999 6.59375Z" fill="#F49C41"/>
<path d="M2.01929 9.03439L1.7483 9.30539C1.50416 9.54953 1.50416 9.94504 1.7483 10.1892C1.87012 10.3112 2.03028 10.3723 2.19019 10.3723C2.3501 10.3723 2.51002 10.3112 2.63209 10.1894L2.90308 9.91843C3.14722 9.67429 3.14722 9.27878 2.90308 9.03464C2.65919 8.7905 2.26343 8.7905 2.01929 9.03439Z" fill="#F49C41"/>
<path d="M9.47633 3.08618C9.63649 3.08618 9.7964 3.02515 9.91823 2.90308L10.1892 2.63232C10.4334 2.38818 10.4334 1.99243 10.1895 1.74829C9.94533 1.50415 9.54958 1.50415 9.30543 1.74829L9.03444 2.01929C8.79054 2.26318 8.7903 2.65894 9.03444 2.90308C9.15651 3.02515 9.31642 3.08618 9.47633 3.08618Z" fill="#F49C41"/>
<path d="M2.01932 2.90308C2.1414 3.02515 2.30131 3.08618 2.46122 3.08618C2.62113 3.08618 2.78104 3.02515 2.90311 2.90308C3.14725 2.65894 3.14725 2.26318 2.90311 2.01904L2.63212 1.74829C2.38798 1.50415 1.99223 1.50415 1.74808 1.74829C1.50419 1.99243 1.50419 2.38818 1.74833 2.63208L2.01932 2.90308Z" fill="#F49C41"/>
<path d="M9.30568 10.1894C9.42751 10.3112 9.58766 10.3723 9.74733 10.3723C9.90749 10.3723 10.0674 10.3112 10.1895 10.1892C10.4334 9.94504 10.4334 9.54953 10.1892 9.30539L9.91823 9.03439C9.67409 8.79025 9.27858 8.7905 9.03444 9.03439C8.7903 9.27853 8.79054 9.67429 9.03444 9.91843L9.30568 10.1894Z" fill="#F49C41"/>
</svg>
