<svg width="32" height="32" viewBox="0 0 32 32" fill="none" xmlns="http://www.w3.org/2000/svg">
<path d="M31.375 18.9306H28.5669C28.0317 18.9306 27.5134 19.1528 27.1445 19.5405L23.0625 23.8308V15.6242H23.125C24.1589 15.6242 25 14.7832 25 13.7492C25 12.7153 24.1589 11.8743 23.125 11.8743H23.0625V8.49999C23.0625 8.15478 22.7827 7.87499 22.4375 7.87499C22.0923 7.87499 21.8125 8.15478 21.8125 8.49999V11.8743H18.0842L15.5466 10.6714C15.5305 10.6616 15.5142 10.6521 15.4971 10.6435L15.2256 10.5098C16.9062 10.2859 18.207 8.84423 18.207 7.10351C18.207 5.208 16.665 3.66602 14.7695 3.66602C12.8743 3.66602 11.332 5.208 11.332 7.10351C11.332 7.93627 11.6299 8.70043 12.1243 9.29589C11.7383 9.27929 11.355 9.32982 10.9905 9.44213L10.0339 8.9702C8.37769 8.15355 6.36572 8.83642 5.54907 10.4927L3.38843 14.874C3.07642 15.5063 3.03149 16.2214 3.26123 16.8879C3.49121 17.5544 3.96777 18.0898 4.60303 18.3955L5.28052 18.7212C4.92798 19.9321 5.06567 21.2414 5.68994 22.3701L5.63477 22.4253L5.63354 22.4265L2.62598 25.434C2.62231 25.4377 2.61841 25.4406 2.61475 25.444L1.09912 26.9597C0.855225 27.2038 0.855225 27.5996 1.09912 27.8437L3.97168 30.716C3.98364 30.7282 3.99634 30.7392 4.00928 30.7499H0.625C0.279785 30.7499 0 31.0297 0 31.3749C0 31.7202 0.279785 31.9999 0.625 31.9999H6.625C7.2229 31.9999 7.78687 31.7687 8.21289 31.3491L12.7622 26.8654C12.9197 26.7104 13.1279 26.625 13.3489 26.625H19.8674C21.3047 26.625 22.6973 26.0278 23.688 24.9865L28.05 20.4021C28.1841 20.2612 28.3726 20.1804 28.5669 20.1804H30.75V31.3749C30.75 31.7202 31.03 31.9999 31.375 31.9999C31.7202 31.9999 32 31.7202 32 31.3749V19.5556C32 19.2104 31.7202 18.9306 31.375 18.9306ZM23.75 13.7492C23.75 14.0937 23.4697 14.3742 23.125 14.3742H18.1633L18.4438 13.1242H23.125C23.4695 13.1242 23.75 13.4045 23.75 13.7492ZM14.7695 4.91601C15.9758 4.91601 16.957 5.89721 16.957 7.10351C16.957 8.30956 15.9758 9.291 14.7695 9.291C13.5635 9.291 12.582 8.30956 12.582 7.10351C12.582 5.89721 13.5635 4.91601 14.7695 4.91601ZM12.9028 10.758L14.8877 11.7368C14.9084 11.75 14.9302 11.7624 14.9529 11.7732L18.4438 13.1242L18.1633 14.3742L14.4175 12.9026C14.4136 12.9009 14.4094 12.8994 14.4055 12.8977C14.3997 12.8948 14.3943 12.8911 14.3884 12.8884L13.0044 12.2097C12.6943 12.0578 12.3201 12.186 12.168 12.4958C12.0161 12.8059 12.144 13.1802 12.4541 13.3323L13.2756 13.7348L11.6655 17H7.48438L10.092 11.7121C10.604 10.6741 11.8647 10.2461 12.9028 10.758ZM6.95996 24.6355L6.07617 23.7517C6.17847 23.6298 7.10986 22.5905 7.10327 22.4375H8.35376C8.34961 22.9272 7.28711 24.2744 6.95996 24.6355ZM8.93604 20.082C8.63232 20.3857 8.4165 22.0205 8.35376 22.4375H7.10327C6.8374 21.655 6.27905 19.5547 6.57959 18.7785C6.60181 18.748 6.62231 18.7163 6.63916 18.6811C6.66382 18.6299 6.68018 18.5769 6.69019 18.5237C6.73438 18.4311 6.78271 18.3396 6.83569 18.25H11.7178L11.0928 19.5H10.3411C9.8103 19.5 9.31128 19.7068 8.93604 20.082ZM12.9792 21.4948L14.2292 21.1589V22.875H12.9792V21.4948ZM14.2292 21.1589L13 21.5C12.8923 21.3135 13 19.5 11.0928 19.5L11.7178 18.25H13.3489C13.8342 18.25 14.2292 18.645 14.2292 19.1301V21.1589ZM9.48096 10.0913L9.68872 10.1938C9.40063 10.4624 9.15527 10.7859 8.97095 11.1594L8.41724 12.2822L6.49512 11.4001L6.67017 11.0456C7.18188 10.0076 8.44287 9.57933 9.48096 10.0913ZM4.44287 16.4802C4.32275 16.1318 4.34619 15.7575 4.50928 15.4267L5.94214 12.5217L7.86401 13.4038L5.9292 17.3271L5.78223 17.5754L5.14478 17.2688C4.8125 17.1091 4.56323 16.8288 4.44287 16.4802ZM6.07617 23.7517L6.95996 24.6355L4.82495 26.7705L3.94116 25.8867L6.07617 23.7517ZM2.42505 27.4016L3.05664 26.77L3.97144 27.6848C4.2583 27.9716 4.41626 28.3527 4.41626 28.7585C4.41626 28.9448 4.38281 29.1262 4.31885 29.2956L2.42505 27.4016ZM7.33545 30.4587C7.14478 30.6464 6.89233 30.7499 6.625 30.7499H4.81787C4.83057 30.739 4.84326 30.728 4.85547 30.716C5.37842 30.1931 5.66626 29.498 5.66626 28.7585C5.66626 28.444 5.61377 28.1379 5.51392 27.8496L8.65723 24.706C9.26782 24.0952 9.60425 23.2834 9.60425 22.4196V21.487C9.60425 21.2902 9.68091 21.1052 9.82007 20.966C9.95923 20.8266 10.1443 20.7502 10.3411 20.7502H11.4744C11.6147 20.7502 11.7292 20.8647 11.7292 21.0053V26.0002C11.7292 26.0402 11.7334 26.0793 11.7405 26.1174L7.33545 30.4587ZM13.3489 25.375H12.9792V24.125H14.2708C15.0857 24.125 15.7808 24.6474 16.0386 25.375H13.3489ZM17.3328 25.375C17.125 24.3545 16.4182 23.5134 15.4792 23.1181V19.1301C15.4792 17.9555 14.5234 17 13.3489 17H13.0591L14.4014 14.2783L17.1133 15.5639C17.135 15.5744 17.1575 15.5827 17.1802 15.5906C17.1841 15.5918 17.188 15.5927 17.1917 15.594C17.2009 15.5969 17.21 15.6001 17.2192 15.6025C17.2234 15.6037 17.2278 15.6042 17.2319 15.6052C17.2366 15.6064 17.241 15.6079 17.2456 15.6091C17.2561 15.6113 17.2668 15.6125 17.2773 15.6142C17.2871 15.6159 17.2966 15.6179 17.3064 15.6191C17.332 15.6223 17.3577 15.6242 17.3831 15.6242H17.3857H21.8125V24.8718C21.2212 25.1977 20.551 25.375 19.8674 25.375H17.3328Z" fill="#F49C41"/>
<path d="M28.25 7.49998C30.3176 7.49998 32 5.81762 32 3.74999C32 1.68213 30.3176 0 28.25 0C26.1821 0 24.5 1.68213 24.5 3.74999C24.5 5.81762 26.1821 7.49998 28.25 7.49998ZM28.25 1.25C29.6284 1.25 30.75 2.37158 30.75 3.74999C30.75 5.12841 29.6284 6.24999 28.25 6.24999C26.8716 6.24999 25.75 5.12841 25.75 3.74999C25.75 2.37158 26.8716 1.25 28.25 1.25Z" fill="#F49C41"/>
</svg>
