<svg width="102" height="8" viewBox="0 0 102 8" fill="none" xmlns="http://www.w3.org/2000/svg">
<path d="M8.78333 0.0935059V8.00005H6.59762V7.96266V7.47668V3.53276L5.525 5.32715L5.48452 5.42061H3.29881L3.2381 5.32715L3.09643 5.06547L2.18571 3.53276V7.47668V7.96266V8.00005H1.90238H0V0.0935059H2.18571L4.39167 3.45799L6.59762 0.0935059H8.78333Z" fill="#333332"/>
<path d="M29.9929 4C29.9929 6.20561 28.0501 8 25.662 8C23.2536 8 21.331 6.20561 21.331 4C21.331 1.79439 23.2739 0 25.662 0C28.0501 0 29.9929 1.79439 29.9929 4ZM27.9084 4C27.9084 2.85981 26.8965 1.92523 25.6822 1.92523C24.4477 1.92523 23.4358 2.85981 23.4358 4C23.4358 5.1215 24.4477 6.05608 25.6822 6.05608C26.8965 6.05608 27.9084 5.14019 27.9084 4Z" fill="#333332"/>
<path d="M51.2024 4C51.2024 6.20561 49.2596 8 46.8715 8C44.4631 8 42.5405 6.20561 42.5405 4C42.5405 1.7757 44.4834 0 46.8715 0C49.2596 0 51.2024 1.79439 51.2024 4ZM49.1179 4C49.1179 2.85981 48.106 1.92523 46.8917 1.92523C45.6572 1.92523 44.6453 2.85981 44.6453 4C44.6453 5.1215 45.6572 6.05608 46.8917 6.05608C48.106 6.05608 49.1179 5.14019 49.1179 4Z" fill="#333332"/>
<path d="M72.5333 0.0935059V8.00005H70.3476V5.04678H65.9155V8.00005H63.75V0.0935059H65.9357V3.02809H70.3679V0.0935059H72.5333Z" fill="#333332"/>
<path d="M87.2667 8.00005H85.081V0.0935059H87.2667V8.00005Z" fill="#333332"/>
<path d="M102 8.00005H99.8144V0.0935059H102V8.00005Z" fill="#333332"/>
</svg>
