<svg xmlns="http://www.w3.org/2000/svg" width="56" height="62" viewBox="0 0 56 62">
  <metadata><?xpacket begin="﻿" id="W5M0MpCehiHzreSzNTczkc9d"?>
<x:xmpmeta xmlns:x="adobe:ns:meta/" x:xmptk="Adobe XMP Core 5.6-c138 79.159824, 2016/09/14-01:09:01        ">
   <rdf:RDF xmlns:rdf="http://www.w3.org/1999/02/22-rdf-syntax-ns#">
      <rdf:Description rdf:about=""/>
   </rdf:RDF>
</x:xmpmeta>
                                                                                                    
                                                                                                    
                                                                                                    
                                                                                                    
                                                                                                    
                                                                                                    
                                                                                                    
                                                                                                    
                                                                                                    
                                                                                                    
                                                                                                    
                                                                                                    
                                                                                                    
                                                                                                    
                                                                                                    
                                                                                                    
                                                                                                    
                                                                                                    
                                                                                                    
                                                                                                    
                           
<?xpacket end="w"?></metadata>
<defs>
    <style>
      .cls-1 {
        fill: #fff;
        fill-rule: evenodd;
      }
    </style>
  </defs>
  <path class="cls-1" d="M549.3,3618.74c8.667,1.28,10.447,4.1,12.081,5.67s1.587,8.74,1.587,8.74l-24.576.03,2.369-5.8-3.3-13.74c0,2.5-1.288,2.1-1.288,2.1H534.08a1.31,1.31,0,0,1-1.472-1.66l0.023-.12s-0.011.05-.023,0.12l-2.551,13.3,2.251,5.81-25.32.04s0.44-7.25,2.074-8.82,3.293-4.39,11.961-5.67,8.037-5.87,8.321-5.73c-0.053-1.73-.221-4.17-0.221-4.17a11.5,11.5,0,0,1-4.871-5.72c-2.79-1.13-2.422-1.85-2.693-3.31,0,0-.847-5.89,1.037-5.77a1.008,1.008,0,0,0,.99-1.36c-0.1-2.25-.3-6.15-0.154-7.66s0.858-5.56,4-6.17a16.413,16.413,0,0,1,2.932-.45c1.049-.15.749-0.75,2.7-0.75l4.044-.65c1.946,0,3.194,2.89,4.242,3.04s1.057-.46,3.2-0.06c3.145,0.6,2.708,4.74,2.858,6.24a33.945,33.945,0,0,1-.05,6.77c-0.3,1.35.637,1.2,0.637,1.2,2.246,0,1.138,5.77,1.138,5.77-0.346,1.53-.5,1.72-2.59,3.04a13.643,13.643,0,0,1-4.925,6.14s0.019,2.9,0,3.59C541.683,3613,541.193,3617.53,549.3,3618.74Zm-13.286,20.27h-1.449l-2.254-5.82,6.081-.01Z" transform="translate(-507 -3577)"/>
</svg>
