<svg xmlns="http://www.w3.org/2000/svg" width="32" height="32" viewBox="0 0 32 32">
  <metadata><?xpacket begin="﻿" id="W5M0MpCehiHzreSzNTczkc9d"?>
<x:xmpmeta xmlns:x="adobe:ns:meta/" x:xmptk="Adobe XMP Core 5.6-c138 79.159824, 2016/09/14-01:09:01        ">
   <rdf:RDF xmlns:rdf="http://www.w3.org/1999/02/22-rdf-syntax-ns#">
      <rdf:Description rdf:about=""/>
   </rdf:RDF>
</x:xmpmeta>
                                                                                                    
                                                                                                    
                                                                                                    
                                                                                                    
                                                                                                    
                                                                                                    
                                                                                                    
                                                                                                    
                                                                                                    
                                                                                                    
                                                                                                    
                                                                                                    
                                                                                                    
                                                                                                    
                                                                                                    
                                                                                                    
                                                                                                    
                                                                                                    
                                                                                                    
                                                                                                    
                           
<?xpacket end="w"?></metadata>
<defs>
    <style>
      .cls-1 {
        fill: #fff;
        fill-rule: evenodd;
      }
    </style>
  </defs>
  <path id="user" class="cls-1" d="M1167.11,4339.33a29.331,29.331,0,0,0-9.27-3.69,22.933,22.933,0,0,0,3.81-8.17c0.75-3.13.46-9.25-2.55-13.07a9.113,9.113,0,0,0-14.2,0c-3.01,3.82-3.3,9.94-2.55,13.07a22.933,22.933,0,0,0,3.81,8.17,29.331,29.331,0,0,0-9.27,3.69A2.005,2.005,0,0,0,1138,4343h28A2.005,2.005,0,0,0,1167.11,4339.33Zm-10.84-4.93-0.33.41c-2.39,2.74-5.49,2.74-7.88,0l-0.33-.41a17.141,17.141,0,0,1-3.57-12.65c0.55-4.28,3-8.75,7.84-8.75s7.29,4.47,7.84,8.75A17.141,17.141,0,0,1,1156.27,4334.4ZM1138,4341a27.477,27.477,0,0,1,8.59-3.41l2.48-.54a4.993,4.993,0,0,0,5.86,0l2.48,0.54A27.281,27.281,0,0,1,1166,4341h-28Z" transform="translate(-1136 -4311)"/>
</svg>
